<?xml version="1.0" encoding="utf-8" standalone="no"?>
<!DOCTYPE svg PUBLIC "-//W3C//DTD SVG 1.1//EN"
  "http://www.w3.org/Graphics/SVG/1.1/DTD/svg11.dtd">
<!-- Created with matplotlib (https://matplotlib.org/) -->
<svg height="288pt" version="1.1" viewBox="0 0 936 288" width="936pt" xmlns="http://www.w3.org/2000/svg" xmlns:xlink="http://www.w3.org/1999/xlink">
 <metadata>
  <rdf:RDF xmlns:cc="http://creativecommons.org/ns#" xmlns:dc="http://purl.org/dc/elements/1.1/" xmlns:rdf="http://www.w3.org/1999/02/22-rdf-syntax-ns#">
   <cc:Work>
    <dc:type rdf:resource="http://purl.org/dc/dcmitype/StillImage"/>
    <dc:date>2020-10-10T15:39:34.776381</dc:date>
    <dc:format>image/svg+xml</dc:format>
    <dc:creator>
     <cc:Agent>
      <dc:title>Matplotlib v3.3.2, https://matplotlib.org/</dc:title>
     </cc:Agent>
    </dc:creator>
   </cc:Work>
  </rdf:RDF>
 </metadata>
 <defs>
  <style type="text/css">*{stroke-linecap:butt;stroke-linejoin:round;}</style>
 </defs>
 <g id="figure_1">
  <g id="patch_1">
   <path d="M 0 288 
L 936 288 
L 936 0 
L 0 0 
z
" style="fill:none;"/>
  </g>
  <g id="axes_1">
   <g id="patch_2">
    <path d="M 124.55 208.21868 
L 925.2 208.21868 
L 925.2 30.8 
L 124.55 30.8 
z
" style="fill:#ffffff;"/>
   </g>
   <g id="patch_3">
    <path clip-path="url(#p831f1017bc)" d="M 108.537 208.21868 
L 140.563 208.21868 
L 140.563 180.923498 
L 108.537 180.923498 
z
" style="fill:#ffffff;stroke:#ffffff;stroke-linejoin:miter;"/>
   </g>
   <g id="patch_4">
    <path clip-path="url(#p831f1017bc)" d="M 140.563 208.21868 
L 172.589 208.21868 
L 172.589 180.923498 
L 140.563 180.923498 
z
" style="fill:#008000;stroke:#ffffff;stroke-linejoin:miter;"/>
   </g>
   <g id="patch_5">
    <path clip-path="url(#p831f1017bc)" d="M 172.589 208.21868 
L 204.615 208.21868 
L 204.615 180.923498 
L 172.589 180.923498 
z
" style="fill:#008000;stroke:#ffffff;stroke-linejoin:miter;"/>
   </g>
   <g id="patch_6">
    <path clip-path="url(#p831f1017bc)" d="M 204.615 208.21868 
L 236.641 208.21868 
L 236.641 180.923498 
L 204.615 180.923498 
z
" style="fill:#ffff00;stroke:#ffffff;stroke-linejoin:miter;"/>
   </g>
   <g id="patch_7">
    <path clip-path="url(#p831f1017bc)" d="M 236.641 208.21868 
L 268.667 208.21868 
L 268.667 180.923498 
L 236.641 180.923498 
z
" style="fill:#008000;stroke:#ffffff;stroke-linejoin:miter;"/>
   </g>
   <g id="patch_8">
    <path clip-path="url(#p831f1017bc)" d="M 268.667 208.21868 
L 300.693 208.21868 
L 300.693 180.923498 
L 268.667 180.923498 
z
" style="fill:#ffffff;stroke:#ffffff;stroke-linejoin:miter;"/>
   </g>
   <g id="patch_9">
    <path clip-path="url(#p831f1017bc)" d="M 300.693 208.21868 
L 332.719 208.21868 
L 332.719 180.923498 
L 300.693 180.923498 
z
" style="fill:#008000;stroke:#ffffff;stroke-linejoin:miter;"/>
   </g>
   <g id="patch_10">
    <path clip-path="url(#p831f1017bc)" d="M 332.719 208.21868 
L 364.745 208.21868 
L 364.745 180.923498 
L 332.719 180.923498 
z
" style="fill:#008000;stroke:#ffffff;stroke-linejoin:miter;"/>
   </g>
   <g id="patch_11">
    <path clip-path="url(#p831f1017bc)" d="M 364.745 208.21868 
L 396.771 208.21868 
L 396.771 180.923498 
L 364.745 180.923498 
z
" style="fill:#008000;stroke:#ffffff;stroke-linejoin:miter;"/>
   </g>
   <g id="patch_12">
    <path clip-path="url(#p831f1017bc)" d="M 396.771 208.21868 
L 428.797 208.21868 
L 428.797 180.923498 
L 396.771 180.923498 
z
" style="fill:#008000;stroke:#ffffff;stroke-linejoin:miter;"/>
   </g>
   <g id="patch_13">
    <path clip-path="url(#p831f1017bc)" d="M 428.797 208.21868 
L 460.823 208.21868 
L 460.823 180.923498 
L 428.797 180.923498 
z
" style="fill:#ffffff;stroke:#ffffff;stroke-linejoin:miter;"/>
   </g>
   <g id="patch_14">
    <path clip-path="url(#p831f1017bc)" d="M 460.823 208.21868 
L 492.849 208.21868 
L 492.849 180.923498 
L 460.823 180.923498 
z
" style="fill:#008000;stroke:#ffffff;stroke-linejoin:miter;"/>
   </g>
   <g id="patch_15">
    <path clip-path="url(#p831f1017bc)" d="M 492.849 208.21868 
L 524.875 208.21868 
L 524.875 180.923498 
L 492.849 180.923498 
z
" style="fill:#008000;stroke:#ffffff;stroke-linejoin:miter;"/>
   </g>
   <g id="patch_16">
    <path clip-path="url(#p831f1017bc)" d="M 524.875 208.21868 
L 556.901 208.21868 
L 556.901 180.923498 
L 524.875 180.923498 
z
" style="fill:#008000;stroke:#ffffff;stroke-linejoin:miter;"/>
   </g>
   <g id="patch_17">
    <path clip-path="url(#p831f1017bc)" d="M 556.901 208.21868 
L 588.927 208.21868 
L 588.927 180.923498 
L 556.901 180.923498 
z
" style="fill:#008000;stroke:#ffffff;stroke-linejoin:miter;"/>
   </g>
   <g id="patch_18">
    <path clip-path="url(#p831f1017bc)" d="M 588.927 208.21868 
L 620.953 208.21868 
L 620.953 180.923498 
L 588.927 180.923498 
z
" style="fill:#ffffff;stroke:#ffffff;stroke-linejoin:miter;"/>
   </g>
   <g id="patch_19">
    <path clip-path="url(#p831f1017bc)" d="M 620.953 208.21868 
L 652.979 208.21868 
L 652.979 180.923498 
L 620.953 180.923498 
z
" style="fill:#008000;stroke:#ffffff;stroke-linejoin:miter;"/>
   </g>
   <g id="patch_20">
    <path clip-path="url(#p831f1017bc)" d="M 652.979 208.21868 
L 685.005 208.21868 
L 685.005 180.923498 
L 652.979 180.923498 
z
" style="fill:#008000;stroke:#ffffff;stroke-linejoin:miter;"/>
   </g>
   <g id="patch_21">
    <path clip-path="url(#p831f1017bc)" d="M 685.005 208.21868 
L 717.031 208.21868 
L 717.031 180.923498 
L 685.005 180.923498 
z
" style="fill:#008000;stroke:#ffffff;stroke-linejoin:miter;"/>
   </g>
   <g id="patch_22">
    <path clip-path="url(#p831f1017bc)" d="M 717.031 208.21868 
L 749.057 208.21868 
L 749.057 180.923498 
L 717.031 180.923498 
z
" style="fill:#ffff00;stroke:#ffffff;stroke-linejoin:miter;"/>
   </g>
   <g id="patch_23">
    <path clip-path="url(#p831f1017bc)" d="M 749.057 208.21868 
L 781.083 208.21868 
L 781.083 180.923498 
L 749.057 180.923498 
z
" style="fill:#ffffff;stroke:#ffffff;stroke-linejoin:miter;"/>
   </g>
   <g id="patch_24">
    <path clip-path="url(#p831f1017bc)" d="M 781.083 208.21868 
L 813.109 208.21868 
L 813.109 180.923498 
L 781.083 180.923498 
z
" style="fill:#008000;stroke:#ffffff;stroke-linejoin:miter;"/>
   </g>
   <g id="patch_25">
    <path clip-path="url(#p831f1017bc)" d="M 813.109 208.21868 
L 845.135 208.21868 
L 845.135 180.923498 
L 813.109 180.923498 
z
" style="fill:#008000;stroke:#ffffff;stroke-linejoin:miter;"/>
   </g>
   <g id="patch_26">
    <path clip-path="url(#p831f1017bc)" d="M 845.135 208.21868 
L 877.161 208.21868 
L 877.161 180.923498 
L 845.135 180.923498 
z
" style="fill:#008000;stroke:#ffffff;stroke-linejoin:miter;"/>
   </g>
   <g id="patch_27">
    <path clip-path="url(#p831f1017bc)" d="M 877.161 208.21868 
L 909.187 208.21868 
L 909.187 180.923498 
L 877.161 180.923498 
z
" style="fill:#008000;stroke:#ffffff;stroke-linejoin:miter;"/>
   </g>
   <g id="patch_28">
    <path clip-path="url(#p831f1017bc)" d="M 909.187 208.21868 
L 941.213 208.21868 
L 941.213 180.923498 
L 909.187 180.923498 
z
" style="fill:#ffffff;stroke:#ffffff;stroke-linejoin:miter;"/>
   </g>
   <g id="patch_29">
    <path clip-path="url(#p831f1017bc)" d="M 108.537 180.923498 
L 140.563 180.923498 
L 140.563 153.628317 
L 108.537 153.628317 
z
" style="fill:#ffffff;stroke:#ffffff;stroke-linejoin:miter;"/>
   </g>
   <g id="patch_30">
    <path clip-path="url(#p831f1017bc)" d="M 140.563 180.923498 
L 172.589 180.923498 
L 172.589 153.628317 
L 140.563 153.628317 
z
" style="fill:#808080;stroke:#ffffff;stroke-linejoin:miter;"/>
   </g>
   <g id="patch_31">
    <path clip-path="url(#p831f1017bc)" d="M 172.589 180.923498 
L 204.615 180.923498 
L 204.615 153.628317 
L 172.589 153.628317 
z
" style="fill:#808080;stroke:#ffffff;stroke-linejoin:miter;"/>
   </g>
   <g id="patch_32">
    <path clip-path="url(#p831f1017bc)" d="M 204.615 180.923498 
L 236.641 180.923498 
L 236.641 153.628317 
L 204.615 153.628317 
z
" style="fill:#808080;stroke:#ffffff;stroke-linejoin:miter;"/>
   </g>
   <g id="patch_33">
    <path clip-path="url(#p831f1017bc)" d="M 236.641 180.923498 
L 268.667 180.923498 
L 268.667 153.628317 
L 236.641 153.628317 
z
" style="fill:#808080;stroke:#ffffff;stroke-linejoin:miter;"/>
   </g>
   <g id="patch_34">
    <path clip-path="url(#p831f1017bc)" d="M 268.667 180.923498 
L 300.693 180.923498 
L 300.693 153.628317 
L 268.667 153.628317 
z
" style="fill:#ffffff;stroke:#ffffff;stroke-linejoin:miter;"/>
   </g>
   <g id="patch_35">
    <path clip-path="url(#p831f1017bc)" d="M 300.693 180.923498 
L 332.719 180.923498 
L 332.719 153.628317 
L 300.693 153.628317 
z
" style="fill:#808080;stroke:#ffffff;stroke-linejoin:miter;"/>
   </g>
   <g id="patch_36">
    <path clip-path="url(#p831f1017bc)" d="M 332.719 180.923498 
L 364.745 180.923498 
L 364.745 153.628317 
L 332.719 153.628317 
z
" style="fill:#808080;stroke:#ffffff;stroke-linejoin:miter;"/>
   </g>
   <g id="patch_37">
    <path clip-path="url(#p831f1017bc)" d="M 364.745 180.923498 
L 396.771 180.923498 
L 396.771 153.628317 
L 364.745 153.628317 
z
" style="fill:#808080;stroke:#ffffff;stroke-linejoin:miter;"/>
   </g>
   <g id="patch_38">
    <path clip-path="url(#p831f1017bc)" d="M 396.771 180.923498 
L 428.797 180.923498 
L 428.797 153.628317 
L 396.771 153.628317 
z
" style="fill:#808080;stroke:#ffffff;stroke-linejoin:miter;"/>
   </g>
   <g id="patch_39">
    <path clip-path="url(#p831f1017bc)" d="M 428.797 180.923498 
L 460.823 180.923498 
L 460.823 153.628317 
L 428.797 153.628317 
z
" style="fill:#ffffff;stroke:#ffffff;stroke-linejoin:miter;"/>
   </g>
   <g id="patch_40">
    <path clip-path="url(#p831f1017bc)" d="M 460.823 180.923498 
L 492.849 180.923498 
L 492.849 153.628317 
L 460.823 153.628317 
z
" style="fill:#808080;stroke:#ffffff;stroke-linejoin:miter;"/>
   </g>
   <g id="patch_41">
    <path clip-path="url(#p831f1017bc)" d="M 492.849 180.923498 
L 524.875 180.923498 
L 524.875 153.628317 
L 492.849 153.628317 
z
" style="fill:#808080;stroke:#ffffff;stroke-linejoin:miter;"/>
   </g>
   <g id="patch_42">
    <path clip-path="url(#p831f1017bc)" d="M 524.875 180.923498 
L 556.901 180.923498 
L 556.901 153.628317 
L 524.875 153.628317 
z
" style="fill:#808080;stroke:#ffffff;stroke-linejoin:miter;"/>
   </g>
   <g id="patch_43">
    <path clip-path="url(#p831f1017bc)" d="M 556.901 180.923498 
L 588.927 180.923498 
L 588.927 153.628317 
L 556.901 153.628317 
z
" style="fill:#808080;stroke:#ffffff;stroke-linejoin:miter;"/>
   </g>
   <g id="patch_44">
    <path clip-path="url(#p831f1017bc)" d="M 588.927 180.923498 
L 620.953 180.923498 
L 620.953 153.628317 
L 588.927 153.628317 
z
" style="fill:#ffffff;stroke:#ffffff;stroke-linejoin:miter;"/>
   </g>
   <g id="patch_45">
    <path clip-path="url(#p831f1017bc)" d="M 620.953 180.923498 
L 652.979 180.923498 
L 652.979 153.628317 
L 620.953 153.628317 
z
" style="fill:#808080;stroke:#ffffff;stroke-linejoin:miter;"/>
   </g>
   <g id="patch_46">
    <path clip-path="url(#p831f1017bc)" d="M 652.979 180.923498 
L 685.005 180.923498 
L 685.005 153.628317 
L 652.979 153.628317 
z
" style="fill:#808080;stroke:#ffffff;stroke-linejoin:miter;"/>
   </g>
   <g id="patch_47">
    <path clip-path="url(#p831f1017bc)" d="M 685.005 180.923498 
L 717.031 180.923498 
L 717.031 153.628317 
L 685.005 153.628317 
z
" style="fill:#808080;stroke:#ffffff;stroke-linejoin:miter;"/>
   </g>
   <g id="patch_48">
    <path clip-path="url(#p831f1017bc)" d="M 717.031 180.923498 
L 749.057 180.923498 
L 749.057 153.628317 
L 717.031 153.628317 
z
" style="fill:#808080;stroke:#ffffff;stroke-linejoin:miter;"/>
   </g>
   <g id="patch_49">
    <path clip-path="url(#p831f1017bc)" d="M 749.057 180.923498 
L 781.083 180.923498 
L 781.083 153.628317 
L 749.057 153.628317 
z
" style="fill:#ffffff;stroke:#ffffff;stroke-linejoin:miter;"/>
   </g>
   <g id="patch_50">
    <path clip-path="url(#p831f1017bc)" d="M 781.083 180.923498 
L 813.109 180.923498 
L 813.109 153.628317 
L 781.083 153.628317 
z
" style="fill:#808080;stroke:#ffffff;stroke-linejoin:miter;"/>
   </g>
   <g id="patch_51">
    <path clip-path="url(#p831f1017bc)" d="M 813.109 180.923498 
L 845.135 180.923498 
L 845.135 153.628317 
L 813.109 153.628317 
z
" style="fill:#808080;stroke:#ffffff;stroke-linejoin:miter;"/>
   </g>
   <g id="patch_52">
    <path clip-path="url(#p831f1017bc)" d="M 845.135 180.923498 
L 877.161 180.923498 
L 877.161 153.628317 
L 845.135 153.628317 
z
" style="fill:#808080;stroke:#ffffff;stroke-linejoin:miter;"/>
   </g>
   <g id="patch_53">
    <path clip-path="url(#p831f1017bc)" d="M 877.161 180.923498 
L 909.187 180.923498 
L 909.187 153.628317 
L 877.161 153.628317 
z
" style="fill:#808080;stroke:#ffffff;stroke-linejoin:miter;"/>
   </g>
   <g id="patch_54">
    <path clip-path="url(#p831f1017bc)" d="M 909.187 180.923498 
L 941.213 180.923498 
L 941.213 153.628317 
L 909.187 153.628317 
z
" style="fill:#ffffff;stroke:#ffffff;stroke-linejoin:miter;"/>
   </g>
   <g id="patch_55">
    <path clip-path="url(#p831f1017bc)" d="M 108.537 153.628317 
L 140.563 153.628317 
L 140.563 126.333135 
L 108.537 126.333135 
z
" style="fill:#ffffff;stroke:#ffffff;stroke-linejoin:miter;"/>
   </g>
   <g id="patch_56">
    <path clip-path="url(#p831f1017bc)" d="M 140.563 153.628317 
L 172.589 153.628317 
L 172.589 126.333135 
L 140.563 126.333135 
z
" style="fill:#008000;stroke:#ffffff;stroke-linejoin:miter;"/>
   </g>
   <g id="patch_57">
    <path clip-path="url(#p831f1017bc)" d="M 172.589 153.628317 
L 204.615 153.628317 
L 204.615 126.333135 
L 172.589 126.333135 
z
" style="fill:#008000;stroke:#ffffff;stroke-linejoin:miter;"/>
   </g>
   <g id="patch_58">
    <path clip-path="url(#p831f1017bc)" d="M 204.615 153.628317 
L 236.641 153.628317 
L 236.641 126.333135 
L 204.615 126.333135 
z
" style="fill:#008000;stroke:#ffffff;stroke-linejoin:miter;"/>
   </g>
   <g id="patch_59">
    <path clip-path="url(#p831f1017bc)" d="M 236.641 153.628317 
L 268.667 153.628317 
L 268.667 126.333135 
L 236.641 126.333135 
z
" style="fill:#008000;stroke:#ffffff;stroke-linejoin:miter;"/>
   </g>
   <g id="patch_60">
    <path clip-path="url(#p831f1017bc)" d="M 268.667 153.628317 
L 300.693 153.628317 
L 300.693 126.333135 
L 268.667 126.333135 
z
" style="fill:#ffffff;stroke:#ffffff;stroke-linejoin:miter;"/>
   </g>
   <g id="patch_61">
    <path clip-path="url(#p831f1017bc)" d="M 300.693 153.628317 
L 332.719 153.628317 
L 332.719 126.333135 
L 300.693 126.333135 
z
" style="fill:#008000;stroke:#ffffff;stroke-linejoin:miter;"/>
   </g>
   <g id="patch_62">
    <path clip-path="url(#p831f1017bc)" d="M 332.719 153.628317 
L 364.745 153.628317 
L 364.745 126.333135 
L 332.719 126.333135 
z
" style="fill:#008000;stroke:#ffffff;stroke-linejoin:miter;"/>
   </g>
   <g id="patch_63">
    <path clip-path="url(#p831f1017bc)" d="M 364.745 153.628317 
L 396.771 153.628317 
L 396.771 126.333135 
L 364.745 126.333135 
z
" style="fill:#008000;stroke:#ffffff;stroke-linejoin:miter;"/>
   </g>
   <g id="patch_64">
    <path clip-path="url(#p831f1017bc)" d="M 396.771 153.628317 
L 428.797 153.628317 
L 428.797 126.333135 
L 396.771 126.333135 
z
" style="fill:#008000;stroke:#ffffff;stroke-linejoin:miter;"/>
   </g>
   <g id="patch_65">
    <path clip-path="url(#p831f1017bc)" d="M 428.797 153.628317 
L 460.823 153.628317 
L 460.823 126.333135 
L 428.797 126.333135 
z
" style="fill:#ffffff;stroke:#ffffff;stroke-linejoin:miter;"/>
   </g>
   <g id="patch_66">
    <path clip-path="url(#p831f1017bc)" d="M 460.823 153.628317 
L 492.849 153.628317 
L 492.849 126.333135 
L 460.823 126.333135 
z
" style="fill:#008000;stroke:#ffffff;stroke-linejoin:miter;"/>
   </g>
   <g id="patch_67">
    <path clip-path="url(#p831f1017bc)" d="M 492.849 153.628317 
L 524.875 153.628317 
L 524.875 126.333135 
L 492.849 126.333135 
z
" style="fill:#008000;stroke:#ffffff;stroke-linejoin:miter;"/>
   </g>
   <g id="patch_68">
    <path clip-path="url(#p831f1017bc)" d="M 524.875 153.628317 
L 556.901 153.628317 
L 556.901 126.333135 
L 524.875 126.333135 
z
" style="fill:#008000;stroke:#ffffff;stroke-linejoin:miter;"/>
   </g>
   <g id="patch_69">
    <path clip-path="url(#p831f1017bc)" d="M 556.901 153.628317 
L 588.927 153.628317 
L 588.927 126.333135 
L 556.901 126.333135 
z
" style="fill:#008000;stroke:#ffffff;stroke-linejoin:miter;"/>
   </g>
   <g id="patch_70">
    <path clip-path="url(#p831f1017bc)" d="M 588.927 153.628317 
L 620.953 153.628317 
L 620.953 126.333135 
L 588.927 126.333135 
z
" style="fill:#ffffff;stroke:#ffffff;stroke-linejoin:miter;"/>
   </g>
   <g id="patch_71">
    <path clip-path="url(#p831f1017bc)" d="M 620.953 153.628317 
L 652.979 153.628317 
L 652.979 126.333135 
L 620.953 126.333135 
z
" style="fill:#008000;stroke:#ffffff;stroke-linejoin:miter;"/>
   </g>
   <g id="patch_72">
    <path clip-path="url(#p831f1017bc)" d="M 652.979 153.628317 
L 685.005 153.628317 
L 685.005 126.333135 
L 652.979 126.333135 
z
" style="fill:#008000;stroke:#ffffff;stroke-linejoin:miter;"/>
   </g>
   <g id="patch_73">
    <path clip-path="url(#p831f1017bc)" d="M 685.005 153.628317 
L 717.031 153.628317 
L 717.031 126.333135 
L 685.005 126.333135 
z
" style="fill:#008000;stroke:#ffffff;stroke-linejoin:miter;"/>
   </g>
   <g id="patch_74">
    <path clip-path="url(#p831f1017bc)" d="M 717.031 153.628317 
L 749.057 153.628317 
L 749.057 126.333135 
L 717.031 126.333135 
z
" style="fill:#008000;stroke:#ffffff;stroke-linejoin:miter;"/>
   </g>
   <g id="patch_75">
    <path clip-path="url(#p831f1017bc)" d="M 749.057 153.628317 
L 781.083 153.628317 
L 781.083 126.333135 
L 749.057 126.333135 
z
" style="fill:#ffffff;stroke:#ffffff;stroke-linejoin:miter;"/>
   </g>
   <g id="patch_76">
    <path clip-path="url(#p831f1017bc)" d="M 781.083 153.628317 
L 813.109 153.628317 
L 813.109 126.333135 
L 781.083 126.333135 
z
" style="fill:#008000;stroke:#ffffff;stroke-linejoin:miter;"/>
   </g>
   <g id="patch_77">
    <path clip-path="url(#p831f1017bc)" d="M 813.109 153.628317 
L 845.135 153.628317 
L 845.135 126.333135 
L 813.109 126.333135 
z
" style="fill:#008000;stroke:#ffffff;stroke-linejoin:miter;"/>
   </g>
   <g id="patch_78">
    <path clip-path="url(#p831f1017bc)" d="M 845.135 153.628317 
L 877.161 153.628317 
L 877.161 126.333135 
L 845.135 126.333135 
z
" style="fill:#008000;stroke:#ffffff;stroke-linejoin:miter;"/>
   </g>
   <g id="patch_79">
    <path clip-path="url(#p831f1017bc)" d="M 877.161 153.628317 
L 909.187 153.628317 
L 909.187 126.333135 
L 877.161 126.333135 
z
" style="fill:#008000;stroke:#ffffff;stroke-linejoin:miter;"/>
   </g>
   <g id="patch_80">
    <path clip-path="url(#p831f1017bc)" d="M 909.187 153.628317 
L 941.213 153.628317 
L 941.213 126.333135 
L 909.187 126.333135 
z
" style="fill:#ffffff;stroke:#ffffff;stroke-linejoin:miter;"/>
   </g>
   <g id="patch_81">
    <path clip-path="url(#p831f1017bc)" d="M 108.537 126.333135 
L 140.563 126.333135 
L 140.563 99.037954 
L 108.537 99.037954 
z
" style="fill:#ffffff;stroke:#ffffff;stroke-linejoin:miter;"/>
   </g>
   <g id="patch_82">
    <path clip-path="url(#p831f1017bc)" d="M 140.563 126.333135 
L 172.589 126.333135 
L 172.589 99.037954 
L 140.563 99.037954 
z
" style="fill:#ffa500;stroke:#ffffff;stroke-linejoin:miter;"/>
   </g>
   <g id="patch_83">
    <path clip-path="url(#p831f1017bc)" d="M 172.589 126.333135 
L 204.615 126.333135 
L 204.615 99.037954 
L 172.589 99.037954 
z
" style="fill:#ffff00;stroke:#ffffff;stroke-linejoin:miter;"/>
   </g>
   <g id="patch_84">
    <path clip-path="url(#p831f1017bc)" d="M 204.615 126.333135 
L 236.641 126.333135 
L 236.641 99.037954 
L 204.615 99.037954 
z
" style="fill:#ffff00;stroke:#ffffff;stroke-linejoin:miter;"/>
   </g>
   <g id="patch_85">
    <path clip-path="url(#p831f1017bc)" d="M 236.641 126.333135 
L 268.667 126.333135 
L 268.667 99.037954 
L 236.641 99.037954 
z
" style="fill:#ffff00;stroke:#ffffff;stroke-linejoin:miter;"/>
   </g>
   <g id="patch_86">
    <path clip-path="url(#p831f1017bc)" d="M 268.667 126.333135 
L 300.693 126.333135 
L 300.693 99.037954 
L 268.667 99.037954 
z
" style="fill:#ffffff;stroke:#ffffff;stroke-linejoin:miter;"/>
   </g>
   <g id="patch_87">
    <path clip-path="url(#p831f1017bc)" d="M 300.693 126.333135 
L 332.719 126.333135 
L 332.719 99.037954 
L 300.693 99.037954 
z
" style="fill:#ffa500;stroke:#ffffff;stroke-linejoin:miter;"/>
   </g>
   <g id="patch_88">
    <path clip-path="url(#p831f1017bc)" d="M 332.719 126.333135 
L 364.745 126.333135 
L 364.745 99.037954 
L 332.719 99.037954 
z
" style="fill:#ffa500;stroke:#ffffff;stroke-linejoin:miter;"/>
   </g>
   <g id="patch_89">
    <path clip-path="url(#p831f1017bc)" d="M 364.745 126.333135 
L 396.771 126.333135 
L 396.771 99.037954 
L 364.745 99.037954 
z
" style="fill:#ffa500;stroke:#ffffff;stroke-linejoin:miter;"/>
   </g>
   <g id="patch_90">
    <path clip-path="url(#p831f1017bc)" d="M 396.771 126.333135 
L 428.797 126.333135 
L 428.797 99.037954 
L 396.771 99.037954 
z
" style="fill:#ffa500;stroke:#ffffff;stroke-linejoin:miter;"/>
   </g>
   <g id="patch_91">
    <path clip-path="url(#p831f1017bc)" d="M 428.797 126.333135 
L 460.823 126.333135 
L 460.823 99.037954 
L 428.797 99.037954 
z
" style="fill:#ffffff;stroke:#ffffff;stroke-linejoin:miter;"/>
   </g>
   <g id="patch_92">
    <path clip-path="url(#p831f1017bc)" d="M 460.823 126.333135 
L 492.849 126.333135 
L 492.849 99.037954 
L 460.823 99.037954 
z
" style="fill:#ffff00;stroke:#ffffff;stroke-linejoin:miter;"/>
   </g>
   <g id="patch_93">
    <path clip-path="url(#p831f1017bc)" d="M 492.849 126.333135 
L 524.875 126.333135 
L 524.875 99.037954 
L 492.849 99.037954 
z
" style="fill:#ffa500;stroke:#ffffff;stroke-linejoin:miter;"/>
   </g>
   <g id="patch_94">
    <path clip-path="url(#p831f1017bc)" d="M 524.875 126.333135 
L 556.901 126.333135 
L 556.901 99.037954 
L 524.875 99.037954 
z
" style="fill:#ffff00;stroke:#ffffff;stroke-linejoin:miter;"/>
   </g>
   <g id="patch_95">
    <path clip-path="url(#p831f1017bc)" d="M 556.901 126.333135 
L 588.927 126.333135 
L 588.927 99.037954 
L 556.901 99.037954 
z
" style="fill:#ffa500;stroke:#ffffff;stroke-linejoin:miter;"/>
   </g>
   <g id="patch_96">
    <path clip-path="url(#p831f1017bc)" d="M 588.927 126.333135 
L 620.953 126.333135 
L 620.953 99.037954 
L 588.927 99.037954 
z
" style="fill:#ffffff;stroke:#ffffff;stroke-linejoin:miter;"/>
   </g>
   <g id="patch_97">
    <path clip-path="url(#p831f1017bc)" d="M 620.953 126.333135 
L 652.979 126.333135 
L 652.979 99.037954 
L 620.953 99.037954 
z
" style="fill:#008000;stroke:#ffffff;stroke-linejoin:miter;"/>
   </g>
   <g id="patch_98">
    <path clip-path="url(#p831f1017bc)" d="M 652.979 126.333135 
L 685.005 126.333135 
L 685.005 99.037954 
L 652.979 99.037954 
z
" style="fill:#ffff00;stroke:#ffffff;stroke-linejoin:miter;"/>
   </g>
   <g id="patch_99">
    <path clip-path="url(#p831f1017bc)" d="M 685.005 126.333135 
L 717.031 126.333135 
L 717.031 99.037954 
L 685.005 99.037954 
z
" style="fill:#ffff00;stroke:#ffffff;stroke-linejoin:miter;"/>
   </g>
   <g id="patch_100">
    <path clip-path="url(#p831f1017bc)" d="M 717.031 126.333135 
L 749.057 126.333135 
L 749.057 99.037954 
L 717.031 99.037954 
z
" style="fill:#ffff00;stroke:#ffffff;stroke-linejoin:miter;"/>
   </g>
   <g id="patch_101">
    <path clip-path="url(#p831f1017bc)" d="M 749.057 126.333135 
L 781.083 126.333135 
L 781.083 99.037954 
L 749.057 99.037954 
z
" style="fill:#ffffff;stroke:#ffffff;stroke-linejoin:miter;"/>
   </g>
   <g id="patch_102">
    <path clip-path="url(#p831f1017bc)" d="M 781.083 126.333135 
L 813.109 126.333135 
L 813.109 99.037954 
L 781.083 99.037954 
z
" style="fill:#ffff00;stroke:#ffffff;stroke-linejoin:miter;"/>
   </g>
   <g id="patch_103">
    <path clip-path="url(#p831f1017bc)" d="M 813.109 126.333135 
L 845.135 126.333135 
L 845.135 99.037954 
L 813.109 99.037954 
z
" style="fill:#ffff00;stroke:#ffffff;stroke-linejoin:miter;"/>
   </g>
   <g id="patch_104">
    <path clip-path="url(#p831f1017bc)" d="M 845.135 126.333135 
L 877.161 126.333135 
L 877.161 99.037954 
L 845.135 99.037954 
z
" style="fill:url(#h96950f951d);"/>
   </g>
   <g id="patch_105">
    <path clip-path="url(#p831f1017bc)" d="M 877.161 126.333135 
L 909.187 126.333135 
L 909.187 99.037954 
L 877.161 99.037954 
z
" style="fill:url(#h96950f951d);"/>
   </g>
   <g id="patch_106">
    <path clip-path="url(#p831f1017bc)" d="M 909.187 126.333135 
L 941.213 126.333135 
L 941.213 99.037954 
L 909.187 99.037954 
z
" style="fill:#ffffff;stroke:#ffffff;stroke-linejoin:miter;"/>
   </g>
   <g id="patch_107">
    <path clip-path="url(#p831f1017bc)" d="M 111.7396 208.21868 
L 137.3604 208.21868 
L 137.3604 208.21868 
L 111.7396 208.21868 
z
" style="fill:#008000;"/>
   </g>
   <g id="patch_108">
    <path clip-path="url(#p831f1017bc)" d="M 111.7396 208.21868 
L 137.3604 208.21868 
L 137.3604 208.21868 
L 111.7396 208.21868 
z
" style="fill:#ff0000;"/>
   </g>
   <g id="patch_109">
    <path clip-path="url(#p831f1017bc)" d="M 111.7396 208.21868 
L 137.3604 208.21868 
L 137.3604 208.21868 
L 111.7396 208.21868 
z
" style="fill:#0000ff;"/>
   </g>
   <g id="patch_110">
    <path clip-path="url(#p831f1017bc)" d="M 111.7396 208.21868 
L 137.3604 208.21868 
L 137.3604 208.21868 
L 111.7396 208.21868 
z
" style="fill:#ffff00;"/>
   </g>
   <g id="patch_111">
    <path clip-path="url(#p831f1017bc)" d="M 111.7396 208.21868 
L 137.3604 208.21868 
L 137.3604 208.21868 
L 111.7396 208.21868 
z
" style="fill:#ffa500;"/>
   </g>
   <g id="patch_112">
    <path clip-path="url(#p831f1017bc)" d="M 111.7396 208.21868 
L 137.3604 208.21868 
L 137.3604 208.21868 
L 111.7396 208.21868 
z
" style="fill:#808080;"/>
   </g>
   <g id="patch_113">
    <path clip-path="url(#p831f1017bc)" d="M 111.7396 208.21868 
L 137.3604 208.21868 
L 137.3604 208.21868 
L 111.7396 208.21868 
z
" style="fill:url(#h96950f951d);"/>
   </g>
   <g id="patch_114">
    <path clip-path="url(#p831f1017bc)" d="M 111.7396 208.21868 
L 137.3604 208.21868 
L 137.3604 208.21868 
L 111.7396 208.21868 
z
" style="fill:#ffffff;"/>
   </g>
   <g id="matplotlib.axis_1">
    <g id="xtick_1">
     <g id="line2d_1">
      <defs>
       <path d="M 0 0 
L 0 3.5 
" id="m06a3102aa7" style="stroke:#000000;stroke-width:0.8;"/>
      </defs>
      <g>
       <use style="stroke:#000000;stroke-width:0.8;" x="156.576" xlink:href="#m06a3102aa7" y="208.21868"/>
      </g>
     </g>
     <g id="text_1">
      <!-- 1 CPU -->
      <g transform="translate(150.482064 250.821505)rotate(-60)scale(0.12 -0.12)">
       <defs>
        <path d="M 12.40625 8.296875 
L 28.515625 8.296875 
L 28.515625 63.921875 
L 10.984375 60.40625 
L 10.984375 69.390625 
L 28.421875 72.90625 
L 38.28125 72.90625 
L 38.28125 8.296875 
L 54.390625 8.296875 
L 54.390625 0 
L 12.40625 0 
z
" id="DejaVuSans-49"/>
        <path id="DejaVuSans-32"/>
        <path d="M 64.40625 67.28125 
L 64.40625 56.890625 
Q 59.421875 61.53125 53.78125 63.8125 
Q 48.140625 66.109375 41.796875 66.109375 
Q 29.296875 66.109375 22.65625 58.46875 
Q 16.015625 50.828125 16.015625 36.375 
Q 16.015625 21.96875 22.65625 14.328125 
Q 29.296875 6.6875 41.796875 6.6875 
Q 48.140625 6.6875 53.78125 8.984375 
Q 59.421875 11.28125 64.40625 15.921875 
L 64.40625 5.609375 
Q 59.234375 2.09375 53.4375 0.328125 
Q 47.65625 -1.421875 41.21875 -1.421875 
Q 24.65625 -1.421875 15.125 8.703125 
Q 5.609375 18.84375 5.609375 36.375 
Q 5.609375 53.953125 15.125 64.078125 
Q 24.65625 74.21875 41.21875 74.21875 
Q 47.75 74.21875 53.53125 72.484375 
Q 59.328125 70.75 64.40625 67.28125 
z
" id="DejaVuSans-67"/>
        <path d="M 19.671875 64.796875 
L 19.671875 37.40625 
L 32.078125 37.40625 
Q 38.96875 37.40625 42.71875 40.96875 
Q 46.484375 44.53125 46.484375 51.125 
Q 46.484375 57.671875 42.71875 61.234375 
Q 38.96875 64.796875 32.078125 64.796875 
z
M 9.8125 72.90625 
L 32.078125 72.90625 
Q 44.34375 72.90625 50.609375 67.359375 
Q 56.890625 61.8125 56.890625 51.125 
Q 56.890625 40.328125 50.609375 34.8125 
Q 44.34375 29.296875 32.078125 29.296875 
L 19.671875 29.296875 
L 19.671875 0 
L 9.8125 0 
z
" id="DejaVuSans-80"/>
        <path d="M 8.6875 72.90625 
L 18.609375 72.90625 
L 18.609375 28.609375 
Q 18.609375 16.890625 22.84375 11.734375 
Q 27.09375 6.59375 36.625 6.59375 
Q 46.09375 6.59375 50.34375 11.734375 
Q 54.59375 16.890625 54.59375 28.609375 
L 54.59375 72.90625 
L 64.5 72.90625 
L 64.5 27.390625 
Q 64.5 13.140625 57.4375 5.859375 
Q 50.390625 -1.421875 36.625 -1.421875 
Q 22.796875 -1.421875 15.734375 5.859375 
Q 8.6875 13.140625 8.6875 27.390625 
z
" id="DejaVuSans-85"/>
       </defs>
       <use xlink:href="#DejaVuSans-49"/>
       <use x="63.623047" xlink:href="#DejaVuSans-32"/>
       <use x="95.410156" xlink:href="#DejaVuSans-67"/>
       <use x="165.234375" xlink:href="#DejaVuSans-80"/>
       <use x="225.537109" xlink:href="#DejaVuSans-85"/>
      </g>
     </g>
    </g>
    <g id="xtick_2">
     <g id="line2d_2">
      <g>
       <use style="stroke:#000000;stroke-width:0.8;" x="188.602" xlink:href="#m06a3102aa7" y="208.21868"/>
      </g>
     </g>
     <g id="text_2">
      <!-- 2 CPUs -->
      <g transform="translate(180.945252 256.235247)rotate(-60)scale(0.12 -0.12)">
       <defs>
        <path d="M 19.1875 8.296875 
L 53.609375 8.296875 
L 53.609375 0 
L 7.328125 0 
L 7.328125 8.296875 
Q 12.9375 14.109375 22.625 23.890625 
Q 32.328125 33.6875 34.8125 36.53125 
Q 39.546875 41.84375 41.421875 45.53125 
Q 43.3125 49.21875 43.3125 52.78125 
Q 43.3125 58.59375 39.234375 62.25 
Q 35.15625 65.921875 28.609375 65.921875 
Q 23.96875 65.921875 18.8125 64.3125 
Q 13.671875 62.703125 7.8125 59.421875 
L 7.8125 69.390625 
Q 13.765625 71.78125 18.9375 73 
Q 24.125 74.21875 28.421875 74.21875 
Q 39.75 74.21875 46.484375 68.546875 
Q 53.21875 62.890625 53.21875 53.421875 
Q 53.21875 48.921875 51.53125 44.890625 
Q 49.859375 40.875 45.40625 35.40625 
Q 44.1875 33.984375 37.640625 27.21875 
Q 31.109375 20.453125 19.1875 8.296875 
z
" id="DejaVuSans-50"/>
        <path d="M 44.28125 53.078125 
L 44.28125 44.578125 
Q 40.484375 46.53125 36.375 47.5 
Q 32.28125 48.484375 27.875 48.484375 
Q 21.1875 48.484375 17.84375 46.4375 
Q 14.5 44.390625 14.5 40.28125 
Q 14.5 37.15625 16.890625 35.375 
Q 19.28125 33.59375 26.515625 31.984375 
L 29.59375 31.296875 
Q 39.15625 29.25 43.1875 25.515625 
Q 47.21875 21.78125 47.21875 15.09375 
Q 47.21875 7.46875 41.1875 3.015625 
Q 35.15625 -1.421875 24.609375 -1.421875 
Q 20.21875 -1.421875 15.453125 -0.5625 
Q 10.6875 0.296875 5.421875 2 
L 5.421875 11.28125 
Q 10.40625 8.6875 15.234375 7.390625 
Q 20.0625 6.109375 24.8125 6.109375 
Q 31.15625 6.109375 34.5625 8.28125 
Q 37.984375 10.453125 37.984375 14.40625 
Q 37.984375 18.0625 35.515625 20.015625 
Q 33.0625 21.96875 24.703125 23.78125 
L 21.578125 24.515625 
Q 13.234375 26.265625 9.515625 29.90625 
Q 5.8125 33.546875 5.8125 39.890625 
Q 5.8125 47.609375 11.28125 51.796875 
Q 16.75 56 26.8125 56 
Q 31.78125 56 36.171875 55.265625 
Q 40.578125 54.546875 44.28125 53.078125 
z
" id="DejaVuSans-115"/>
       </defs>
       <use xlink:href="#DejaVuSans-50"/>
       <use x="63.623047" xlink:href="#DejaVuSans-32"/>
       <use x="95.410156" xlink:href="#DejaVuSans-67"/>
       <use x="165.234375" xlink:href="#DejaVuSans-80"/>
       <use x="225.537109" xlink:href="#DejaVuSans-85"/>
       <use x="298.730469" xlink:href="#DejaVuSans-115"/>
      </g>
     </g>
    </g>
    <g id="xtick_3">
     <g id="line2d_3">
      <g>
       <use style="stroke:#000000;stroke-width:0.8;" x="220.628" xlink:href="#m06a3102aa7" y="208.21868"/>
      </g>
     </g>
     <g id="text_3">
      <!-- 4 CPUs -->
      <g transform="translate(212.971252 256.235247)rotate(-60)scale(0.12 -0.12)">
       <defs>
        <path d="M 37.796875 64.3125 
L 12.890625 25.390625 
L 37.796875 25.390625 
z
M 35.203125 72.90625 
L 47.609375 72.90625 
L 47.609375 25.390625 
L 58.015625 25.390625 
L 58.015625 17.1875 
L 47.609375 17.1875 
L 47.609375 0 
L 37.796875 0 
L 37.796875 17.1875 
L 4.890625 17.1875 
L 4.890625 26.703125 
z
" id="DejaVuSans-52"/>
       </defs>
       <use xlink:href="#DejaVuSans-52"/>
       <use x="63.623047" xlink:href="#DejaVuSans-32"/>
       <use x="95.410156" xlink:href="#DejaVuSans-67"/>
       <use x="165.234375" xlink:href="#DejaVuSans-80"/>
       <use x="225.537109" xlink:href="#DejaVuSans-85"/>
       <use x="298.730469" xlink:href="#DejaVuSans-115"/>
      </g>
     </g>
    </g>
    <g id="xtick_4">
     <g id="line2d_4">
      <g>
       <use style="stroke:#000000;stroke-width:0.8;" x="252.654" xlink:href="#m06a3102aa7" y="208.21868"/>
      </g>
     </g>
     <g id="text_4">
      <!-- 8 CPUs -->
      <g transform="translate(244.997252 256.235247)rotate(-60)scale(0.12 -0.12)">
       <defs>
        <path d="M 31.78125 34.625 
Q 24.75 34.625 20.71875 30.859375 
Q 16.703125 27.09375 16.703125 20.515625 
Q 16.703125 13.921875 20.71875 10.15625 
Q 24.75 6.390625 31.78125 6.390625 
Q 38.8125 6.390625 42.859375 10.171875 
Q 46.921875 13.96875 46.921875 20.515625 
Q 46.921875 27.09375 42.890625 30.859375 
Q 38.875 34.625 31.78125 34.625 
z
M 21.921875 38.8125 
Q 15.578125 40.375 12.03125 44.71875 
Q 8.5 49.078125 8.5 55.328125 
Q 8.5 64.0625 14.71875 69.140625 
Q 20.953125 74.21875 31.78125 74.21875 
Q 42.671875 74.21875 48.875 69.140625 
Q 55.078125 64.0625 55.078125 55.328125 
Q 55.078125 49.078125 51.53125 44.71875 
Q 48 40.375 41.703125 38.8125 
Q 48.828125 37.15625 52.796875 32.3125 
Q 56.78125 27.484375 56.78125 20.515625 
Q 56.78125 9.90625 50.3125 4.234375 
Q 43.84375 -1.421875 31.78125 -1.421875 
Q 19.734375 -1.421875 13.25 4.234375 
Q 6.78125 9.90625 6.78125 20.515625 
Q 6.78125 27.484375 10.78125 32.3125 
Q 14.796875 37.15625 21.921875 38.8125 
z
M 18.3125 54.390625 
Q 18.3125 48.734375 21.84375 45.5625 
Q 25.390625 42.390625 31.78125 42.390625 
Q 38.140625 42.390625 41.71875 45.5625 
Q 45.3125 48.734375 45.3125 54.390625 
Q 45.3125 60.0625 41.71875 63.234375 
Q 38.140625 66.40625 31.78125 66.40625 
Q 25.390625 66.40625 21.84375 63.234375 
Q 18.3125 60.0625 18.3125 54.390625 
z
" id="DejaVuSans-56"/>
       </defs>
       <use xlink:href="#DejaVuSans-56"/>
       <use x="63.623047" xlink:href="#DejaVuSans-32"/>
       <use x="95.410156" xlink:href="#DejaVuSans-67"/>
       <use x="165.234375" xlink:href="#DejaVuSans-80"/>
       <use x="225.537109" xlink:href="#DejaVuSans-85"/>
       <use x="298.730469" xlink:href="#DejaVuSans-115"/>
      </g>
     </g>
    </g>
    <g id="xtick_5">
     <g id="line2d_5">
      <g>
       <use style="stroke:#000000;stroke-width:0.8;" x="316.706" xlink:href="#m06a3102aa7" y="208.21868"/>
      </g>
     </g>
     <g id="text_5">
      <!-- 1 CPU -->
      <g transform="translate(310.612064 250.821505)rotate(-60)scale(0.12 -0.12)">
       <use xlink:href="#DejaVuSans-49"/>
       <use x="63.623047" xlink:href="#DejaVuSans-32"/>
       <use x="95.410156" xlink:href="#DejaVuSans-67"/>
       <use x="165.234375" xlink:href="#DejaVuSans-80"/>
       <use x="225.537109" xlink:href="#DejaVuSans-85"/>
      </g>
     </g>
    </g>
    <g id="xtick_6">
     <g id="line2d_6">
      <g>
       <use style="stroke:#000000;stroke-width:0.8;" x="348.732" xlink:href="#m06a3102aa7" y="208.21868"/>
      </g>
     </g>
     <g id="text_6">
      <!-- 2 CPUs -->
      <g transform="translate(341.075252 256.235247)rotate(-60)scale(0.12 -0.12)">
       <use xlink:href="#DejaVuSans-50"/>
       <use x="63.623047" xlink:href="#DejaVuSans-32"/>
       <use x="95.410156" xlink:href="#DejaVuSans-67"/>
       <use x="165.234375" xlink:href="#DejaVuSans-80"/>
       <use x="225.537109" xlink:href="#DejaVuSans-85"/>
       <use x="298.730469" xlink:href="#DejaVuSans-115"/>
      </g>
     </g>
    </g>
    <g id="xtick_7">
     <g id="line2d_7">
      <g>
       <use style="stroke:#000000;stroke-width:0.8;" x="380.758" xlink:href="#m06a3102aa7" y="208.21868"/>
      </g>
     </g>
     <g id="text_7">
      <!-- 4 CPUs -->
      <g transform="translate(373.101252 256.235247)rotate(-60)scale(0.12 -0.12)">
       <use xlink:href="#DejaVuSans-52"/>
       <use x="63.623047" xlink:href="#DejaVuSans-32"/>
       <use x="95.410156" xlink:href="#DejaVuSans-67"/>
       <use x="165.234375" xlink:href="#DejaVuSans-80"/>
       <use x="225.537109" xlink:href="#DejaVuSans-85"/>
       <use x="298.730469" xlink:href="#DejaVuSans-115"/>
      </g>
     </g>
    </g>
    <g id="xtick_8">
     <g id="line2d_8">
      <g>
       <use style="stroke:#000000;stroke-width:0.8;" x="412.784" xlink:href="#m06a3102aa7" y="208.21868"/>
      </g>
     </g>
     <g id="text_8">
      <!-- 8 CPUs -->
      <g transform="translate(405.127252 256.235247)rotate(-60)scale(0.12 -0.12)">
       <use xlink:href="#DejaVuSans-56"/>
       <use x="63.623047" xlink:href="#DejaVuSans-32"/>
       <use x="95.410156" xlink:href="#DejaVuSans-67"/>
       <use x="165.234375" xlink:href="#DejaVuSans-80"/>
       <use x="225.537109" xlink:href="#DejaVuSans-85"/>
       <use x="298.730469" xlink:href="#DejaVuSans-115"/>
      </g>
     </g>
    </g>
    <g id="xtick_9">
     <g id="line2d_9">
      <g>
       <use style="stroke:#000000;stroke-width:0.8;" x="476.836" xlink:href="#m06a3102aa7" y="208.21868"/>
      </g>
     </g>
     <g id="text_9">
      <!-- 1 CPU -->
      <g transform="translate(470.742064 250.821505)rotate(-60)scale(0.12 -0.12)">
       <use xlink:href="#DejaVuSans-49"/>
       <use x="63.623047" xlink:href="#DejaVuSans-32"/>
       <use x="95.410156" xlink:href="#DejaVuSans-67"/>
       <use x="165.234375" xlink:href="#DejaVuSans-80"/>
       <use x="225.537109" xlink:href="#DejaVuSans-85"/>
      </g>
     </g>
    </g>
    <g id="xtick_10">
     <g id="line2d_10">
      <g>
       <use style="stroke:#000000;stroke-width:0.8;" x="508.862" xlink:href="#m06a3102aa7" y="208.21868"/>
      </g>
     </g>
     <g id="text_10">
      <!-- 2 CPUs -->
      <g transform="translate(501.205252 256.235247)rotate(-60)scale(0.12 -0.12)">
       <use xlink:href="#DejaVuSans-50"/>
       <use x="63.623047" xlink:href="#DejaVuSans-32"/>
       <use x="95.410156" xlink:href="#DejaVuSans-67"/>
       <use x="165.234375" xlink:href="#DejaVuSans-80"/>
       <use x="225.537109" xlink:href="#DejaVuSans-85"/>
       <use x="298.730469" xlink:href="#DejaVuSans-115"/>
      </g>
     </g>
    </g>
    <g id="xtick_11">
     <g id="line2d_11">
      <g>
       <use style="stroke:#000000;stroke-width:0.8;" x="540.888" xlink:href="#m06a3102aa7" y="208.21868"/>
      </g>
     </g>
     <g id="text_11">
      <!-- 4 CPUs -->
      <g transform="translate(533.231252 256.235247)rotate(-60)scale(0.12 -0.12)">
       <use xlink:href="#DejaVuSans-52"/>
       <use x="63.623047" xlink:href="#DejaVuSans-32"/>
       <use x="95.410156" xlink:href="#DejaVuSans-67"/>
       <use x="165.234375" xlink:href="#DejaVuSans-80"/>
       <use x="225.537109" xlink:href="#DejaVuSans-85"/>
       <use x="298.730469" xlink:href="#DejaVuSans-115"/>
      </g>
     </g>
    </g>
    <g id="xtick_12">
     <g id="line2d_12">
      <g>
       <use style="stroke:#000000;stroke-width:0.8;" x="572.914" xlink:href="#m06a3102aa7" y="208.21868"/>
      </g>
     </g>
     <g id="text_12">
      <!-- 8 CPUs -->
      <g transform="translate(565.257252 256.235247)rotate(-60)scale(0.12 -0.12)">
       <use xlink:href="#DejaVuSans-56"/>
       <use x="63.623047" xlink:href="#DejaVuSans-32"/>
       <use x="95.410156" xlink:href="#DejaVuSans-67"/>
       <use x="165.234375" xlink:href="#DejaVuSans-80"/>
       <use x="225.537109" xlink:href="#DejaVuSans-85"/>
       <use x="298.730469" xlink:href="#DejaVuSans-115"/>
      </g>
     </g>
    </g>
    <g id="xtick_13">
     <g id="line2d_13">
      <g>
       <use style="stroke:#000000;stroke-width:0.8;" x="636.966" xlink:href="#m06a3102aa7" y="208.21868"/>
      </g>
     </g>
     <g id="text_13">
      <!-- 1 CPU -->
      <g transform="translate(630.872064 250.821505)rotate(-60)scale(0.12 -0.12)">
       <use xlink:href="#DejaVuSans-49"/>
       <use x="63.623047" xlink:href="#DejaVuSans-32"/>
       <use x="95.410156" xlink:href="#DejaVuSans-67"/>
       <use x="165.234375" xlink:href="#DejaVuSans-80"/>
       <use x="225.537109" xlink:href="#DejaVuSans-85"/>
      </g>
     </g>
    </g>
    <g id="xtick_14">
     <g id="line2d_14">
      <g>
       <use style="stroke:#000000;stroke-width:0.8;" x="668.992" xlink:href="#m06a3102aa7" y="208.21868"/>
      </g>
     </g>
     <g id="text_14">
      <!-- 2 CPUs -->
      <g transform="translate(661.335252 256.235247)rotate(-60)scale(0.12 -0.12)">
       <use xlink:href="#DejaVuSans-50"/>
       <use x="63.623047" xlink:href="#DejaVuSans-32"/>
       <use x="95.410156" xlink:href="#DejaVuSans-67"/>
       <use x="165.234375" xlink:href="#DejaVuSans-80"/>
       <use x="225.537109" xlink:href="#DejaVuSans-85"/>
       <use x="298.730469" xlink:href="#DejaVuSans-115"/>
      </g>
     </g>
    </g>
    <g id="xtick_15">
     <g id="line2d_15">
      <g>
       <use style="stroke:#000000;stroke-width:0.8;" x="701.018" xlink:href="#m06a3102aa7" y="208.21868"/>
      </g>
     </g>
     <g id="text_15">
      <!-- 4 CPUs -->
      <g transform="translate(693.361252 256.235247)rotate(-60)scale(0.12 -0.12)">
       <use xlink:href="#DejaVuSans-52"/>
       <use x="63.623047" xlink:href="#DejaVuSans-32"/>
       <use x="95.410156" xlink:href="#DejaVuSans-67"/>
       <use x="165.234375" xlink:href="#DejaVuSans-80"/>
       <use x="225.537109" xlink:href="#DejaVuSans-85"/>
       <use x="298.730469" xlink:href="#DejaVuSans-115"/>
      </g>
     </g>
    </g>
    <g id="xtick_16">
     <g id="line2d_16">
      <g>
       <use style="stroke:#000000;stroke-width:0.8;" x="733.044" xlink:href="#m06a3102aa7" y="208.21868"/>
      </g>
     </g>
     <g id="text_16">
      <!-- 8 CPUs -->
      <g transform="translate(725.387252 256.235247)rotate(-60)scale(0.12 -0.12)">
       <use xlink:href="#DejaVuSans-56"/>
       <use x="63.623047" xlink:href="#DejaVuSans-32"/>
       <use x="95.410156" xlink:href="#DejaVuSans-67"/>
       <use x="165.234375" xlink:href="#DejaVuSans-80"/>
       <use x="225.537109" xlink:href="#DejaVuSans-85"/>
       <use x="298.730469" xlink:href="#DejaVuSans-115"/>
      </g>
     </g>
    </g>
    <g id="xtick_17">
     <g id="line2d_17">
      <g>
       <use style="stroke:#000000;stroke-width:0.8;" x="797.096" xlink:href="#m06a3102aa7" y="208.21868"/>
      </g>
     </g>
     <g id="text_17">
      <!-- 1 CPU -->
      <g transform="translate(791.002064 250.821505)rotate(-60)scale(0.12 -0.12)">
       <use xlink:href="#DejaVuSans-49"/>
       <use x="63.623047" xlink:href="#DejaVuSans-32"/>
       <use x="95.410156" xlink:href="#DejaVuSans-67"/>
       <use x="165.234375" xlink:href="#DejaVuSans-80"/>
       <use x="225.537109" xlink:href="#DejaVuSans-85"/>
      </g>
     </g>
    </g>
    <g id="xtick_18">
     <g id="line2d_18">
      <g>
       <use style="stroke:#000000;stroke-width:0.8;" x="829.122" xlink:href="#m06a3102aa7" y="208.21868"/>
      </g>
     </g>
     <g id="text_18">
      <!-- 2 CPUs -->
      <g transform="translate(821.465252 256.235247)rotate(-60)scale(0.12 -0.12)">
       <use xlink:href="#DejaVuSans-50"/>
       <use x="63.623047" xlink:href="#DejaVuSans-32"/>
       <use x="95.410156" xlink:href="#DejaVuSans-67"/>
       <use x="165.234375" xlink:href="#DejaVuSans-80"/>
       <use x="225.537109" xlink:href="#DejaVuSans-85"/>
       <use x="298.730469" xlink:href="#DejaVuSans-115"/>
      </g>
     </g>
    </g>
    <g id="xtick_19">
     <g id="line2d_19">
      <g>
       <use style="stroke:#000000;stroke-width:0.8;" x="861.148" xlink:href="#m06a3102aa7" y="208.21868"/>
      </g>
     </g>
     <g id="text_19">
      <!-- 4 CPUs -->
      <g transform="translate(853.491252 256.235247)rotate(-60)scale(0.12 -0.12)">
       <use xlink:href="#DejaVuSans-52"/>
       <use x="63.623047" xlink:href="#DejaVuSans-32"/>
       <use x="95.410156" xlink:href="#DejaVuSans-67"/>
       <use x="165.234375" xlink:href="#DejaVuSans-80"/>
       <use x="225.537109" xlink:href="#DejaVuSans-85"/>
       <use x="298.730469" xlink:href="#DejaVuSans-115"/>
      </g>
     </g>
    </g>
    <g id="xtick_20">
     <g id="line2d_20">
      <g>
       <use style="stroke:#000000;stroke-width:0.8;" x="893.174" xlink:href="#m06a3102aa7" y="208.21868"/>
      </g>
     </g>
     <g id="text_20">
      <!-- 8 CPUs -->
      <g transform="translate(885.517252 256.235247)rotate(-60)scale(0.12 -0.12)">
       <use xlink:href="#DejaVuSans-56"/>
       <use x="63.623047" xlink:href="#DejaVuSans-32"/>
       <use x="95.410156" xlink:href="#DejaVuSans-67"/>
       <use x="165.234375" xlink:href="#DejaVuSans-80"/>
       <use x="225.537109" xlink:href="#DejaVuSans-85"/>
       <use x="298.730469" xlink:href="#DejaVuSans-115"/>
      </g>
     </g>
    </g>
    <g id="text_21">
     <!-- Number of CPUs, per each Linux kernel version -->
     <g transform="translate(347.978125 272.880716)scale(0.15 -0.15)">
      <defs>
       <path d="M 9.8125 72.90625 
L 23.09375 72.90625 
L 55.421875 11.921875 
L 55.421875 72.90625 
L 64.984375 72.90625 
L 64.984375 0 
L 51.703125 0 
L 19.390625 60.984375 
L 19.390625 0 
L 9.8125 0 
z
" id="DejaVuSans-78"/>
       <path d="M 8.5 21.578125 
L 8.5 54.6875 
L 17.484375 54.6875 
L 17.484375 21.921875 
Q 17.484375 14.15625 20.5 10.265625 
Q 23.53125 6.390625 29.59375 6.390625 
Q 36.859375 6.390625 41.078125 11.03125 
Q 45.3125 15.671875 45.3125 23.6875 
L 45.3125 54.6875 
L 54.296875 54.6875 
L 54.296875 0 
L 45.3125 0 
L 45.3125 8.40625 
Q 42.046875 3.421875 37.71875 1 
Q 33.40625 -1.421875 27.6875 -1.421875 
Q 18.265625 -1.421875 13.375 4.4375 
Q 8.5 10.296875 8.5 21.578125 
z
M 31.109375 56 
z
" id="DejaVuSans-117"/>
       <path d="M 52 44.1875 
Q 55.375 50.25 60.0625 53.125 
Q 64.75 56 71.09375 56 
Q 79.640625 56 84.28125 50.015625 
Q 88.921875 44.046875 88.921875 33.015625 
L 88.921875 0 
L 79.890625 0 
L 79.890625 32.71875 
Q 79.890625 40.578125 77.09375 44.375 
Q 74.3125 48.1875 68.609375 48.1875 
Q 61.625 48.1875 57.5625 43.546875 
Q 53.515625 38.921875 53.515625 30.90625 
L 53.515625 0 
L 44.484375 0 
L 44.484375 32.71875 
Q 44.484375 40.625 41.703125 44.40625 
Q 38.921875 48.1875 33.109375 48.1875 
Q 26.21875 48.1875 22.15625 43.53125 
Q 18.109375 38.875 18.109375 30.90625 
L 18.109375 0 
L 9.078125 0 
L 9.078125 54.6875 
L 18.109375 54.6875 
L 18.109375 46.1875 
Q 21.1875 51.21875 25.484375 53.609375 
Q 29.78125 56 35.6875 56 
Q 41.65625 56 45.828125 52.96875 
Q 50 49.953125 52 44.1875 
z
" id="DejaVuSans-109"/>
       <path d="M 48.6875 27.296875 
Q 48.6875 37.203125 44.609375 42.84375 
Q 40.53125 48.484375 33.40625 48.484375 
Q 26.265625 48.484375 22.1875 42.84375 
Q 18.109375 37.203125 18.109375 27.296875 
Q 18.109375 17.390625 22.1875 11.75 
Q 26.265625 6.109375 33.40625 6.109375 
Q 40.53125 6.109375 44.609375 11.75 
Q 48.6875 17.390625 48.6875 27.296875 
z
M 18.109375 46.390625 
Q 20.953125 51.265625 25.265625 53.625 
Q 29.59375 56 35.59375 56 
Q 45.5625 56 51.78125 48.09375 
Q 58.015625 40.1875 58.015625 27.296875 
Q 58.015625 14.40625 51.78125 6.484375 
Q 45.5625 -1.421875 35.59375 -1.421875 
Q 29.59375 -1.421875 25.265625 0.953125 
Q 20.953125 3.328125 18.109375 8.203125 
L 18.109375 0 
L 9.078125 0 
L 9.078125 75.984375 
L 18.109375 75.984375 
z
" id="DejaVuSans-98"/>
       <path d="M 56.203125 29.59375 
L 56.203125 25.203125 
L 14.890625 25.203125 
Q 15.484375 15.921875 20.484375 11.0625 
Q 25.484375 6.203125 34.421875 6.203125 
Q 39.59375 6.203125 44.453125 7.46875 
Q 49.3125 8.734375 54.109375 11.28125 
L 54.109375 2.78125 
Q 49.265625 0.734375 44.1875 -0.34375 
Q 39.109375 -1.421875 33.890625 -1.421875 
Q 20.796875 -1.421875 13.15625 6.1875 
Q 5.515625 13.8125 5.515625 26.8125 
Q 5.515625 40.234375 12.765625 48.109375 
Q 20.015625 56 32.328125 56 
Q 43.359375 56 49.78125 48.890625 
Q 56.203125 41.796875 56.203125 29.59375 
z
M 47.21875 32.234375 
Q 47.125 39.59375 43.09375 43.984375 
Q 39.0625 48.390625 32.421875 48.390625 
Q 24.90625 48.390625 20.390625 44.140625 
Q 15.875 39.890625 15.1875 32.171875 
z
" id="DejaVuSans-101"/>
       <path d="M 41.109375 46.296875 
Q 39.59375 47.171875 37.8125 47.578125 
Q 36.03125 48 33.890625 48 
Q 26.265625 48 22.1875 43.046875 
Q 18.109375 38.09375 18.109375 28.8125 
L 18.109375 0 
L 9.078125 0 
L 9.078125 54.6875 
L 18.109375 54.6875 
L 18.109375 46.1875 
Q 20.953125 51.171875 25.484375 53.578125 
Q 30.03125 56 36.53125 56 
Q 37.453125 56 38.578125 55.875 
Q 39.703125 55.765625 41.0625 55.515625 
z
" id="DejaVuSans-114"/>
       <path d="M 30.609375 48.390625 
Q 23.390625 48.390625 19.1875 42.75 
Q 14.984375 37.109375 14.984375 27.296875 
Q 14.984375 17.484375 19.15625 11.84375 
Q 23.34375 6.203125 30.609375 6.203125 
Q 37.796875 6.203125 41.984375 11.859375 
Q 46.1875 17.53125 46.1875 27.296875 
Q 46.1875 37.015625 41.984375 42.703125 
Q 37.796875 48.390625 30.609375 48.390625 
z
M 30.609375 56 
Q 42.328125 56 49.015625 48.375 
Q 55.71875 40.765625 55.71875 27.296875 
Q 55.71875 13.875 49.015625 6.21875 
Q 42.328125 -1.421875 30.609375 -1.421875 
Q 18.84375 -1.421875 12.171875 6.21875 
Q 5.515625 13.875 5.515625 27.296875 
Q 5.515625 40.765625 12.171875 48.375 
Q 18.84375 56 30.609375 56 
z
" id="DejaVuSans-111"/>
       <path d="M 37.109375 75.984375 
L 37.109375 68.5 
L 28.515625 68.5 
Q 23.6875 68.5 21.796875 66.546875 
Q 19.921875 64.59375 19.921875 59.515625 
L 19.921875 54.6875 
L 34.71875 54.6875 
L 34.71875 47.703125 
L 19.921875 47.703125 
L 19.921875 0 
L 10.890625 0 
L 10.890625 47.703125 
L 2.296875 47.703125 
L 2.296875 54.6875 
L 10.890625 54.6875 
L 10.890625 58.5 
Q 10.890625 67.625 15.140625 71.796875 
Q 19.390625 75.984375 28.609375 75.984375 
z
" id="DejaVuSans-102"/>
       <path d="M 11.71875 12.40625 
L 22.015625 12.40625 
L 22.015625 4 
L 14.015625 -11.625 
L 7.71875 -11.625 
L 11.71875 4 
z
" id="DejaVuSans-44"/>
       <path d="M 18.109375 8.203125 
L 18.109375 -20.796875 
L 9.078125 -20.796875 
L 9.078125 54.6875 
L 18.109375 54.6875 
L 18.109375 46.390625 
Q 20.953125 51.265625 25.265625 53.625 
Q 29.59375 56 35.59375 56 
Q 45.5625 56 51.78125 48.09375 
Q 58.015625 40.1875 58.015625 27.296875 
Q 58.015625 14.40625 51.78125 6.484375 
Q 45.5625 -1.421875 35.59375 -1.421875 
Q 29.59375 -1.421875 25.265625 0.953125 
Q 20.953125 3.328125 18.109375 8.203125 
z
M 48.6875 27.296875 
Q 48.6875 37.203125 44.609375 42.84375 
Q 40.53125 48.484375 33.40625 48.484375 
Q 26.265625 48.484375 22.1875 42.84375 
Q 18.109375 37.203125 18.109375 27.296875 
Q 18.109375 17.390625 22.1875 11.75 
Q 26.265625 6.109375 33.40625 6.109375 
Q 40.53125 6.109375 44.609375 11.75 
Q 48.6875 17.390625 48.6875 27.296875 
z
" id="DejaVuSans-112"/>
       <path d="M 34.28125 27.484375 
Q 23.390625 27.484375 19.1875 25 
Q 14.984375 22.515625 14.984375 16.5 
Q 14.984375 11.71875 18.140625 8.90625 
Q 21.296875 6.109375 26.703125 6.109375 
Q 34.1875 6.109375 38.703125 11.40625 
Q 43.21875 16.703125 43.21875 25.484375 
L 43.21875 27.484375 
z
M 52.203125 31.203125 
L 52.203125 0 
L 43.21875 0 
L 43.21875 8.296875 
Q 40.140625 3.328125 35.546875 0.953125 
Q 30.953125 -1.421875 24.3125 -1.421875 
Q 15.921875 -1.421875 10.953125 3.296875 
Q 6 8.015625 6 15.921875 
Q 6 25.140625 12.171875 29.828125 
Q 18.359375 34.515625 30.609375 34.515625 
L 43.21875 34.515625 
L 43.21875 35.40625 
Q 43.21875 41.609375 39.140625 45 
Q 35.0625 48.390625 27.6875 48.390625 
Q 23 48.390625 18.546875 47.265625 
Q 14.109375 46.140625 10.015625 43.890625 
L 10.015625 52.203125 
Q 14.9375 54.109375 19.578125 55.046875 
Q 24.21875 56 28.609375 56 
Q 40.484375 56 46.34375 49.84375 
Q 52.203125 43.703125 52.203125 31.203125 
z
" id="DejaVuSans-97"/>
       <path d="M 48.78125 52.59375 
L 48.78125 44.1875 
Q 44.96875 46.296875 41.140625 47.34375 
Q 37.3125 48.390625 33.40625 48.390625 
Q 24.65625 48.390625 19.8125 42.84375 
Q 14.984375 37.3125 14.984375 27.296875 
Q 14.984375 17.28125 19.8125 11.734375 
Q 24.65625 6.203125 33.40625 6.203125 
Q 37.3125 6.203125 41.140625 7.25 
Q 44.96875 8.296875 48.78125 10.40625 
L 48.78125 2.09375 
Q 45.015625 0.34375 40.984375 -0.53125 
Q 36.96875 -1.421875 32.421875 -1.421875 
Q 20.0625 -1.421875 12.78125 6.34375 
Q 5.515625 14.109375 5.515625 27.296875 
Q 5.515625 40.671875 12.859375 48.328125 
Q 20.21875 56 33.015625 56 
Q 37.15625 56 41.109375 55.140625 
Q 45.0625 54.296875 48.78125 52.59375 
z
" id="DejaVuSans-99"/>
       <path d="M 54.890625 33.015625 
L 54.890625 0 
L 45.90625 0 
L 45.90625 32.71875 
Q 45.90625 40.484375 42.875 44.328125 
Q 39.84375 48.1875 33.796875 48.1875 
Q 26.515625 48.1875 22.3125 43.546875 
Q 18.109375 38.921875 18.109375 30.90625 
L 18.109375 0 
L 9.078125 0 
L 9.078125 75.984375 
L 18.109375 75.984375 
L 18.109375 46.1875 
Q 21.34375 51.125 25.703125 53.5625 
Q 30.078125 56 35.796875 56 
Q 45.21875 56 50.046875 50.171875 
Q 54.890625 44.34375 54.890625 33.015625 
z
" id="DejaVuSans-104"/>
       <path d="M 9.8125 72.90625 
L 19.671875 72.90625 
L 19.671875 8.296875 
L 55.171875 8.296875 
L 55.171875 0 
L 9.8125 0 
z
" id="DejaVuSans-76"/>
       <path d="M 9.421875 54.6875 
L 18.40625 54.6875 
L 18.40625 0 
L 9.421875 0 
z
M 9.421875 75.984375 
L 18.40625 75.984375 
L 18.40625 64.59375 
L 9.421875 64.59375 
z
" id="DejaVuSans-105"/>
       <path d="M 54.890625 33.015625 
L 54.890625 0 
L 45.90625 0 
L 45.90625 32.71875 
Q 45.90625 40.484375 42.875 44.328125 
Q 39.84375 48.1875 33.796875 48.1875 
Q 26.515625 48.1875 22.3125 43.546875 
Q 18.109375 38.921875 18.109375 30.90625 
L 18.109375 0 
L 9.078125 0 
L 9.078125 54.6875 
L 18.109375 54.6875 
L 18.109375 46.1875 
Q 21.34375 51.125 25.703125 53.5625 
Q 30.078125 56 35.796875 56 
Q 45.21875 56 50.046875 50.171875 
Q 54.890625 44.34375 54.890625 33.015625 
z
" id="DejaVuSans-110"/>
       <path d="M 54.890625 54.6875 
L 35.109375 28.078125 
L 55.90625 0 
L 45.3125 0 
L 29.390625 21.484375 
L 13.484375 0 
L 2.875 0 
L 24.125 28.609375 
L 4.6875 54.6875 
L 15.28125 54.6875 
L 29.78125 35.203125 
L 44.28125 54.6875 
z
" id="DejaVuSans-120"/>
       <path d="M 9.078125 75.984375 
L 18.109375 75.984375 
L 18.109375 31.109375 
L 44.921875 54.6875 
L 56.390625 54.6875 
L 27.390625 29.109375 
L 57.625 0 
L 45.90625 0 
L 18.109375 26.703125 
L 18.109375 0 
L 9.078125 0 
z
" id="DejaVuSans-107"/>
       <path d="M 9.421875 75.984375 
L 18.40625 75.984375 
L 18.40625 0 
L 9.421875 0 
z
" id="DejaVuSans-108"/>
       <path d="M 2.984375 54.6875 
L 12.5 54.6875 
L 29.59375 8.796875 
L 46.6875 54.6875 
L 56.203125 54.6875 
L 35.6875 0 
L 23.484375 0 
z
" id="DejaVuSans-118"/>
      </defs>
      <use xlink:href="#DejaVuSans-78"/>
      <use x="74.804688" xlink:href="#DejaVuSans-117"/>
      <use x="138.183594" xlink:href="#DejaVuSans-109"/>
      <use x="235.595703" xlink:href="#DejaVuSans-98"/>
      <use x="299.072266" xlink:href="#DejaVuSans-101"/>
      <use x="360.595703" xlink:href="#DejaVuSans-114"/>
      <use x="401.708984" xlink:href="#DejaVuSans-32"/>
      <use x="433.496094" xlink:href="#DejaVuSans-111"/>
      <use x="494.677734" xlink:href="#DejaVuSans-102"/>
      <use x="529.882812" xlink:href="#DejaVuSans-32"/>
      <use x="561.669922" xlink:href="#DejaVuSans-67"/>
      <use x="631.494141" xlink:href="#DejaVuSans-80"/>
      <use x="691.796875" xlink:href="#DejaVuSans-85"/>
      <use x="764.990234" xlink:href="#DejaVuSans-115"/>
      <use x="817.089844" xlink:href="#DejaVuSans-44"/>
      <use x="848.876953" xlink:href="#DejaVuSans-32"/>
      <use x="880.664062" xlink:href="#DejaVuSans-112"/>
      <use x="944.140625" xlink:href="#DejaVuSans-101"/>
      <use x="1005.664062" xlink:href="#DejaVuSans-114"/>
      <use x="1046.777344" xlink:href="#DejaVuSans-32"/>
      <use x="1078.564453" xlink:href="#DejaVuSans-101"/>
      <use x="1140.087891" xlink:href="#DejaVuSans-97"/>
      <use x="1201.367188" xlink:href="#DejaVuSans-99"/>
      <use x="1256.347656" xlink:href="#DejaVuSans-104"/>
      <use x="1319.726562" xlink:href="#DejaVuSans-32"/>
      <use x="1351.513672" xlink:href="#DejaVuSans-76"/>
      <use x="1407.226562" xlink:href="#DejaVuSans-105"/>
      <use x="1435.009766" xlink:href="#DejaVuSans-110"/>
      <use x="1498.388672" xlink:href="#DejaVuSans-117"/>
      <use x="1561.767578" xlink:href="#DejaVuSans-120"/>
      <use x="1620.947266" xlink:href="#DejaVuSans-32"/>
      <use x="1652.734375" xlink:href="#DejaVuSans-107"/>
      <use x="1707.019531" xlink:href="#DejaVuSans-101"/>
      <use x="1768.542969" xlink:href="#DejaVuSans-114"/>
      <use x="1807.90625" xlink:href="#DejaVuSans-110"/>
      <use x="1871.285156" xlink:href="#DejaVuSans-101"/>
      <use x="1932.808594" xlink:href="#DejaVuSans-108"/>
      <use x="1960.591797" xlink:href="#DejaVuSans-32"/>
      <use x="1992.378906" xlink:href="#DejaVuSans-118"/>
      <use x="2051.558594" xlink:href="#DejaVuSans-101"/>
      <use x="2113.082031" xlink:href="#DejaVuSans-114"/>
      <use x="2154.195312" xlink:href="#DejaVuSans-115"/>
      <use x="2206.294922" xlink:href="#DejaVuSans-105"/>
      <use x="2234.078125" xlink:href="#DejaVuSans-111"/>
      <use x="2295.259766" xlink:href="#DejaVuSans-110"/>
     </g>
    </g>
   </g>
   <g id="matplotlib.axis_2">
    <g id="ytick_1">
     <g id="line2d_21">
      <defs>
       <path d="M 0 0 
L -3.5 0 
" id="m7cab13a36b" style="stroke:#000000;stroke-width:0.8;"/>
      </defs>
      <g>
       <use style="stroke:#000000;stroke-width:0.8;" x="124.55" xlink:href="#m7cab13a36b" y="194.571089"/>
      </g>
     </g>
     <g id="text_22">
      <!-- X86KvmCPU -->
      <g transform="translate(43.001875 199.130152)scale(0.12 -0.12)">
       <defs>
        <path d="M 6.296875 72.90625 
L 16.890625 72.90625 
L 35.015625 45.796875 
L 53.21875 72.90625 
L 63.8125 72.90625 
L 40.375 37.890625 
L 65.375 0 
L 54.78125 0 
L 34.28125 31 
L 13.625 0 
L 2.984375 0 
L 29 38.921875 
z
" id="DejaVuSans-88"/>
        <path d="M 33.015625 40.375 
Q 26.375 40.375 22.484375 35.828125 
Q 18.609375 31.296875 18.609375 23.390625 
Q 18.609375 15.53125 22.484375 10.953125 
Q 26.375 6.390625 33.015625 6.390625 
Q 39.65625 6.390625 43.53125 10.953125 
Q 47.40625 15.53125 47.40625 23.390625 
Q 47.40625 31.296875 43.53125 35.828125 
Q 39.65625 40.375 33.015625 40.375 
z
M 52.59375 71.296875 
L 52.59375 62.3125 
Q 48.875 64.0625 45.09375 64.984375 
Q 41.3125 65.921875 37.59375 65.921875 
Q 27.828125 65.921875 22.671875 59.328125 
Q 17.53125 52.734375 16.796875 39.40625 
Q 19.671875 43.65625 24.015625 45.921875 
Q 28.375 48.1875 33.59375 48.1875 
Q 44.578125 48.1875 50.953125 41.515625 
Q 57.328125 34.859375 57.328125 23.390625 
Q 57.328125 12.15625 50.6875 5.359375 
Q 44.046875 -1.421875 33.015625 -1.421875 
Q 20.359375 -1.421875 13.671875 8.265625 
Q 6.984375 17.96875 6.984375 36.375 
Q 6.984375 53.65625 15.1875 63.9375 
Q 23.390625 74.21875 37.203125 74.21875 
Q 40.921875 74.21875 44.703125 73.484375 
Q 48.484375 72.75 52.59375 71.296875 
z
" id="DejaVuSans-54"/>
        <path d="M 9.8125 72.90625 
L 19.671875 72.90625 
L 19.671875 42.09375 
L 52.390625 72.90625 
L 65.09375 72.90625 
L 28.90625 38.921875 
L 67.671875 0 
L 54.6875 0 
L 19.671875 35.109375 
L 19.671875 0 
L 9.8125 0 
z
" id="DejaVuSans-75"/>
       </defs>
       <use xlink:href="#DejaVuSans-88"/>
       <use x="68.505859" xlink:href="#DejaVuSans-56"/>
       <use x="132.128906" xlink:href="#DejaVuSans-54"/>
       <use x="195.751953" xlink:href="#DejaVuSans-75"/>
       <use x="261.328125" xlink:href="#DejaVuSans-118"/>
       <use x="320.507812" xlink:href="#DejaVuSans-109"/>
       <use x="417.919922" xlink:href="#DejaVuSans-67"/>
       <use x="487.744141" xlink:href="#DejaVuSans-80"/>
       <use x="548.046875" xlink:href="#DejaVuSans-85"/>
      </g>
     </g>
    </g>
    <g id="ytick_2">
     <g id="line2d_22">
      <g>
       <use style="stroke:#000000;stroke-width:0.8;" x="124.55" xlink:href="#m7cab13a36b" y="167.275908"/>
      </g>
     </g>
     <g id="text_23">
      <!-- AtomicSimpleCPU -->
      <g transform="translate(10.51 171.83497)scale(0.12 -0.12)">
       <defs>
        <path d="M 34.1875 63.1875 
L 20.796875 26.90625 
L 47.609375 26.90625 
z
M 28.609375 72.90625 
L 39.796875 72.90625 
L 67.578125 0 
L 57.328125 0 
L 50.6875 18.703125 
L 17.828125 18.703125 
L 11.1875 0 
L 0.78125 0 
z
" id="DejaVuSans-65"/>
        <path d="M 18.3125 70.21875 
L 18.3125 54.6875 
L 36.8125 54.6875 
L 36.8125 47.703125 
L 18.3125 47.703125 
L 18.3125 18.015625 
Q 18.3125 11.328125 20.140625 9.421875 
Q 21.96875 7.515625 27.59375 7.515625 
L 36.8125 7.515625 
L 36.8125 0 
L 27.59375 0 
Q 17.1875 0 13.234375 3.875 
Q 9.28125 7.765625 9.28125 18.015625 
L 9.28125 47.703125 
L 2.6875 47.703125 
L 2.6875 54.6875 
L 9.28125 54.6875 
L 9.28125 70.21875 
z
" id="DejaVuSans-116"/>
        <path d="M 53.515625 70.515625 
L 53.515625 60.890625 
Q 47.90625 63.578125 42.921875 64.890625 
Q 37.9375 66.21875 33.296875 66.21875 
Q 25.25 66.21875 20.875 63.09375 
Q 16.5 59.96875 16.5 54.203125 
Q 16.5 49.359375 19.40625 46.890625 
Q 22.3125 44.4375 30.421875 42.921875 
L 36.375 41.703125 
Q 47.40625 39.59375 52.65625 34.296875 
Q 57.90625 29 57.90625 20.125 
Q 57.90625 9.515625 50.796875 4.046875 
Q 43.703125 -1.421875 29.984375 -1.421875 
Q 24.8125 -1.421875 18.96875 -0.25 
Q 13.140625 0.921875 6.890625 3.21875 
L 6.890625 13.375 
Q 12.890625 10.015625 18.65625 8.296875 
Q 24.421875 6.59375 29.984375 6.59375 
Q 38.421875 6.59375 43.015625 9.90625 
Q 47.609375 13.234375 47.609375 19.390625 
Q 47.609375 24.75 44.3125 27.78125 
Q 41.015625 30.8125 33.5 32.328125 
L 27.484375 33.5 
Q 16.453125 35.6875 11.515625 40.375 
Q 6.59375 45.0625 6.59375 53.421875 
Q 6.59375 63.09375 13.40625 68.65625 
Q 20.21875 74.21875 32.171875 74.21875 
Q 37.3125 74.21875 42.625 73.28125 
Q 47.953125 72.359375 53.515625 70.515625 
z
" id="DejaVuSans-83"/>
       </defs>
       <use xlink:href="#DejaVuSans-65"/>
       <use x="66.658203" xlink:href="#DejaVuSans-116"/>
       <use x="105.867188" xlink:href="#DejaVuSans-111"/>
       <use x="167.048828" xlink:href="#DejaVuSans-109"/>
       <use x="264.460938" xlink:href="#DejaVuSans-105"/>
       <use x="292.244141" xlink:href="#DejaVuSans-99"/>
       <use x="347.224609" xlink:href="#DejaVuSans-83"/>
       <use x="410.701172" xlink:href="#DejaVuSans-105"/>
       <use x="438.484375" xlink:href="#DejaVuSans-109"/>
       <use x="535.896484" xlink:href="#DejaVuSans-112"/>
       <use x="599.373047" xlink:href="#DejaVuSans-108"/>
       <use x="627.15625" xlink:href="#DejaVuSans-101"/>
       <use x="688.679688" xlink:href="#DejaVuSans-67"/>
       <use x="758.503906" xlink:href="#DejaVuSans-80"/>
       <use x="818.806641" xlink:href="#DejaVuSans-85"/>
      </g>
     </g>
    </g>
    <g id="ytick_3">
     <g id="line2d_23">
      <g>
       <use style="stroke:#000000;stroke-width:0.8;" x="124.55" xlink:href="#m7cab13a36b" y="139.980726"/>
      </g>
     </g>
     <g id="text_24">
      <!-- TimingSimpleCPU -->
      <g transform="translate(11.6425 144.539789)scale(0.12 -0.12)">
       <defs>
        <path d="M -0.296875 72.90625 
L 61.375 72.90625 
L 61.375 64.59375 
L 35.5 64.59375 
L 35.5 0 
L 25.59375 0 
L 25.59375 64.59375 
L -0.296875 64.59375 
z
" id="DejaVuSans-84"/>
        <path d="M 45.40625 27.984375 
Q 45.40625 37.75 41.375 43.109375 
Q 37.359375 48.484375 30.078125 48.484375 
Q 22.859375 48.484375 18.828125 43.109375 
Q 14.796875 37.75 14.796875 27.984375 
Q 14.796875 18.265625 18.828125 12.890625 
Q 22.859375 7.515625 30.078125 7.515625 
Q 37.359375 7.515625 41.375 12.890625 
Q 45.40625 18.265625 45.40625 27.984375 
z
M 54.390625 6.78125 
Q 54.390625 -7.171875 48.1875 -13.984375 
Q 42 -20.796875 29.203125 -20.796875 
Q 24.46875 -20.796875 20.265625 -20.09375 
Q 16.0625 -19.390625 12.109375 -17.921875 
L 12.109375 -9.1875 
Q 16.0625 -11.328125 19.921875 -12.34375 
Q 23.78125 -13.375 27.78125 -13.375 
Q 36.625 -13.375 41.015625 -8.765625 
Q 45.40625 -4.15625 45.40625 5.171875 
L 45.40625 9.625 
Q 42.625 4.78125 38.28125 2.390625 
Q 33.9375 0 27.875 0 
Q 17.828125 0 11.671875 7.65625 
Q 5.515625 15.328125 5.515625 27.984375 
Q 5.515625 40.671875 11.671875 48.328125 
Q 17.828125 56 27.875 56 
Q 33.9375 56 38.28125 53.609375 
Q 42.625 51.21875 45.40625 46.390625 
L 45.40625 54.6875 
L 54.390625 54.6875 
z
" id="DejaVuSans-103"/>
       </defs>
       <use xlink:href="#DejaVuSans-84"/>
       <use x="57.958984" xlink:href="#DejaVuSans-105"/>
       <use x="85.742188" xlink:href="#DejaVuSans-109"/>
       <use x="183.154297" xlink:href="#DejaVuSans-105"/>
       <use x="210.9375" xlink:href="#DejaVuSans-110"/>
       <use x="274.316406" xlink:href="#DejaVuSans-103"/>
       <use x="337.792969" xlink:href="#DejaVuSans-83"/>
       <use x="401.269531" xlink:href="#DejaVuSans-105"/>
       <use x="429.052734" xlink:href="#DejaVuSans-109"/>
       <use x="526.464844" xlink:href="#DejaVuSans-112"/>
       <use x="589.941406" xlink:href="#DejaVuSans-108"/>
       <use x="617.724609" xlink:href="#DejaVuSans-101"/>
       <use x="679.248047" xlink:href="#DejaVuSans-67"/>
       <use x="749.072266" xlink:href="#DejaVuSans-80"/>
       <use x="809.375" xlink:href="#DejaVuSans-85"/>
      </g>
     </g>
    </g>
    <g id="ytick_4">
     <g id="line2d_24">
      <g>
       <use style="stroke:#000000;stroke-width:0.8;" x="124.55" xlink:href="#m7cab13a36b" y="112.685545"/>
      </g>
     </g>
     <g id="text_25">
      <!-- DerivO3CPU -->
      <g transform="translate(44.078125 117.244607)scale(0.12 -0.12)">
       <defs>
        <path d="M 19.671875 64.796875 
L 19.671875 8.109375 
L 31.59375 8.109375 
Q 46.6875 8.109375 53.6875 14.9375 
Q 60.6875 21.78125 60.6875 36.53125 
Q 60.6875 51.171875 53.6875 57.984375 
Q 46.6875 64.796875 31.59375 64.796875 
z
M 9.8125 72.90625 
L 30.078125 72.90625 
Q 51.265625 72.90625 61.171875 64.09375 
Q 71.09375 55.28125 71.09375 36.53125 
Q 71.09375 17.671875 61.125 8.828125 
Q 51.171875 0 30.078125 0 
L 9.8125 0 
z
" id="DejaVuSans-68"/>
        <path d="M 39.40625 66.21875 
Q 28.65625 66.21875 22.328125 58.203125 
Q 16.015625 50.203125 16.015625 36.375 
Q 16.015625 22.609375 22.328125 14.59375 
Q 28.65625 6.59375 39.40625 6.59375 
Q 50.140625 6.59375 56.421875 14.59375 
Q 62.703125 22.609375 62.703125 36.375 
Q 62.703125 50.203125 56.421875 58.203125 
Q 50.140625 66.21875 39.40625 66.21875 
z
M 39.40625 74.21875 
Q 54.734375 74.21875 63.90625 63.9375 
Q 73.09375 53.65625 73.09375 36.375 
Q 73.09375 19.140625 63.90625 8.859375 
Q 54.734375 -1.421875 39.40625 -1.421875 
Q 24.03125 -1.421875 14.8125 8.828125 
Q 5.609375 19.09375 5.609375 36.375 
Q 5.609375 53.65625 14.8125 63.9375 
Q 24.03125 74.21875 39.40625 74.21875 
z
" id="DejaVuSans-79"/>
        <path d="M 40.578125 39.3125 
Q 47.65625 37.796875 51.625 33 
Q 55.609375 28.21875 55.609375 21.1875 
Q 55.609375 10.40625 48.1875 4.484375 
Q 40.765625 -1.421875 27.09375 -1.421875 
Q 22.515625 -1.421875 17.65625 -0.515625 
Q 12.796875 0.390625 7.625 2.203125 
L 7.625 11.71875 
Q 11.71875 9.328125 16.59375 8.109375 
Q 21.484375 6.890625 26.8125 6.890625 
Q 36.078125 6.890625 40.9375 10.546875 
Q 45.796875 14.203125 45.796875 21.1875 
Q 45.796875 27.640625 41.28125 31.265625 
Q 36.765625 34.90625 28.71875 34.90625 
L 20.21875 34.90625 
L 20.21875 43.015625 
L 29.109375 43.015625 
Q 36.375 43.015625 40.234375 45.921875 
Q 44.09375 48.828125 44.09375 54.296875 
Q 44.09375 59.90625 40.109375 62.90625 
Q 36.140625 65.921875 28.71875 65.921875 
Q 24.65625 65.921875 20.015625 65.03125 
Q 15.375 64.15625 9.8125 62.3125 
L 9.8125 71.09375 
Q 15.4375 72.65625 20.34375 73.4375 
Q 25.25 74.21875 29.59375 74.21875 
Q 40.828125 74.21875 47.359375 69.109375 
Q 53.90625 64.015625 53.90625 55.328125 
Q 53.90625 49.265625 50.4375 45.09375 
Q 46.96875 40.921875 40.578125 39.3125 
z
" id="DejaVuSans-51"/>
       </defs>
       <use xlink:href="#DejaVuSans-68"/>
       <use x="77.001953" xlink:href="#DejaVuSans-101"/>
       <use x="138.525391" xlink:href="#DejaVuSans-114"/>
       <use x="179.638672" xlink:href="#DejaVuSans-105"/>
       <use x="207.421875" xlink:href="#DejaVuSans-118"/>
       <use x="266.601562" xlink:href="#DejaVuSans-79"/>
       <use x="345.3125" xlink:href="#DejaVuSans-51"/>
       <use x="408.935547" xlink:href="#DejaVuSans-67"/>
       <use x="478.759766" xlink:href="#DejaVuSans-80"/>
       <use x="539.0625" xlink:href="#DejaVuSans-85"/>
      </g>
     </g>
    </g>
   </g>
   <g id="patch_115">
    <path d="M 124.55 208.21868 
L 124.55 30.8 
" style="fill:none;stroke:#000000;stroke-linecap:square;stroke-linejoin:miter;stroke-width:0.8;"/>
   </g>
   <g id="patch_116">
    <path d="M 925.2 208.21868 
L 925.2 30.8 
" style="fill:none;stroke:#000000;stroke-linecap:square;stroke-linejoin:miter;stroke-width:0.8;"/>
   </g>
   <g id="patch_117">
    <path d="M 124.55 208.21868 
L 925.2 208.21868 
" style="fill:none;stroke:#000000;stroke-linecap:square;stroke-linejoin:miter;stroke-width:0.8;"/>
   </g>
   <g id="patch_118">
    <path d="M 124.55 30.8 
L 925.2 30.8 
" style="fill:none;stroke:#000000;stroke-linecap:square;stroke-linejoin:miter;stroke-width:0.8;"/>
   </g>
   <g id="text_26">
    <!-- vmlinux-4.4.186 -->
    <g transform="translate(143.425547 94.988462)scale(0.15 -0.15)">
     <defs>
      <path d="M 4.890625 31.390625 
L 31.203125 31.390625 
L 31.203125 23.390625 
L 4.890625 23.390625 
z
" id="DejaVuSans-45"/>
      <path d="M 10.6875 12.40625 
L 21 12.40625 
L 21 0 
L 10.6875 0 
z
" id="DejaVuSans-46"/>
     </defs>
     <use xlink:href="#DejaVuSans-118"/>
     <use x="59.179688" xlink:href="#DejaVuSans-109"/>
     <use x="156.591797" xlink:href="#DejaVuSans-108"/>
     <use x="184.375" xlink:href="#DejaVuSans-105"/>
     <use x="212.158203" xlink:href="#DejaVuSans-110"/>
     <use x="275.537109" xlink:href="#DejaVuSans-117"/>
     <use x="338.916016" xlink:href="#DejaVuSans-120"/>
     <use x="398.095703" xlink:href="#DejaVuSans-45"/>
     <use x="434.179688" xlink:href="#DejaVuSans-52"/>
     <use x="497.802734" xlink:href="#DejaVuSans-46"/>
     <use x="529.589844" xlink:href="#DejaVuSans-52"/>
     <use x="593.212891" xlink:href="#DejaVuSans-46"/>
     <use x="625" xlink:href="#DejaVuSans-49"/>
     <use x="688.623047" xlink:href="#DejaVuSans-56"/>
     <use x="752.246094" xlink:href="#DejaVuSans-54"/>
    </g>
   </g>
   <g id="text_27">
    <!-- vmlinux-4.9.186 -->
    <g transform="translate(303.555547 94.988462)scale(0.15 -0.15)">
     <defs>
      <path d="M 10.984375 1.515625 
L 10.984375 10.5 
Q 14.703125 8.734375 18.5 7.8125 
Q 22.3125 6.890625 25.984375 6.890625 
Q 35.75 6.890625 40.890625 13.453125 
Q 46.046875 20.015625 46.78125 33.40625 
Q 43.953125 29.203125 39.59375 26.953125 
Q 35.25 24.703125 29.984375 24.703125 
Q 19.046875 24.703125 12.671875 31.3125 
Q 6.296875 37.9375 6.296875 49.421875 
Q 6.296875 60.640625 12.9375 67.421875 
Q 19.578125 74.21875 30.609375 74.21875 
Q 43.265625 74.21875 49.921875 64.515625 
Q 56.59375 54.828125 56.59375 36.375 
Q 56.59375 19.140625 48.40625 8.859375 
Q 40.234375 -1.421875 26.421875 -1.421875 
Q 22.703125 -1.421875 18.890625 -0.6875 
Q 15.09375 0.046875 10.984375 1.515625 
z
M 30.609375 32.421875 
Q 37.25 32.421875 41.125 36.953125 
Q 45.015625 41.5 45.015625 49.421875 
Q 45.015625 57.28125 41.125 61.84375 
Q 37.25 66.40625 30.609375 66.40625 
Q 23.96875 66.40625 20.09375 61.84375 
Q 16.21875 57.28125 16.21875 49.421875 
Q 16.21875 41.5 20.09375 36.953125 
Q 23.96875 32.421875 30.609375 32.421875 
z
" id="DejaVuSans-57"/>
     </defs>
     <use xlink:href="#DejaVuSans-118"/>
     <use x="59.179688" xlink:href="#DejaVuSans-109"/>
     <use x="156.591797" xlink:href="#DejaVuSans-108"/>
     <use x="184.375" xlink:href="#DejaVuSans-105"/>
     <use x="212.158203" xlink:href="#DejaVuSans-110"/>
     <use x="275.537109" xlink:href="#DejaVuSans-117"/>
     <use x="338.916016" xlink:href="#DejaVuSans-120"/>
     <use x="398.095703" xlink:href="#DejaVuSans-45"/>
     <use x="434.179688" xlink:href="#DejaVuSans-52"/>
     <use x="497.802734" xlink:href="#DejaVuSans-46"/>
     <use x="529.589844" xlink:href="#DejaVuSans-57"/>
     <use x="593.212891" xlink:href="#DejaVuSans-46"/>
     <use x="625" xlink:href="#DejaVuSans-49"/>
     <use x="688.623047" xlink:href="#DejaVuSans-56"/>
     <use x="752.246094" xlink:href="#DejaVuSans-54"/>
    </g>
   </g>
   <g id="text_28">
    <!-- vmlinux-4.14.134 -->
    <g transform="translate(458.913672 94.988462)scale(0.15 -0.15)">
     <use xlink:href="#DejaVuSans-118"/>
     <use x="59.179688" xlink:href="#DejaVuSans-109"/>
     <use x="156.591797" xlink:href="#DejaVuSans-108"/>
     <use x="184.375" xlink:href="#DejaVuSans-105"/>
     <use x="212.158203" xlink:href="#DejaVuSans-110"/>
     <use x="275.537109" xlink:href="#DejaVuSans-117"/>
     <use x="338.916016" xlink:href="#DejaVuSans-120"/>
     <use x="398.095703" xlink:href="#DejaVuSans-45"/>
     <use x="434.179688" xlink:href="#DejaVuSans-52"/>
     <use x="497.802734" xlink:href="#DejaVuSans-46"/>
     <use x="529.589844" xlink:href="#DejaVuSans-49"/>
     <use x="593.212891" xlink:href="#DejaVuSans-52"/>
     <use x="656.835938" xlink:href="#DejaVuSans-46"/>
     <use x="688.623047" xlink:href="#DejaVuSans-49"/>
     <use x="752.246094" xlink:href="#DejaVuSans-51"/>
     <use x="815.869141" xlink:href="#DejaVuSans-52"/>
    </g>
   </g>
   <g id="text_29">
    <!-- vmlinux-4.19.83 -->
    <g transform="translate(623.815547 94.988462)scale(0.15 -0.15)">
     <use xlink:href="#DejaVuSans-118"/>
     <use x="59.179688" xlink:href="#DejaVuSans-109"/>
     <use x="156.591797" xlink:href="#DejaVuSans-108"/>
     <use x="184.375" xlink:href="#DejaVuSans-105"/>
     <use x="212.158203" xlink:href="#DejaVuSans-110"/>
     <use x="275.537109" xlink:href="#DejaVuSans-117"/>
     <use x="338.916016" xlink:href="#DejaVuSans-120"/>
     <use x="398.095703" xlink:href="#DejaVuSans-45"/>
     <use x="434.179688" xlink:href="#DejaVuSans-52"/>
     <use x="497.802734" xlink:href="#DejaVuSans-46"/>
     <use x="529.589844" xlink:href="#DejaVuSans-49"/>
     <use x="593.212891" xlink:href="#DejaVuSans-57"/>
     <use x="656.835938" xlink:href="#DejaVuSans-46"/>
     <use x="688.623047" xlink:href="#DejaVuSans-56"/>
     <use x="752.246094" xlink:href="#DejaVuSans-51"/>
    </g>
   </g>
   <g id="text_30">
    <!-- vmlinux-5.4.49 -->
    <g transform="translate(788.717422 94.988462)scale(0.15 -0.15)">
     <defs>
      <path d="M 10.796875 72.90625 
L 49.515625 72.90625 
L 49.515625 64.59375 
L 19.828125 64.59375 
L 19.828125 46.734375 
Q 21.96875 47.46875 24.109375 47.828125 
Q 26.265625 48.1875 28.421875 48.1875 
Q 40.625 48.1875 47.75 41.5 
Q 54.890625 34.8125 54.890625 23.390625 
Q 54.890625 11.625 47.5625 5.09375 
Q 40.234375 -1.421875 26.90625 -1.421875 
Q 22.3125 -1.421875 17.546875 -0.640625 
Q 12.796875 0.140625 7.71875 1.703125 
L 7.71875 11.625 
Q 12.109375 9.234375 16.796875 8.0625 
Q 21.484375 6.890625 26.703125 6.890625 
Q 35.15625 6.890625 40.078125 11.328125 
Q 45.015625 15.765625 45.015625 23.390625 
Q 45.015625 31 40.078125 35.4375 
Q 35.15625 39.890625 26.703125 39.890625 
Q 22.75 39.890625 18.8125 39.015625 
Q 14.890625 38.140625 10.796875 36.28125 
z
" id="DejaVuSans-53"/>
     </defs>
     <use xlink:href="#DejaVuSans-118"/>
     <use x="59.179688" xlink:href="#DejaVuSans-109"/>
     <use x="156.591797" xlink:href="#DejaVuSans-108"/>
     <use x="184.375" xlink:href="#DejaVuSans-105"/>
     <use x="212.158203" xlink:href="#DejaVuSans-110"/>
     <use x="275.537109" xlink:href="#DejaVuSans-117"/>
     <use x="338.916016" xlink:href="#DejaVuSans-120"/>
     <use x="398.095703" xlink:href="#DejaVuSans-45"/>
     <use x="434.179688" xlink:href="#DejaVuSans-53"/>
     <use x="497.802734" xlink:href="#DejaVuSans-46"/>
     <use x="529.589844" xlink:href="#DejaVuSans-52"/>
     <use x="593.212891" xlink:href="#DejaVuSans-46"/>
     <use x="625" xlink:href="#DejaVuSans-52"/>
     <use x="688.623047" xlink:href="#DejaVuSans-57"/>
    </g>
   </g>
   <g id="text_31">
    <!-- Memory: MESI_Two_Level, Boot Type: systemd -->
    <g transform="translate(317.462969 24.8)scale(0.18 -0.18)">
     <defs>
      <path d="M 9.8125 72.90625 
L 24.515625 72.90625 
L 43.109375 23.296875 
L 61.8125 72.90625 
L 76.515625 72.90625 
L 76.515625 0 
L 66.890625 0 
L 66.890625 64.015625 
L 48.09375 14.015625 
L 38.1875 14.015625 
L 19.390625 64.015625 
L 19.390625 0 
L 9.8125 0 
z
" id="DejaVuSans-77"/>
      <path d="M 32.171875 -5.078125 
Q 28.375 -14.84375 24.75 -17.8125 
Q 21.140625 -20.796875 15.09375 -20.796875 
L 7.90625 -20.796875 
L 7.90625 -13.28125 
L 13.1875 -13.28125 
Q 16.890625 -13.28125 18.9375 -11.515625 
Q 21 -9.765625 23.484375 -3.21875 
L 25.09375 0.875 
L 2.984375 54.6875 
L 12.5 54.6875 
L 29.59375 11.921875 
L 46.6875 54.6875 
L 56.203125 54.6875 
z
" id="DejaVuSans-121"/>
      <path d="M 11.71875 12.40625 
L 22.015625 12.40625 
L 22.015625 0 
L 11.71875 0 
z
M 11.71875 51.703125 
L 22.015625 51.703125 
L 22.015625 39.3125 
L 11.71875 39.3125 
z
" id="DejaVuSans-58"/>
      <path d="M 9.8125 72.90625 
L 55.90625 72.90625 
L 55.90625 64.59375 
L 19.671875 64.59375 
L 19.671875 43.015625 
L 54.390625 43.015625 
L 54.390625 34.71875 
L 19.671875 34.71875 
L 19.671875 8.296875 
L 56.78125 8.296875 
L 56.78125 0 
L 9.8125 0 
z
" id="DejaVuSans-69"/>
      <path d="M 9.8125 72.90625 
L 19.671875 72.90625 
L 19.671875 0 
L 9.8125 0 
z
" id="DejaVuSans-73"/>
      <path d="M 50.984375 -16.609375 
L 50.984375 -23.578125 
L -0.984375 -23.578125 
L -0.984375 -16.609375 
z
" id="DejaVuSans-95"/>
      <path d="M 4.203125 54.6875 
L 13.1875 54.6875 
L 24.421875 12.015625 
L 35.59375 54.6875 
L 46.1875 54.6875 
L 57.421875 12.015625 
L 68.609375 54.6875 
L 77.59375 54.6875 
L 63.28125 0 
L 52.6875 0 
L 40.921875 44.828125 
L 29.109375 0 
L 18.5 0 
z
" id="DejaVuSans-119"/>
      <path d="M 19.671875 34.8125 
L 19.671875 8.109375 
L 35.5 8.109375 
Q 43.453125 8.109375 47.28125 11.40625 
Q 51.125 14.703125 51.125 21.484375 
Q 51.125 28.328125 47.28125 31.5625 
Q 43.453125 34.8125 35.5 34.8125 
z
M 19.671875 64.796875 
L 19.671875 42.828125 
L 34.28125 42.828125 
Q 41.5 42.828125 45.03125 45.53125 
Q 48.578125 48.25 48.578125 53.8125 
Q 48.578125 59.328125 45.03125 62.0625 
Q 41.5 64.796875 34.28125 64.796875 
z
M 9.8125 72.90625 
L 35.015625 72.90625 
Q 46.296875 72.90625 52.390625 68.21875 
Q 58.5 63.53125 58.5 54.890625 
Q 58.5 48.1875 55.375 44.234375 
Q 52.25 40.28125 46.1875 39.3125 
Q 53.46875 37.75 57.5 32.78125 
Q 61.53125 27.828125 61.53125 20.40625 
Q 61.53125 10.640625 54.890625 5.3125 
Q 48.25 0 35.984375 0 
L 9.8125 0 
z
" id="DejaVuSans-66"/>
      <path d="M 45.40625 46.390625 
L 45.40625 75.984375 
L 54.390625 75.984375 
L 54.390625 0 
L 45.40625 0 
L 45.40625 8.203125 
Q 42.578125 3.328125 38.25 0.953125 
Q 33.9375 -1.421875 27.875 -1.421875 
Q 17.96875 -1.421875 11.734375 6.484375 
Q 5.515625 14.40625 5.515625 27.296875 
Q 5.515625 40.1875 11.734375 48.09375 
Q 17.96875 56 27.875 56 
Q 33.9375 56 38.25 53.625 
Q 42.578125 51.265625 45.40625 46.390625 
z
M 14.796875 27.296875 
Q 14.796875 17.390625 18.875 11.75 
Q 22.953125 6.109375 30.078125 6.109375 
Q 37.203125 6.109375 41.296875 11.75 
Q 45.40625 17.390625 45.40625 27.296875 
Q 45.40625 37.203125 41.296875 42.84375 
Q 37.203125 48.484375 30.078125 48.484375 
Q 22.953125 48.484375 18.875 42.84375 
Q 14.796875 37.203125 14.796875 27.296875 
z
" id="DejaVuSans-100"/>
     </defs>
     <use xlink:href="#DejaVuSans-77"/>
     <use x="86.279297" xlink:href="#DejaVuSans-101"/>
     <use x="147.802734" xlink:href="#DejaVuSans-109"/>
     <use x="245.214844" xlink:href="#DejaVuSans-111"/>
     <use x="306.396484" xlink:href="#DejaVuSans-114"/>
     <use x="347.509766" xlink:href="#DejaVuSans-121"/>
     <use x="399.439453" xlink:href="#DejaVuSans-58"/>
     <use x="433.130859" xlink:href="#DejaVuSans-32"/>
     <use x="464.917969" xlink:href="#DejaVuSans-77"/>
     <use x="551.197266" xlink:href="#DejaVuSans-69"/>
     <use x="614.380859" xlink:href="#DejaVuSans-83"/>
     <use x="677.857422" xlink:href="#DejaVuSans-73"/>
     <use x="707.349609" xlink:href="#DejaVuSans-95"/>
     <use x="757.349609" xlink:href="#DejaVuSans-84"/>
     <use x="801.933594" xlink:href="#DejaVuSans-119"/>
     <use x="883.720703" xlink:href="#DejaVuSans-111"/>
     <use x="944.902344" xlink:href="#DejaVuSans-95"/>
     <use x="994.902344" xlink:href="#DejaVuSans-76"/>
     <use x="1048.865234" xlink:href="#DejaVuSans-101"/>
     <use x="1110.388672" xlink:href="#DejaVuSans-118"/>
     <use x="1169.568359" xlink:href="#DejaVuSans-101"/>
     <use x="1231.091797" xlink:href="#DejaVuSans-108"/>
     <use x="1258.875" xlink:href="#DejaVuSans-44"/>
     <use x="1290.662109" xlink:href="#DejaVuSans-32"/>
     <use x="1322.449219" xlink:href="#DejaVuSans-66"/>
     <use x="1391.052734" xlink:href="#DejaVuSans-111"/>
     <use x="1452.234375" xlink:href="#DejaVuSans-111"/>
     <use x="1513.416016" xlink:href="#DejaVuSans-116"/>
     <use x="1552.625" xlink:href="#DejaVuSans-32"/>
     <use x="1584.412109" xlink:href="#DejaVuSans-84"/>
     <use x="1629.871094" xlink:href="#DejaVuSans-121"/>
     <use x="1689.050781" xlink:href="#DejaVuSans-112"/>
     <use x="1752.527344" xlink:href="#DejaVuSans-101"/>
     <use x="1814.050781" xlink:href="#DejaVuSans-58"/>
     <use x="1847.742188" xlink:href="#DejaVuSans-32"/>
     <use x="1879.529297" xlink:href="#DejaVuSans-115"/>
     <use x="1931.628906" xlink:href="#DejaVuSans-121"/>
     <use x="1990.808594" xlink:href="#DejaVuSans-115"/>
     <use x="2042.908203" xlink:href="#DejaVuSans-116"/>
     <use x="2082.117188" xlink:href="#DejaVuSans-101"/>
     <use x="2143.640625" xlink:href="#DejaVuSans-109"/>
     <use x="2241.052734" xlink:href="#DejaVuSans-100"/>
    </g>
   </g>
   <g id="legend_1">
    <g id="patch_119">
     <path d="M 247.105 50.718125 
L 271.105 50.718125 
L 271.105 42.318125 
L 247.105 42.318125 
z
" style="fill:#008000;"/>
    </g>
    <g id="text_32">
     <!-- succeeded -->
     <g transform="translate(280.705 50.718125)scale(0.12 -0.12)">
      <use xlink:href="#DejaVuSans-115"/>
      <use x="52.099609" xlink:href="#DejaVuSans-117"/>
      <use x="115.478516" xlink:href="#DejaVuSans-99"/>
      <use x="170.458984" xlink:href="#DejaVuSans-99"/>
      <use x="225.439453" xlink:href="#DejaVuSans-101"/>
      <use x="286.962891" xlink:href="#DejaVuSans-101"/>
      <use x="348.486328" xlink:href="#DejaVuSans-100"/>
      <use x="411.962891" xlink:href="#DejaVuSans-101"/>
      <use x="473.486328" xlink:href="#DejaVuSans-100"/>
     </g>
    </g>
    <g id="patch_120">
     <path d="M 247.105 68.331875 
L 271.105 68.331875 
L 271.105 59.931875 
L 247.105 59.931875 
z
" style="fill:#ff0000;"/>
    </g>
    <g id="text_33">
     <!-- gem5 crashed -->
     <g transform="translate(280.705 68.331875)scale(0.12 -0.12)">
      <use xlink:href="#DejaVuSans-103"/>
      <use x="63.476562" xlink:href="#DejaVuSans-101"/>
      <use x="125" xlink:href="#DejaVuSans-109"/>
      <use x="222.412109" xlink:href="#DejaVuSans-53"/>
      <use x="286.035156" xlink:href="#DejaVuSans-32"/>
      <use x="317.822266" xlink:href="#DejaVuSans-99"/>
      <use x="372.802734" xlink:href="#DejaVuSans-114"/>
      <use x="413.916016" xlink:href="#DejaVuSans-97"/>
      <use x="475.195312" xlink:href="#DejaVuSans-115"/>
      <use x="527.294922" xlink:href="#DejaVuSans-104"/>
      <use x="590.673828" xlink:href="#DejaVuSans-101"/>
      <use x="652.197266" xlink:href="#DejaVuSans-100"/>
     </g>
    </g>
    <g id="patch_121">
     <path d="M 390.5875 50.718125 
L 414.5875 50.718125 
L 414.5875 42.318125 
L 390.5875 42.318125 
z
" style="fill:#0000ff;"/>
    </g>
    <g id="text_34">
     <!-- workload crashed -->
     <g transform="translate(424.1875 50.718125)scale(0.12 -0.12)">
      <use xlink:href="#DejaVuSans-119"/>
      <use x="81.787109" xlink:href="#DejaVuSans-111"/>
      <use x="142.96875" xlink:href="#DejaVuSans-114"/>
      <use x="184.082031" xlink:href="#DejaVuSans-107"/>
      <use x="241.992188" xlink:href="#DejaVuSans-108"/>
      <use x="269.775391" xlink:href="#DejaVuSans-111"/>
      <use x="330.957031" xlink:href="#DejaVuSans-97"/>
      <use x="392.236328" xlink:href="#DejaVuSans-100"/>
      <use x="455.712891" xlink:href="#DejaVuSans-32"/>
      <use x="487.5" xlink:href="#DejaVuSans-99"/>
      <use x="542.480469" xlink:href="#DejaVuSans-114"/>
      <use x="583.59375" xlink:href="#DejaVuSans-97"/>
      <use x="644.873047" xlink:href="#DejaVuSans-115"/>
      <use x="696.972656" xlink:href="#DejaVuSans-104"/>
      <use x="760.351562" xlink:href="#DejaVuSans-101"/>
      <use x="821.875" xlink:href="#DejaVuSans-100"/>
     </g>
    </g>
    <g id="patch_122">
     <path d="M 390.5875 68.331875 
L 414.5875 68.331875 
L 414.5875 59.931875 
L 390.5875 59.931875 
z
" style="fill:#ffff00;"/>
    </g>
    <g id="text_35">
     <!-- timed out (10 hours) -->
     <g transform="translate(424.1875 68.331875)scale(0.12 -0.12)">
      <defs>
       <path d="M 31 75.875 
Q 24.46875 64.65625 21.28125 53.65625 
Q 18.109375 42.671875 18.109375 31.390625 
Q 18.109375 20.125 21.3125 9.0625 
Q 24.515625 -2 31 -13.1875 
L 23.1875 -13.1875 
Q 15.875 -1.703125 12.234375 9.375 
Q 8.59375 20.453125 8.59375 31.390625 
Q 8.59375 42.28125 12.203125 53.3125 
Q 15.828125 64.359375 23.1875 75.875 
z
" id="DejaVuSans-40"/>
       <path d="M 31.78125 66.40625 
Q 24.171875 66.40625 20.328125 58.90625 
Q 16.5 51.421875 16.5 36.375 
Q 16.5 21.390625 20.328125 13.890625 
Q 24.171875 6.390625 31.78125 6.390625 
Q 39.453125 6.390625 43.28125 13.890625 
Q 47.125 21.390625 47.125 36.375 
Q 47.125 51.421875 43.28125 58.90625 
Q 39.453125 66.40625 31.78125 66.40625 
z
M 31.78125 74.21875 
Q 44.046875 74.21875 50.515625 64.515625 
Q 56.984375 54.828125 56.984375 36.375 
Q 56.984375 17.96875 50.515625 8.265625 
Q 44.046875 -1.421875 31.78125 -1.421875 
Q 19.53125 -1.421875 13.0625 8.265625 
Q 6.59375 17.96875 6.59375 36.375 
Q 6.59375 54.828125 13.0625 64.515625 
Q 19.53125 74.21875 31.78125 74.21875 
z
" id="DejaVuSans-48"/>
       <path d="M 8.015625 75.875 
L 15.828125 75.875 
Q 23.140625 64.359375 26.78125 53.3125 
Q 30.421875 42.28125 30.421875 31.390625 
Q 30.421875 20.453125 26.78125 9.375 
Q 23.140625 -1.703125 15.828125 -13.1875 
L 8.015625 -13.1875 
Q 14.5 -2 17.703125 9.0625 
Q 20.90625 20.125 20.90625 31.390625 
Q 20.90625 42.671875 17.703125 53.65625 
Q 14.5 64.65625 8.015625 75.875 
z
" id="DejaVuSans-41"/>
      </defs>
      <use xlink:href="#DejaVuSans-116"/>
      <use x="39.208984" xlink:href="#DejaVuSans-105"/>
      <use x="66.992188" xlink:href="#DejaVuSans-109"/>
      <use x="164.404297" xlink:href="#DejaVuSans-101"/>
      <use x="225.927734" xlink:href="#DejaVuSans-100"/>
      <use x="289.404297" xlink:href="#DejaVuSans-32"/>
      <use x="321.191406" xlink:href="#DejaVuSans-111"/>
      <use x="382.373047" xlink:href="#DejaVuSans-117"/>
      <use x="445.751953" xlink:href="#DejaVuSans-116"/>
      <use x="484.960938" xlink:href="#DejaVuSans-32"/>
      <use x="516.748047" xlink:href="#DejaVuSans-40"/>
      <use x="555.761719" xlink:href="#DejaVuSans-49"/>
      <use x="619.384766" xlink:href="#DejaVuSans-48"/>
      <use x="683.007812" xlink:href="#DejaVuSans-32"/>
      <use x="714.794922" xlink:href="#DejaVuSans-104"/>
      <use x="778.173828" xlink:href="#DejaVuSans-111"/>
      <use x="839.355469" xlink:href="#DejaVuSans-117"/>
      <use x="902.734375" xlink:href="#DejaVuSans-114"/>
      <use x="943.847656" xlink:href="#DejaVuSans-115"/>
      <use x="995.947266" xlink:href="#DejaVuSans-41"/>
     </g>
    </g>
    <g id="patch_123">
     <path d="M 572.38 50.718125 
L 596.38 50.718125 
L 596.38 42.318125 
L 572.38 42.318125 
z
" style="fill:#ffa500;"/>
    </g>
    <g id="text_36">
     <!-- kernel panic -->
     <g transform="translate(605.98 50.718125)scale(0.12 -0.12)">
      <use xlink:href="#DejaVuSans-107"/>
      <use x="54.285156" xlink:href="#DejaVuSans-101"/>
      <use x="115.808594" xlink:href="#DejaVuSans-114"/>
      <use x="155.171875" xlink:href="#DejaVuSans-110"/>
      <use x="218.550781" xlink:href="#DejaVuSans-101"/>
      <use x="280.074219" xlink:href="#DejaVuSans-108"/>
      <use x="307.857422" xlink:href="#DejaVuSans-32"/>
      <use x="339.644531" xlink:href="#DejaVuSans-112"/>
      <use x="403.121094" xlink:href="#DejaVuSans-97"/>
      <use x="464.400391" xlink:href="#DejaVuSans-110"/>
      <use x="527.779297" xlink:href="#DejaVuSans-105"/>
      <use x="555.5625" xlink:href="#DejaVuSans-99"/>
     </g>
    </g>
    <g id="patch_124">
     <path d="M 572.38 68.331875 
L 596.38 68.331875 
L 596.38 59.931875 
L 572.38 59.931875 
z
" style="fill:#808080;"/>
    </g>
    <g id="text_37">
     <!-- not supported -->
     <g transform="translate(605.98 68.331875)scale(0.12 -0.12)">
      <use xlink:href="#DejaVuSans-110"/>
      <use x="63.378906" xlink:href="#DejaVuSans-111"/>
      <use x="124.560547" xlink:href="#DejaVuSans-116"/>
      <use x="163.769531" xlink:href="#DejaVuSans-32"/>
      <use x="195.556641" xlink:href="#DejaVuSans-115"/>
      <use x="247.65625" xlink:href="#DejaVuSans-117"/>
      <use x="311.035156" xlink:href="#DejaVuSans-112"/>
      <use x="374.511719" xlink:href="#DejaVuSans-112"/>
      <use x="437.988281" xlink:href="#DejaVuSans-111"/>
      <use x="499.169922" xlink:href="#DejaVuSans-114"/>
      <use x="540.283203" xlink:href="#DejaVuSans-116"/>
      <use x="579.492188" xlink:href="#DejaVuSans-101"/>
      <use x="641.015625" xlink:href="#DejaVuSans-100"/>
     </g>
    </g>
    <g id="patch_125">
     <path d="M 714.52 50.718125 
L 738.52 50.718125 
L 738.52 42.318125 
L 714.52 42.318125 
z
" style="fill:url(#h96950f951d);"/>
    </g>
    <g id="text_38">
     <!-- unknown -->
     <g transform="translate(748.12 50.718125)scale(0.12 -0.12)">
      <use xlink:href="#DejaVuSans-117"/>
      <use x="63.378906" xlink:href="#DejaVuSans-110"/>
      <use x="126.757812" xlink:href="#DejaVuSans-107"/>
      <use x="184.667969" xlink:href="#DejaVuSans-110"/>
      <use x="248.046875" xlink:href="#DejaVuSans-111"/>
      <use x="309.228516" xlink:href="#DejaVuSans-119"/>
      <use x="391.015625" xlink:href="#DejaVuSans-110"/>
     </g>
    </g>
   </g>
  </g>
 </g>
 <defs>
  <clipPath id="p831f1017bc">
   <rect height="177.41868" width="800.65" x="124.55" y="30.8"/>
  </clipPath>
 </defs>
 <defs>
  <pattern height="72" id="h96950f951d" patternUnits="userSpaceOnUse" width="72" x="0" y="0">
   <rect fill="#ffffff" height="73" width="73" x="0" y="0"/>
   <path d="M -36 36 
L 36 108 
M -33 33 
L 39 105 
M -30 30 
L 42 102 
M -27 27 
L 45 99 
M -24 24 
L 48 96 
M -21 21 
L 51 93 
M -18 18 
L 54 90 
M -15 15 
L 57 87 
M -12 12 
L 60 84 
M -9 9 
L 63 81 
M -6 6 
L 66 78 
M -3 3 
L 69 75 
M 0 0 
L 72 72 
M 3 -3 
L 75 69 
M 6 -6 
L 78 66 
M 9 -9 
L 81 63 
M 12 -12 
L 84 60 
M 15 -15 
L 87 57 
M 18 -18 
L 90 54 
M 21 -21 
L 93 51 
M 24 -24 
L 96 48 
M 27 -27 
L 99 45 
M 30 -30 
L 102 42 
M 33 -33 
L 105 39 
M 36 -36 
L 108 36 
" style="fill:#000000;stroke:#000000;stroke-linecap:butt;stroke-linejoin:miter;stroke-width:1.0;"/>
  </pattern>
 </defs>
</svg>
