<?xml version="1.0" encoding="utf-8" standalone="no"?>
<!DOCTYPE svg PUBLIC "-//W3C//DTD SVG 1.1//EN"
  "http://www.w3.org/Graphics/SVG/1.1/DTD/svg11.dtd">
<!-- Created with matplotlib (https://matplotlib.org/) -->
<svg height="288pt" version="1.1" viewBox="0 0 720 288" width="720pt" xmlns="http://www.w3.org/2000/svg" xmlns:xlink="http://www.w3.org/1999/xlink">
 <metadata>
  <rdf:RDF xmlns:cc="http://creativecommons.org/ns#" xmlns:dc="http://purl.org/dc/elements/1.1/" xmlns:rdf="http://www.w3.org/1999/02/22-rdf-syntax-ns#">
   <cc:Work>
    <dc:type rdf:resource="http://purl.org/dc/dcmitype/StillImage"/>
    <dc:date>2020-10-10T15:39:37.509381</dc:date>
    <dc:format>image/svg+xml</dc:format>
    <dc:creator>
     <cc:Agent>
      <dc:title>Matplotlib v3.3.2, https://matplotlib.org/</dc:title>
     </cc:Agent>
    </dc:creator>
   </cc:Work>
  </rdf:RDF>
 </metadata>
 <defs>
  <style type="text/css">*{stroke-linecap:butt;stroke-linejoin:round;}</style>
 </defs>
 <g id="figure_1">
  <g id="patch_1">
   <path d="M 0 288 
L 720 288 
L 720 0 
L 0 0 
z
" style="fill:none;"/>
  </g>
  <g id="axes_1">
   <g id="patch_2">
    <path d="M 67.425 240.2 
L 707.8875 240.2 
L 707.8875 30.8 
L 67.425 30.8 
z
" style="fill:#ffffff;"/>
   </g>
   <g id="patch_3">
    <path clip-path="url(#pa3d19168d1)" d="M 47.410547 240.2 
L 87.439453 240.2 
L 87.439453 207.984615 
L 47.410547 207.984615 
z
" style="fill:#ffffff;stroke:#ffffff;stroke-linejoin:miter;"/>
   </g>
   <g id="patch_4">
    <path clip-path="url(#pa3d19168d1)" d="M 87.439453 240.2 
L 127.468359 240.2 
L 127.468359 207.984615 
L 87.439453 207.984615 
z
" style="fill:#008000;stroke:#ffffff;stroke-linejoin:miter;"/>
   </g>
   <g id="patch_5">
    <path clip-path="url(#pa3d19168d1)" d="M 127.468359 240.2 
L 167.497266 240.2 
L 167.497266 207.984615 
L 127.468359 207.984615 
z
" style="fill:#ffffff;stroke:#ffffff;stroke-linejoin:miter;"/>
   </g>
   <g id="patch_6">
    <path clip-path="url(#pa3d19168d1)" d="M 167.497266 240.2 
L 207.526172 240.2 
L 207.526172 207.984615 
L 167.497266 207.984615 
z
" style="fill:#008000;stroke:#ffffff;stroke-linejoin:miter;"/>
   </g>
   <g id="patch_7">
    <path clip-path="url(#pa3d19168d1)" d="M 207.526172 240.2 
L 247.555078 240.2 
L 247.555078 207.984615 
L 207.526172 207.984615 
z
" style="fill:#ffffff;stroke:#ffffff;stroke-linejoin:miter;"/>
   </g>
   <g id="patch_8">
    <path clip-path="url(#pa3d19168d1)" d="M 247.555078 240.2 
L 287.583984 240.2 
L 287.583984 207.984615 
L 247.555078 207.984615 
z
" style="fill:#008000;stroke:#ffffff;stroke-linejoin:miter;"/>
   </g>
   <g id="patch_9">
    <path clip-path="url(#pa3d19168d1)" d="M 287.583984 240.2 
L 327.612891 240.2 
L 327.612891 207.984615 
L 287.583984 207.984615 
z
" style="fill:#ffffff;stroke:#ffffff;stroke-linejoin:miter;"/>
   </g>
   <g id="patch_10">
    <path clip-path="url(#pa3d19168d1)" d="M 327.612891 240.2 
L 367.641797 240.2 
L 367.641797 207.984615 
L 327.612891 207.984615 
z
" style="fill:#008000;stroke:#ffffff;stroke-linejoin:miter;"/>
   </g>
   <g id="patch_11">
    <path clip-path="url(#pa3d19168d1)" d="M 367.641797 240.2 
L 407.670703 240.2 
L 407.670703 207.984615 
L 367.641797 207.984615 
z
" style="fill:#ffffff;stroke:#ffffff;stroke-linejoin:miter;"/>
   </g>
   <g id="patch_12">
    <path clip-path="url(#pa3d19168d1)" d="M 407.670703 240.2 
L 447.699609 240.2 
L 447.699609 207.984615 
L 407.670703 207.984615 
z
" style="fill:#008000;stroke:#ffffff;stroke-linejoin:miter;"/>
   </g>
   <g id="patch_13">
    <path clip-path="url(#pa3d19168d1)" d="M 447.699609 240.2 
L 487.728516 240.2 
L 487.728516 207.984615 
L 447.699609 207.984615 
z
" style="fill:#ffffff;stroke:#ffffff;stroke-linejoin:miter;"/>
   </g>
   <g id="patch_14">
    <path clip-path="url(#pa3d19168d1)" d="M 487.728516 240.2 
L 527.757422 240.2 
L 527.757422 207.984615 
L 487.728516 207.984615 
z
" style="fill:#008000;stroke:#ffffff;stroke-linejoin:miter;"/>
   </g>
   <g id="patch_15">
    <path clip-path="url(#pa3d19168d1)" d="M 527.757422 240.2 
L 567.786328 240.2 
L 567.786328 207.984615 
L 527.757422 207.984615 
z
" style="fill:#ffffff;stroke:#ffffff;stroke-linejoin:miter;"/>
   </g>
   <g id="patch_16">
    <path clip-path="url(#pa3d19168d1)" d="M 567.786328 240.2 
L 607.815234 240.2 
L 607.815234 207.984615 
L 567.786328 207.984615 
z
" style="fill:#008000;stroke:#ffffff;stroke-linejoin:miter;"/>
   </g>
   <g id="patch_17">
    <path clip-path="url(#pa3d19168d1)" d="M 607.815234 240.2 
L 647.844141 240.2 
L 647.844141 207.984615 
L 607.815234 207.984615 
z
" style="fill:#ffffff;stroke:#ffffff;stroke-linejoin:miter;"/>
   </g>
   <g id="patch_18">
    <path clip-path="url(#pa3d19168d1)" d="M 647.844141 240.2 
L 687.873047 240.2 
L 687.873047 207.984615 
L 647.844141 207.984615 
z
" style="fill:#008000;stroke:#ffffff;stroke-linejoin:miter;"/>
   </g>
   <g id="patch_19">
    <path clip-path="url(#pa3d19168d1)" d="M 687.873047 240.2 
L 727.901953 240.2 
L 727.901953 207.984615 
L 687.873047 207.984615 
z
" style="fill:#ffffff;stroke:#ffffff;stroke-linejoin:miter;"/>
   </g>
   <g id="patch_20">
    <path clip-path="url(#pa3d19168d1)" d="M 47.410547 207.984615 
L 87.439453 207.984615 
L 87.439453 175.769231 
L 47.410547 175.769231 
z
" style="fill:#ffffff;stroke:#ffffff;stroke-linejoin:miter;"/>
   </g>
   <g id="patch_21">
    <path clip-path="url(#pa3d19168d1)" d="M 87.439453 207.984615 
L 127.468359 207.984615 
L 127.468359 175.769231 
L 87.439453 175.769231 
z
" style="fill:#008000;stroke:#ffffff;stroke-linejoin:miter;"/>
   </g>
   <g id="patch_22">
    <path clip-path="url(#pa3d19168d1)" d="M 127.468359 207.984615 
L 167.497266 207.984615 
L 167.497266 175.769231 
L 127.468359 175.769231 
z
" style="fill:#ffffff;stroke:#ffffff;stroke-linejoin:miter;"/>
   </g>
   <g id="patch_23">
    <path clip-path="url(#pa3d19168d1)" d="M 167.497266 207.984615 
L 207.526172 207.984615 
L 207.526172 175.769231 
L 167.497266 175.769231 
z
" style="fill:#008000;stroke:#ffffff;stroke-linejoin:miter;"/>
   </g>
   <g id="patch_24">
    <path clip-path="url(#pa3d19168d1)" d="M 207.526172 207.984615 
L 247.555078 207.984615 
L 247.555078 175.769231 
L 207.526172 175.769231 
z
" style="fill:#ffffff;stroke:#ffffff;stroke-linejoin:miter;"/>
   </g>
   <g id="patch_25">
    <path clip-path="url(#pa3d19168d1)" d="M 247.555078 207.984615 
L 287.583984 207.984615 
L 287.583984 175.769231 
L 247.555078 175.769231 
z
" style="fill:#008000;stroke:#ffffff;stroke-linejoin:miter;"/>
   </g>
   <g id="patch_26">
    <path clip-path="url(#pa3d19168d1)" d="M 287.583984 207.984615 
L 327.612891 207.984615 
L 327.612891 175.769231 
L 287.583984 175.769231 
z
" style="fill:#ffffff;stroke:#ffffff;stroke-linejoin:miter;"/>
   </g>
   <g id="patch_27">
    <path clip-path="url(#pa3d19168d1)" d="M 327.612891 207.984615 
L 367.641797 207.984615 
L 367.641797 175.769231 
L 327.612891 175.769231 
z
" style="fill:#008000;stroke:#ffffff;stroke-linejoin:miter;"/>
   </g>
   <g id="patch_28">
    <path clip-path="url(#pa3d19168d1)" d="M 367.641797 207.984615 
L 407.670703 207.984615 
L 407.670703 175.769231 
L 367.641797 175.769231 
z
" style="fill:#ffffff;stroke:#ffffff;stroke-linejoin:miter;"/>
   </g>
   <g id="patch_29">
    <path clip-path="url(#pa3d19168d1)" d="M 407.670703 207.984615 
L 447.699609 207.984615 
L 447.699609 175.769231 
L 407.670703 175.769231 
z
" style="fill:#008000;stroke:#ffffff;stroke-linejoin:miter;"/>
   </g>
   <g id="patch_30">
    <path clip-path="url(#pa3d19168d1)" d="M 447.699609 207.984615 
L 487.728516 207.984615 
L 487.728516 175.769231 
L 447.699609 175.769231 
z
" style="fill:#ffffff;stroke:#ffffff;stroke-linejoin:miter;"/>
   </g>
   <g id="patch_31">
    <path clip-path="url(#pa3d19168d1)" d="M 487.728516 207.984615 
L 527.757422 207.984615 
L 527.757422 175.769231 
L 487.728516 175.769231 
z
" style="fill:#008000;stroke:#ffffff;stroke-linejoin:miter;"/>
   </g>
   <g id="patch_32">
    <path clip-path="url(#pa3d19168d1)" d="M 527.757422 207.984615 
L 567.786328 207.984615 
L 567.786328 175.769231 
L 527.757422 175.769231 
z
" style="fill:#ffffff;stroke:#ffffff;stroke-linejoin:miter;"/>
   </g>
   <g id="patch_33">
    <path clip-path="url(#pa3d19168d1)" d="M 567.786328 207.984615 
L 607.815234 207.984615 
L 607.815234 175.769231 
L 567.786328 175.769231 
z
" style="fill:#008000;stroke:#ffffff;stroke-linejoin:miter;"/>
   </g>
   <g id="patch_34">
    <path clip-path="url(#pa3d19168d1)" d="M 607.815234 207.984615 
L 647.844141 207.984615 
L 647.844141 175.769231 
L 607.815234 175.769231 
z
" style="fill:#ffffff;stroke:#ffffff;stroke-linejoin:miter;"/>
   </g>
   <g id="patch_35">
    <path clip-path="url(#pa3d19168d1)" d="M 647.844141 207.984615 
L 687.873047 207.984615 
L 687.873047 175.769231 
L 647.844141 175.769231 
z
" style="fill:#008000;stroke:#ffffff;stroke-linejoin:miter;"/>
   </g>
   <g id="patch_36">
    <path clip-path="url(#pa3d19168d1)" d="M 687.873047 207.984615 
L 727.901953 207.984615 
L 727.901953 175.769231 
L 687.873047 175.769231 
z
" style="fill:#ffffff;stroke:#ffffff;stroke-linejoin:miter;"/>
   </g>
   <g id="patch_37">
    <path clip-path="url(#pa3d19168d1)" d="M 47.410547 175.769231 
L 87.439453 175.769231 
L 87.439453 143.553846 
L 47.410547 143.553846 
z
" style="fill:#ffffff;stroke:#ffffff;stroke-linejoin:miter;"/>
   </g>
   <g id="patch_38">
    <path clip-path="url(#pa3d19168d1)" d="M 87.439453 175.769231 
L 127.468359 175.769231 
L 127.468359 143.553846 
L 87.439453 143.553846 
z
" style="fill:#008000;stroke:#ffffff;stroke-linejoin:miter;"/>
   </g>
   <g id="patch_39">
    <path clip-path="url(#pa3d19168d1)" d="M 127.468359 175.769231 
L 167.497266 175.769231 
L 167.497266 143.553846 
L 127.468359 143.553846 
z
" style="fill:#ffffff;stroke:#ffffff;stroke-linejoin:miter;"/>
   </g>
   <g id="patch_40">
    <path clip-path="url(#pa3d19168d1)" d="M 167.497266 175.769231 
L 207.526172 175.769231 
L 207.526172 143.553846 
L 167.497266 143.553846 
z
" style="fill:#008000;stroke:#ffffff;stroke-linejoin:miter;"/>
   </g>
   <g id="patch_41">
    <path clip-path="url(#pa3d19168d1)" d="M 207.526172 175.769231 
L 247.555078 175.769231 
L 247.555078 143.553846 
L 207.526172 143.553846 
z
" style="fill:#ffffff;stroke:#ffffff;stroke-linejoin:miter;"/>
   </g>
   <g id="patch_42">
    <path clip-path="url(#pa3d19168d1)" d="M 247.555078 175.769231 
L 287.583984 175.769231 
L 287.583984 143.553846 
L 247.555078 143.553846 
z
" style="fill:#008000;stroke:#ffffff;stroke-linejoin:miter;"/>
   </g>
   <g id="patch_43">
    <path clip-path="url(#pa3d19168d1)" d="M 287.583984 175.769231 
L 327.612891 175.769231 
L 327.612891 143.553846 
L 287.583984 143.553846 
z
" style="fill:#ffffff;stroke:#ffffff;stroke-linejoin:miter;"/>
   </g>
   <g id="patch_44">
    <path clip-path="url(#pa3d19168d1)" d="M 327.612891 175.769231 
L 367.641797 175.769231 
L 367.641797 143.553846 
L 327.612891 143.553846 
z
" style="fill:#008000;stroke:#ffffff;stroke-linejoin:miter;"/>
   </g>
   <g id="patch_45">
    <path clip-path="url(#pa3d19168d1)" d="M 367.641797 175.769231 
L 407.670703 175.769231 
L 407.670703 143.553846 
L 367.641797 143.553846 
z
" style="fill:#ffffff;stroke:#ffffff;stroke-linejoin:miter;"/>
   </g>
   <g id="patch_46">
    <path clip-path="url(#pa3d19168d1)" d="M 407.670703 175.769231 
L 447.699609 175.769231 
L 447.699609 143.553846 
L 407.670703 143.553846 
z
" style="fill:#008000;stroke:#ffffff;stroke-linejoin:miter;"/>
   </g>
   <g id="patch_47">
    <path clip-path="url(#pa3d19168d1)" d="M 447.699609 175.769231 
L 487.728516 175.769231 
L 487.728516 143.553846 
L 447.699609 143.553846 
z
" style="fill:#ffffff;stroke:#ffffff;stroke-linejoin:miter;"/>
   </g>
   <g id="patch_48">
    <path clip-path="url(#pa3d19168d1)" d="M 487.728516 175.769231 
L 527.757422 175.769231 
L 527.757422 143.553846 
L 487.728516 143.553846 
z
" style="fill:#008000;stroke:#ffffff;stroke-linejoin:miter;"/>
   </g>
   <g id="patch_49">
    <path clip-path="url(#pa3d19168d1)" d="M 527.757422 175.769231 
L 567.786328 175.769231 
L 567.786328 143.553846 
L 527.757422 143.553846 
z
" style="fill:#ffffff;stroke:#ffffff;stroke-linejoin:miter;"/>
   </g>
   <g id="patch_50">
    <path clip-path="url(#pa3d19168d1)" d="M 567.786328 175.769231 
L 607.815234 175.769231 
L 607.815234 143.553846 
L 567.786328 143.553846 
z
" style="fill:#008000;stroke:#ffffff;stroke-linejoin:miter;"/>
   </g>
   <g id="patch_51">
    <path clip-path="url(#pa3d19168d1)" d="M 607.815234 175.769231 
L 647.844141 175.769231 
L 647.844141 143.553846 
L 607.815234 143.553846 
z
" style="fill:#ffffff;stroke:#ffffff;stroke-linejoin:miter;"/>
   </g>
   <g id="patch_52">
    <path clip-path="url(#pa3d19168d1)" d="M 647.844141 175.769231 
L 687.873047 175.769231 
L 687.873047 143.553846 
L 647.844141 143.553846 
z
" style="fill:#008000;stroke:#ffffff;stroke-linejoin:miter;"/>
   </g>
   <g id="patch_53">
    <path clip-path="url(#pa3d19168d1)" d="M 687.873047 175.769231 
L 727.901953 175.769231 
L 727.901953 143.553846 
L 687.873047 143.553846 
z
" style="fill:#ffffff;stroke:#ffffff;stroke-linejoin:miter;"/>
   </g>
   <g id="patch_54">
    <path clip-path="url(#pa3d19168d1)" d="M 47.410547 143.553846 
L 87.439453 143.553846 
L 87.439453 111.338462 
L 47.410547 111.338462 
z
" style="fill:#ffffff;stroke:#ffffff;stroke-linejoin:miter;"/>
   </g>
   <g id="patch_55">
    <path clip-path="url(#pa3d19168d1)" d="M 87.439453 143.553846 
L 127.468359 143.553846 
L 127.468359 111.338462 
L 87.439453 111.338462 
z
" style="fill:#008000;stroke:#ffffff;stroke-linejoin:miter;"/>
   </g>
   <g id="patch_56">
    <path clip-path="url(#pa3d19168d1)" d="M 127.468359 143.553846 
L 167.497266 143.553846 
L 167.497266 111.338462 
L 127.468359 111.338462 
z
" style="fill:#ffffff;stroke:#ffffff;stroke-linejoin:miter;"/>
   </g>
   <g id="patch_57">
    <path clip-path="url(#pa3d19168d1)" d="M 167.497266 143.553846 
L 207.526172 143.553846 
L 207.526172 111.338462 
L 167.497266 111.338462 
z
" style="fill:#008000;stroke:#ffffff;stroke-linejoin:miter;"/>
   </g>
   <g id="patch_58">
    <path clip-path="url(#pa3d19168d1)" d="M 207.526172 143.553846 
L 247.555078 143.553846 
L 247.555078 111.338462 
L 207.526172 111.338462 
z
" style="fill:#ffffff;stroke:#ffffff;stroke-linejoin:miter;"/>
   </g>
   <g id="patch_59">
    <path clip-path="url(#pa3d19168d1)" d="M 247.555078 143.553846 
L 287.583984 143.553846 
L 287.583984 111.338462 
L 247.555078 111.338462 
z
" style="fill:#008000;stroke:#ffffff;stroke-linejoin:miter;"/>
   </g>
   <g id="patch_60">
    <path clip-path="url(#pa3d19168d1)" d="M 287.583984 143.553846 
L 327.612891 143.553846 
L 327.612891 111.338462 
L 287.583984 111.338462 
z
" style="fill:#ffffff;stroke:#ffffff;stroke-linejoin:miter;"/>
   </g>
   <g id="patch_61">
    <path clip-path="url(#pa3d19168d1)" d="M 327.612891 143.553846 
L 367.641797 143.553846 
L 367.641797 111.338462 
L 327.612891 111.338462 
z
" style="fill:#ffff00;stroke:#ffffff;stroke-linejoin:miter;"/>
   </g>
   <g id="patch_62">
    <path clip-path="url(#pa3d19168d1)" d="M 367.641797 143.553846 
L 407.670703 143.553846 
L 407.670703 111.338462 
L 367.641797 111.338462 
z
" style="fill:#ffffff;stroke:#ffffff;stroke-linejoin:miter;"/>
   </g>
   <g id="patch_63">
    <path clip-path="url(#pa3d19168d1)" d="M 407.670703 143.553846 
L 447.699609 143.553846 
L 447.699609 111.338462 
L 407.670703 111.338462 
z
" style="fill:#008000;stroke:#ffffff;stroke-linejoin:miter;"/>
   </g>
   <g id="patch_64">
    <path clip-path="url(#pa3d19168d1)" d="M 447.699609 143.553846 
L 487.728516 143.553846 
L 487.728516 111.338462 
L 447.699609 111.338462 
z
" style="fill:#ffffff;stroke:#ffffff;stroke-linejoin:miter;"/>
   </g>
   <g id="patch_65">
    <path clip-path="url(#pa3d19168d1)" d="M 487.728516 143.553846 
L 527.757422 143.553846 
L 527.757422 111.338462 
L 487.728516 111.338462 
z
" style="fill:#008000;stroke:#ffffff;stroke-linejoin:miter;"/>
   </g>
   <g id="patch_66">
    <path clip-path="url(#pa3d19168d1)" d="M 527.757422 143.553846 
L 567.786328 143.553846 
L 567.786328 111.338462 
L 527.757422 111.338462 
z
" style="fill:#ffffff;stroke:#ffffff;stroke-linejoin:miter;"/>
   </g>
   <g id="patch_67">
    <path clip-path="url(#pa3d19168d1)" d="M 567.786328 143.553846 
L 607.815234 143.553846 
L 607.815234 111.338462 
L 567.786328 111.338462 
z
" style="fill:#008000;stroke:#ffffff;stroke-linejoin:miter;"/>
   </g>
   <g id="patch_68">
    <path clip-path="url(#pa3d19168d1)" d="M 607.815234 143.553846 
L 647.844141 143.553846 
L 647.844141 111.338462 
L 607.815234 111.338462 
z
" style="fill:#ffffff;stroke:#ffffff;stroke-linejoin:miter;"/>
   </g>
   <g id="patch_69">
    <path clip-path="url(#pa3d19168d1)" d="M 647.844141 143.553846 
L 687.873047 143.553846 
L 687.873047 111.338462 
L 647.844141 111.338462 
z
" style="fill:#008000;stroke:#ffffff;stroke-linejoin:miter;"/>
   </g>
   <g id="patch_70">
    <path clip-path="url(#pa3d19168d1)" d="M 687.873047 143.553846 
L 727.901953 143.553846 
L 727.901953 111.338462 
L 687.873047 111.338462 
z
" style="fill:#ffffff;stroke:#ffffff;stroke-linejoin:miter;"/>
   </g>
   <g id="patch_71">
    <path clip-path="url(#pa3d19168d1)" d="M 47.410547 111.338462 
L 87.439453 111.338462 
L 87.439453 79.123077 
L 47.410547 79.123077 
z
" style="fill:#ffffff;stroke:#ffffff;stroke-linejoin:miter;"/>
   </g>
   <g id="patch_72">
    <path clip-path="url(#pa3d19168d1)" d="M 87.439453 111.338462 
L 127.468359 111.338462 
L 127.468359 79.123077 
L 87.439453 79.123077 
z
" style="fill:#ffff00;stroke:#ffffff;stroke-linejoin:miter;"/>
   </g>
   <g id="patch_73">
    <path clip-path="url(#pa3d19168d1)" d="M 127.468359 111.338462 
L 167.497266 111.338462 
L 167.497266 79.123077 
L 127.468359 79.123077 
z
" style="fill:#ffffff;stroke:#ffffff;stroke-linejoin:miter;"/>
   </g>
   <g id="patch_74">
    <path clip-path="url(#pa3d19168d1)" d="M 167.497266 111.338462 
L 207.526172 111.338462 
L 207.526172 79.123077 
L 167.497266 79.123077 
z
" style="fill:#ffff00;stroke:#ffffff;stroke-linejoin:miter;"/>
   </g>
   <g id="patch_75">
    <path clip-path="url(#pa3d19168d1)" d="M 207.526172 111.338462 
L 247.555078 111.338462 
L 247.555078 79.123077 
L 207.526172 79.123077 
z
" style="fill:#ffffff;stroke:#ffffff;stroke-linejoin:miter;"/>
   </g>
   <g id="patch_76">
    <path clip-path="url(#pa3d19168d1)" d="M 247.555078 111.338462 
L 287.583984 111.338462 
L 287.583984 79.123077 
L 247.555078 79.123077 
z
" style="fill:#008000;stroke:#ffffff;stroke-linejoin:miter;"/>
   </g>
   <g id="patch_77">
    <path clip-path="url(#pa3d19168d1)" d="M 287.583984 111.338462 
L 327.612891 111.338462 
L 327.612891 79.123077 
L 287.583984 79.123077 
z
" style="fill:#ffffff;stroke:#ffffff;stroke-linejoin:miter;"/>
   </g>
   <g id="patch_78">
    <path clip-path="url(#pa3d19168d1)" d="M 327.612891 111.338462 
L 367.641797 111.338462 
L 367.641797 79.123077 
L 327.612891 79.123077 
z
" style="fill:#008000;stroke:#ffffff;stroke-linejoin:miter;"/>
   </g>
   <g id="patch_79">
    <path clip-path="url(#pa3d19168d1)" d="M 367.641797 111.338462 
L 407.670703 111.338462 
L 407.670703 79.123077 
L 367.641797 79.123077 
z
" style="fill:#ffffff;stroke:#ffffff;stroke-linejoin:miter;"/>
   </g>
   <g id="patch_80">
    <path clip-path="url(#pa3d19168d1)" d="M 407.670703 111.338462 
L 447.699609 111.338462 
L 447.699609 79.123077 
L 407.670703 79.123077 
z
" style="fill:#008000;stroke:#ffffff;stroke-linejoin:miter;"/>
   </g>
   <g id="patch_81">
    <path clip-path="url(#pa3d19168d1)" d="M 447.699609 111.338462 
L 487.728516 111.338462 
L 487.728516 79.123077 
L 447.699609 79.123077 
z
" style="fill:#ffffff;stroke:#ffffff;stroke-linejoin:miter;"/>
   </g>
   <g id="patch_82">
    <path clip-path="url(#pa3d19168d1)" d="M 487.728516 111.338462 
L 527.757422 111.338462 
L 527.757422 79.123077 
L 487.728516 79.123077 
z
" style="fill:#ffff00;stroke:#ffffff;stroke-linejoin:miter;"/>
   </g>
   <g id="patch_83">
    <path clip-path="url(#pa3d19168d1)" d="M 527.757422 111.338462 
L 567.786328 111.338462 
L 567.786328 79.123077 
L 527.757422 79.123077 
z
" style="fill:#ffffff;stroke:#ffffff;stroke-linejoin:miter;"/>
   </g>
   <g id="patch_84">
    <path clip-path="url(#pa3d19168d1)" d="M 567.786328 111.338462 
L 607.815234 111.338462 
L 607.815234 79.123077 
L 567.786328 79.123077 
z
" style="fill:#008000;stroke:#ffffff;stroke-linejoin:miter;"/>
   </g>
   <g id="patch_85">
    <path clip-path="url(#pa3d19168d1)" d="M 607.815234 111.338462 
L 647.844141 111.338462 
L 647.844141 79.123077 
L 607.815234 79.123077 
z
" style="fill:#ffffff;stroke:#ffffff;stroke-linejoin:miter;"/>
   </g>
   <g id="patch_86">
    <path clip-path="url(#pa3d19168d1)" d="M 647.844141 111.338462 
L 687.873047 111.338462 
L 687.873047 79.123077 
L 647.844141 79.123077 
z
" style="fill:#008000;stroke:#ffffff;stroke-linejoin:miter;"/>
   </g>
   <g id="patch_87">
    <path clip-path="url(#pa3d19168d1)" d="M 687.873047 111.338462 
L 727.901953 111.338462 
L 727.901953 79.123077 
L 687.873047 79.123077 
z
" style="fill:#ffffff;stroke:#ffffff;stroke-linejoin:miter;"/>
   </g>
   <g id="patch_88">
    <path clip-path="url(#pa3d19168d1)" d="M 51.413438 240.2 
L 83.436563 240.2 
L 83.436563 240.2 
L 51.413438 240.2 
z
" style="fill:#008000;"/>
   </g>
   <g id="patch_89">
    <path clip-path="url(#pa3d19168d1)" d="M 51.413438 240.2 
L 83.436563 240.2 
L 83.436563 240.2 
L 51.413438 240.2 
z
" style="fill:#ff0000;"/>
   </g>
   <g id="patch_90">
    <path clip-path="url(#pa3d19168d1)" d="M 51.413438 240.2 
L 83.436563 240.2 
L 83.436563 240.2 
L 51.413438 240.2 
z
" style="fill:#0000ff;"/>
   </g>
   <g id="patch_91">
    <path clip-path="url(#pa3d19168d1)" d="M 51.413438 240.2 
L 83.436563 240.2 
L 83.436563 240.2 
L 51.413438 240.2 
z
" style="fill:#ffff00;"/>
   </g>
   <g id="patch_92">
    <path clip-path="url(#pa3d19168d1)" d="M 51.413438 240.2 
L 83.436563 240.2 
L 83.436563 240.2 
L 51.413438 240.2 
z
" style="fill:#ffa500;"/>
   </g>
   <g id="patch_93">
    <path clip-path="url(#pa3d19168d1)" d="M 51.413438 240.2 
L 83.436563 240.2 
L 83.436563 240.2 
L 51.413438 240.2 
z
" style="fill:#808080;"/>
   </g>
   <g id="patch_94">
    <path clip-path="url(#pa3d19168d1)" d="M 51.413438 240.2 
L 83.436563 240.2 
L 83.436563 240.2 
L 51.413438 240.2 
z
" style="fill:url(#h732afaebad);"/>
   </g>
   <g id="patch_95">
    <path clip-path="url(#pa3d19168d1)" d="M 51.413438 240.2 
L 83.436563 240.2 
L 83.436563 240.2 
L 51.413438 240.2 
z
" style="fill:#ffffff;"/>
   </g>
   <g id="matplotlib.axis_1">
    <g id="xtick_1">
     <g id="line2d_1">
      <defs>
       <path d="M 0 0 
L 0 3.5 
" id="m73020e2987" style="stroke:#000000;stroke-width:0.8;"/>
      </defs>
      <g>
       <use style="stroke:#000000;stroke-width:0.8;" x="107.453906" xlink:href="#m73020e2987" y="240.2"/>
      </g>
     </g>
     <g id="text_1">
      <!-- bt.x -->
      <g transform="translate(95.834531 256.318125)scale(0.12 -0.12)">
       <defs>
        <path d="M 48.6875 27.296875 
Q 48.6875 37.203125 44.609375 42.84375 
Q 40.53125 48.484375 33.40625 48.484375 
Q 26.265625 48.484375 22.1875 42.84375 
Q 18.109375 37.203125 18.109375 27.296875 
Q 18.109375 17.390625 22.1875 11.75 
Q 26.265625 6.109375 33.40625 6.109375 
Q 40.53125 6.109375 44.609375 11.75 
Q 48.6875 17.390625 48.6875 27.296875 
z
M 18.109375 46.390625 
Q 20.953125 51.265625 25.265625 53.625 
Q 29.59375 56 35.59375 56 
Q 45.5625 56 51.78125 48.09375 
Q 58.015625 40.1875 58.015625 27.296875 
Q 58.015625 14.40625 51.78125 6.484375 
Q 45.5625 -1.421875 35.59375 -1.421875 
Q 29.59375 -1.421875 25.265625 0.953125 
Q 20.953125 3.328125 18.109375 8.203125 
L 18.109375 0 
L 9.078125 0 
L 9.078125 75.984375 
L 18.109375 75.984375 
z
" id="DejaVuSans-98"/>
        <path d="M 18.3125 70.21875 
L 18.3125 54.6875 
L 36.8125 54.6875 
L 36.8125 47.703125 
L 18.3125 47.703125 
L 18.3125 18.015625 
Q 18.3125 11.328125 20.140625 9.421875 
Q 21.96875 7.515625 27.59375 7.515625 
L 36.8125 7.515625 
L 36.8125 0 
L 27.59375 0 
Q 17.1875 0 13.234375 3.875 
Q 9.28125 7.765625 9.28125 18.015625 
L 9.28125 47.703125 
L 2.6875 47.703125 
L 2.6875 54.6875 
L 9.28125 54.6875 
L 9.28125 70.21875 
z
" id="DejaVuSans-116"/>
        <path d="M 10.6875 12.40625 
L 21 12.40625 
L 21 0 
L 10.6875 0 
z
" id="DejaVuSans-46"/>
        <path d="M 54.890625 54.6875 
L 35.109375 28.078125 
L 55.90625 0 
L 45.3125 0 
L 29.390625 21.484375 
L 13.484375 0 
L 2.875 0 
L 24.125 28.609375 
L 4.6875 54.6875 
L 15.28125 54.6875 
L 29.78125 35.203125 
L 44.28125 54.6875 
z
" id="DejaVuSans-120"/>
       </defs>
       <use xlink:href="#DejaVuSans-98"/>
       <use x="63.476562" xlink:href="#DejaVuSans-116"/>
       <use x="102.685547" xlink:href="#DejaVuSans-46"/>
       <use x="134.472656" xlink:href="#DejaVuSans-120"/>
      </g>
     </g>
    </g>
    <g id="xtick_2">
     <g id="line2d_2">
      <g>
       <use style="stroke:#000000;stroke-width:0.8;" x="147.482812" xlink:href="#m73020e2987" y="240.2"/>
      </g>
     </g>
    </g>
    <g id="xtick_3">
     <g id="line2d_3">
      <g>
       <use style="stroke:#000000;stroke-width:0.8;" x="187.511719" xlink:href="#m73020e2987" y="240.2"/>
      </g>
     </g>
     <g id="text_2">
      <!-- cg.x -->
      <g transform="translate(174.945469 256.318125)scale(0.12 -0.12)">
       <defs>
        <path d="M 48.78125 52.59375 
L 48.78125 44.1875 
Q 44.96875 46.296875 41.140625 47.34375 
Q 37.3125 48.390625 33.40625 48.390625 
Q 24.65625 48.390625 19.8125 42.84375 
Q 14.984375 37.3125 14.984375 27.296875 
Q 14.984375 17.28125 19.8125 11.734375 
Q 24.65625 6.203125 33.40625 6.203125 
Q 37.3125 6.203125 41.140625 7.25 
Q 44.96875 8.296875 48.78125 10.40625 
L 48.78125 2.09375 
Q 45.015625 0.34375 40.984375 -0.53125 
Q 36.96875 -1.421875 32.421875 -1.421875 
Q 20.0625 -1.421875 12.78125 6.34375 
Q 5.515625 14.109375 5.515625 27.296875 
Q 5.515625 40.671875 12.859375 48.328125 
Q 20.21875 56 33.015625 56 
Q 37.15625 56 41.109375 55.140625 
Q 45.0625 54.296875 48.78125 52.59375 
z
" id="DejaVuSans-99"/>
        <path d="M 45.40625 27.984375 
Q 45.40625 37.75 41.375 43.109375 
Q 37.359375 48.484375 30.078125 48.484375 
Q 22.859375 48.484375 18.828125 43.109375 
Q 14.796875 37.75 14.796875 27.984375 
Q 14.796875 18.265625 18.828125 12.890625 
Q 22.859375 7.515625 30.078125 7.515625 
Q 37.359375 7.515625 41.375 12.890625 
Q 45.40625 18.265625 45.40625 27.984375 
z
M 54.390625 6.78125 
Q 54.390625 -7.171875 48.1875 -13.984375 
Q 42 -20.796875 29.203125 -20.796875 
Q 24.46875 -20.796875 20.265625 -20.09375 
Q 16.0625 -19.390625 12.109375 -17.921875 
L 12.109375 -9.1875 
Q 16.0625 -11.328125 19.921875 -12.34375 
Q 23.78125 -13.375 27.78125 -13.375 
Q 36.625 -13.375 41.015625 -8.765625 
Q 45.40625 -4.15625 45.40625 5.171875 
L 45.40625 9.625 
Q 42.625 4.78125 38.28125 2.390625 
Q 33.9375 0 27.875 0 
Q 17.828125 0 11.671875 7.65625 
Q 5.515625 15.328125 5.515625 27.984375 
Q 5.515625 40.671875 11.671875 48.328125 
Q 17.828125 56 27.875 56 
Q 33.9375 56 38.28125 53.609375 
Q 42.625 51.21875 45.40625 46.390625 
L 45.40625 54.6875 
L 54.390625 54.6875 
z
" id="DejaVuSans-103"/>
       </defs>
       <use xlink:href="#DejaVuSans-99"/>
       <use x="54.980469" xlink:href="#DejaVuSans-103"/>
       <use x="118.457031" xlink:href="#DejaVuSans-46"/>
       <use x="150.244141" xlink:href="#DejaVuSans-120"/>
      </g>
     </g>
    </g>
    <g id="xtick_4">
     <g id="line2d_4">
      <g>
       <use style="stroke:#000000;stroke-width:0.8;" x="227.540625" xlink:href="#m73020e2987" y="240.2"/>
      </g>
     </g>
    </g>
    <g id="xtick_5">
     <g id="line2d_5">
      <g>
       <use style="stroke:#000000;stroke-width:0.8;" x="267.569531" xlink:href="#m73020e2987" y="240.2"/>
      </g>
     </g>
     <g id="text_3">
      <!-- ep.x -->
      <g transform="translate(254.610469 256.318125)scale(0.12 -0.12)">
       <defs>
        <path d="M 56.203125 29.59375 
L 56.203125 25.203125 
L 14.890625 25.203125 
Q 15.484375 15.921875 20.484375 11.0625 
Q 25.484375 6.203125 34.421875 6.203125 
Q 39.59375 6.203125 44.453125 7.46875 
Q 49.3125 8.734375 54.109375 11.28125 
L 54.109375 2.78125 
Q 49.265625 0.734375 44.1875 -0.34375 
Q 39.109375 -1.421875 33.890625 -1.421875 
Q 20.796875 -1.421875 13.15625 6.1875 
Q 5.515625 13.8125 5.515625 26.8125 
Q 5.515625 40.234375 12.765625 48.109375 
Q 20.015625 56 32.328125 56 
Q 43.359375 56 49.78125 48.890625 
Q 56.203125 41.796875 56.203125 29.59375 
z
M 47.21875 32.234375 
Q 47.125 39.59375 43.09375 43.984375 
Q 39.0625 48.390625 32.421875 48.390625 
Q 24.90625 48.390625 20.390625 44.140625 
Q 15.875 39.890625 15.1875 32.171875 
z
" id="DejaVuSans-101"/>
        <path d="M 18.109375 8.203125 
L 18.109375 -20.796875 
L 9.078125 -20.796875 
L 9.078125 54.6875 
L 18.109375 54.6875 
L 18.109375 46.390625 
Q 20.953125 51.265625 25.265625 53.625 
Q 29.59375 56 35.59375 56 
Q 45.5625 56 51.78125 48.09375 
Q 58.015625 40.1875 58.015625 27.296875 
Q 58.015625 14.40625 51.78125 6.484375 
Q 45.5625 -1.421875 35.59375 -1.421875 
Q 29.59375 -1.421875 25.265625 0.953125 
Q 20.953125 3.328125 18.109375 8.203125 
z
M 48.6875 27.296875 
Q 48.6875 37.203125 44.609375 42.84375 
Q 40.53125 48.484375 33.40625 48.484375 
Q 26.265625 48.484375 22.1875 42.84375 
Q 18.109375 37.203125 18.109375 27.296875 
Q 18.109375 17.390625 22.1875 11.75 
Q 26.265625 6.109375 33.40625 6.109375 
Q 40.53125 6.109375 44.609375 11.75 
Q 48.6875 17.390625 48.6875 27.296875 
z
" id="DejaVuSans-112"/>
       </defs>
       <use xlink:href="#DejaVuSans-101"/>
       <use x="61.523438" xlink:href="#DejaVuSans-112"/>
       <use x="125" xlink:href="#DejaVuSans-46"/>
       <use x="156.787109" xlink:href="#DejaVuSans-120"/>
      </g>
     </g>
    </g>
    <g id="xtick_6">
     <g id="line2d_6">
      <g>
       <use style="stroke:#000000;stroke-width:0.8;" x="307.598437" xlink:href="#m73020e2987" y="240.2"/>
      </g>
     </g>
    </g>
    <g id="xtick_7">
     <g id="line2d_7">
      <g>
       <use style="stroke:#000000;stroke-width:0.8;" x="347.627344" xlink:href="#m73020e2987" y="240.2"/>
      </g>
     </g>
     <g id="text_4">
      <!-- ft.x -->
      <g transform="translate(337.809844 256.318125)scale(0.12 -0.12)">
       <defs>
        <path d="M 37.109375 75.984375 
L 37.109375 68.5 
L 28.515625 68.5 
Q 23.6875 68.5 21.796875 66.546875 
Q 19.921875 64.59375 19.921875 59.515625 
L 19.921875 54.6875 
L 34.71875 54.6875 
L 34.71875 47.703125 
L 19.921875 47.703125 
L 19.921875 0 
L 10.890625 0 
L 10.890625 47.703125 
L 2.296875 47.703125 
L 2.296875 54.6875 
L 10.890625 54.6875 
L 10.890625 58.5 
Q 10.890625 67.625 15.140625 71.796875 
Q 19.390625 75.984375 28.609375 75.984375 
z
" id="DejaVuSans-102"/>
       </defs>
       <use xlink:href="#DejaVuSans-102"/>
       <use x="33.455078" xlink:href="#DejaVuSans-116"/>
       <use x="72.664062" xlink:href="#DejaVuSans-46"/>
       <use x="104.451172" xlink:href="#DejaVuSans-120"/>
      </g>
     </g>
    </g>
    <g id="xtick_8">
     <g id="line2d_8">
      <g>
       <use style="stroke:#000000;stroke-width:0.8;" x="387.65625" xlink:href="#m73020e2987" y="240.2"/>
      </g>
     </g>
    </g>
    <g id="xtick_9">
     <g id="line2d_9">
      <g>
       <use style="stroke:#000000;stroke-width:0.8;" x="427.685156" xlink:href="#m73020e2987" y="240.2"/>
      </g>
     </g>
     <g id="text_5">
      <!-- is.x -->
      <g transform="translate(417.434531 256.318125)scale(0.12 -0.12)">
       <defs>
        <path d="M 9.421875 54.6875 
L 18.40625 54.6875 
L 18.40625 0 
L 9.421875 0 
z
M 9.421875 75.984375 
L 18.40625 75.984375 
L 18.40625 64.59375 
L 9.421875 64.59375 
z
" id="DejaVuSans-105"/>
        <path d="M 44.28125 53.078125 
L 44.28125 44.578125 
Q 40.484375 46.53125 36.375 47.5 
Q 32.28125 48.484375 27.875 48.484375 
Q 21.1875 48.484375 17.84375 46.4375 
Q 14.5 44.390625 14.5 40.28125 
Q 14.5 37.15625 16.890625 35.375 
Q 19.28125 33.59375 26.515625 31.984375 
L 29.59375 31.296875 
Q 39.15625 29.25 43.1875 25.515625 
Q 47.21875 21.78125 47.21875 15.09375 
Q 47.21875 7.46875 41.1875 3.015625 
Q 35.15625 -1.421875 24.609375 -1.421875 
Q 20.21875 -1.421875 15.453125 -0.5625 
Q 10.6875 0.296875 5.421875 2 
L 5.421875 11.28125 
Q 10.40625 8.6875 15.234375 7.390625 
Q 20.0625 6.109375 24.8125 6.109375 
Q 31.15625 6.109375 34.5625 8.28125 
Q 37.984375 10.453125 37.984375 14.40625 
Q 37.984375 18.0625 35.515625 20.015625 
Q 33.0625 21.96875 24.703125 23.78125 
L 21.578125 24.515625 
Q 13.234375 26.265625 9.515625 29.90625 
Q 5.8125 33.546875 5.8125 39.890625 
Q 5.8125 47.609375 11.28125 51.796875 
Q 16.75 56 26.8125 56 
Q 31.78125 56 36.171875 55.265625 
Q 40.578125 54.546875 44.28125 53.078125 
z
" id="DejaVuSans-115"/>
       </defs>
       <use xlink:href="#DejaVuSans-105"/>
       <use x="27.783203" xlink:href="#DejaVuSans-115"/>
       <use x="79.882812" xlink:href="#DejaVuSans-46"/>
       <use x="111.669922" xlink:href="#DejaVuSans-120"/>
      </g>
     </g>
    </g>
    <g id="xtick_10">
     <g id="line2d_10">
      <g>
       <use style="stroke:#000000;stroke-width:0.8;" x="467.714063" xlink:href="#m73020e2987" y="240.2"/>
      </g>
     </g>
    </g>
    <g id="xtick_11">
     <g id="line2d_11">
      <g>
       <use style="stroke:#000000;stroke-width:0.8;" x="507.742969" xlink:href="#m73020e2987" y="240.2"/>
      </g>
     </g>
     <g id="text_6">
      <!-- lu.x -->
      <g transform="translate(496.815469 256.318125)scale(0.12 -0.12)">
       <defs>
        <path d="M 9.421875 75.984375 
L 18.40625 75.984375 
L 18.40625 0 
L 9.421875 0 
z
" id="DejaVuSans-108"/>
        <path d="M 8.5 21.578125 
L 8.5 54.6875 
L 17.484375 54.6875 
L 17.484375 21.921875 
Q 17.484375 14.15625 20.5 10.265625 
Q 23.53125 6.390625 29.59375 6.390625 
Q 36.859375 6.390625 41.078125 11.03125 
Q 45.3125 15.671875 45.3125 23.6875 
L 45.3125 54.6875 
L 54.296875 54.6875 
L 54.296875 0 
L 45.3125 0 
L 45.3125 8.40625 
Q 42.046875 3.421875 37.71875 1 
Q 33.40625 -1.421875 27.6875 -1.421875 
Q 18.265625 -1.421875 13.375 4.4375 
Q 8.5 10.296875 8.5 21.578125 
z
M 31.109375 56 
z
" id="DejaVuSans-117"/>
       </defs>
       <use xlink:href="#DejaVuSans-108"/>
       <use x="27.783203" xlink:href="#DejaVuSans-117"/>
       <use x="91.162109" xlink:href="#DejaVuSans-46"/>
       <use x="122.949219" xlink:href="#DejaVuSans-120"/>
      </g>
     </g>
    </g>
    <g id="xtick_12">
     <g id="line2d_12">
      <g>
       <use style="stroke:#000000;stroke-width:0.8;" x="547.771875" xlink:href="#m73020e2987" y="240.2"/>
      </g>
     </g>
    </g>
    <g id="xtick_13">
     <g id="line2d_13">
      <g>
       <use style="stroke:#000000;stroke-width:0.8;" x="587.800781" xlink:href="#m73020e2987" y="240.2"/>
      </g>
     </g>
     <g id="text_7">
      <!-- mg.x -->
      <g transform="translate(572.689219 256.318125)scale(0.12 -0.12)">
       <defs>
        <path d="M 52 44.1875 
Q 55.375 50.25 60.0625 53.125 
Q 64.75 56 71.09375 56 
Q 79.640625 56 84.28125 50.015625 
Q 88.921875 44.046875 88.921875 33.015625 
L 88.921875 0 
L 79.890625 0 
L 79.890625 32.71875 
Q 79.890625 40.578125 77.09375 44.375 
Q 74.3125 48.1875 68.609375 48.1875 
Q 61.625 48.1875 57.5625 43.546875 
Q 53.515625 38.921875 53.515625 30.90625 
L 53.515625 0 
L 44.484375 0 
L 44.484375 32.71875 
Q 44.484375 40.625 41.703125 44.40625 
Q 38.921875 48.1875 33.109375 48.1875 
Q 26.21875 48.1875 22.15625 43.53125 
Q 18.109375 38.875 18.109375 30.90625 
L 18.109375 0 
L 9.078125 0 
L 9.078125 54.6875 
L 18.109375 54.6875 
L 18.109375 46.1875 
Q 21.1875 51.21875 25.484375 53.609375 
Q 29.78125 56 35.6875 56 
Q 41.65625 56 45.828125 52.96875 
Q 50 49.953125 52 44.1875 
z
" id="DejaVuSans-109"/>
       </defs>
       <use xlink:href="#DejaVuSans-109"/>
       <use x="97.412109" xlink:href="#DejaVuSans-103"/>
       <use x="160.888672" xlink:href="#DejaVuSans-46"/>
       <use x="192.675781" xlink:href="#DejaVuSans-120"/>
      </g>
     </g>
    </g>
    <g id="xtick_14">
     <g id="line2d_14">
      <g>
       <use style="stroke:#000000;stroke-width:0.8;" x="627.829687" xlink:href="#m73020e2987" y="240.2"/>
      </g>
     </g>
    </g>
    <g id="xtick_15">
     <g id="line2d_15">
      <g>
       <use style="stroke:#000000;stroke-width:0.8;" x="667.858594" xlink:href="#m73020e2987" y="240.2"/>
      </g>
     </g>
     <g id="text_8">
      <!-- sp.x -->
      <g transform="translate(655.465781 256.318125)scale(0.12 -0.12)">
       <use xlink:href="#DejaVuSans-115"/>
       <use x="52.099609" xlink:href="#DejaVuSans-112"/>
       <use x="115.576172" xlink:href="#DejaVuSans-46"/>
       <use x="147.363281" xlink:href="#DejaVuSans-120"/>
      </g>
     </g>
    </g>
    <g id="xtick_16">
     <g id="line2d_16">
      <g>
       <use style="stroke:#000000;stroke-width:0.8;" x="707.8875" xlink:href="#m73020e2987" y="240.2"/>
      </g>
     </g>
    </g>
    <g id="text_9">
     <!-- Workloads -->
     <g transform="translate(356.514375 271.931875)scale(0.12 -0.12)">
      <defs>
       <path d="M 3.328125 72.90625 
L 13.28125 72.90625 
L 28.609375 11.28125 
L 43.890625 72.90625 
L 54.984375 72.90625 
L 70.3125 11.28125 
L 85.59375 72.90625 
L 95.609375 72.90625 
L 77.296875 0 
L 64.890625 0 
L 49.515625 63.28125 
L 33.984375 0 
L 21.578125 0 
z
" id="DejaVuSans-87"/>
       <path d="M 30.609375 48.390625 
Q 23.390625 48.390625 19.1875 42.75 
Q 14.984375 37.109375 14.984375 27.296875 
Q 14.984375 17.484375 19.15625 11.84375 
Q 23.34375 6.203125 30.609375 6.203125 
Q 37.796875 6.203125 41.984375 11.859375 
Q 46.1875 17.53125 46.1875 27.296875 
Q 46.1875 37.015625 41.984375 42.703125 
Q 37.796875 48.390625 30.609375 48.390625 
z
M 30.609375 56 
Q 42.328125 56 49.015625 48.375 
Q 55.71875 40.765625 55.71875 27.296875 
Q 55.71875 13.875 49.015625 6.21875 
Q 42.328125 -1.421875 30.609375 -1.421875 
Q 18.84375 -1.421875 12.171875 6.21875 
Q 5.515625 13.875 5.515625 27.296875 
Q 5.515625 40.765625 12.171875 48.375 
Q 18.84375 56 30.609375 56 
z
" id="DejaVuSans-111"/>
       <path d="M 41.109375 46.296875 
Q 39.59375 47.171875 37.8125 47.578125 
Q 36.03125 48 33.890625 48 
Q 26.265625 48 22.1875 43.046875 
Q 18.109375 38.09375 18.109375 28.8125 
L 18.109375 0 
L 9.078125 0 
L 9.078125 54.6875 
L 18.109375 54.6875 
L 18.109375 46.1875 
Q 20.953125 51.171875 25.484375 53.578125 
Q 30.03125 56 36.53125 56 
Q 37.453125 56 38.578125 55.875 
Q 39.703125 55.765625 41.0625 55.515625 
z
" id="DejaVuSans-114"/>
       <path d="M 9.078125 75.984375 
L 18.109375 75.984375 
L 18.109375 31.109375 
L 44.921875 54.6875 
L 56.390625 54.6875 
L 27.390625 29.109375 
L 57.625 0 
L 45.90625 0 
L 18.109375 26.703125 
L 18.109375 0 
L 9.078125 0 
z
" id="DejaVuSans-107"/>
       <path d="M 34.28125 27.484375 
Q 23.390625 27.484375 19.1875 25 
Q 14.984375 22.515625 14.984375 16.5 
Q 14.984375 11.71875 18.140625 8.90625 
Q 21.296875 6.109375 26.703125 6.109375 
Q 34.1875 6.109375 38.703125 11.40625 
Q 43.21875 16.703125 43.21875 25.484375 
L 43.21875 27.484375 
z
M 52.203125 31.203125 
L 52.203125 0 
L 43.21875 0 
L 43.21875 8.296875 
Q 40.140625 3.328125 35.546875 0.953125 
Q 30.953125 -1.421875 24.3125 -1.421875 
Q 15.921875 -1.421875 10.953125 3.296875 
Q 6 8.015625 6 15.921875 
Q 6 25.140625 12.171875 29.828125 
Q 18.359375 34.515625 30.609375 34.515625 
L 43.21875 34.515625 
L 43.21875 35.40625 
Q 43.21875 41.609375 39.140625 45 
Q 35.0625 48.390625 27.6875 48.390625 
Q 23 48.390625 18.546875 47.265625 
Q 14.109375 46.140625 10.015625 43.890625 
L 10.015625 52.203125 
Q 14.9375 54.109375 19.578125 55.046875 
Q 24.21875 56 28.609375 56 
Q 40.484375 56 46.34375 49.84375 
Q 52.203125 43.703125 52.203125 31.203125 
z
" id="DejaVuSans-97"/>
       <path d="M 45.40625 46.390625 
L 45.40625 75.984375 
L 54.390625 75.984375 
L 54.390625 0 
L 45.40625 0 
L 45.40625 8.203125 
Q 42.578125 3.328125 38.25 0.953125 
Q 33.9375 -1.421875 27.875 -1.421875 
Q 17.96875 -1.421875 11.734375 6.484375 
Q 5.515625 14.40625 5.515625 27.296875 
Q 5.515625 40.1875 11.734375 48.09375 
Q 17.96875 56 27.875 56 
Q 33.9375 56 38.25 53.625 
Q 42.578125 51.265625 45.40625 46.390625 
z
M 14.796875 27.296875 
Q 14.796875 17.390625 18.875 11.75 
Q 22.953125 6.109375 30.078125 6.109375 
Q 37.203125 6.109375 41.296875 11.75 
Q 45.40625 17.390625 45.40625 27.296875 
Q 45.40625 37.203125 41.296875 42.84375 
Q 37.203125 48.484375 30.078125 48.484375 
Q 22.953125 48.484375 18.875 42.84375 
Q 14.796875 37.203125 14.796875 27.296875 
z
" id="DejaVuSans-100"/>
      </defs>
      <use xlink:href="#DejaVuSans-87"/>
      <use x="93.001953" xlink:href="#DejaVuSans-111"/>
      <use x="154.183594" xlink:href="#DejaVuSans-114"/>
      <use x="195.296875" xlink:href="#DejaVuSans-107"/>
      <use x="253.207031" xlink:href="#DejaVuSans-108"/>
      <use x="280.990234" xlink:href="#DejaVuSans-111"/>
      <use x="342.171875" xlink:href="#DejaVuSans-97"/>
      <use x="403.451172" xlink:href="#DejaVuSans-100"/>
      <use x="466.927734" xlink:href="#DejaVuSans-115"/>
     </g>
    </g>
   </g>
   <g id="matplotlib.axis_2">
    <g id="ytick_1">
     <g id="line2d_17">
      <defs>
       <path d="M 0 0 
L -3.5 0 
" id="mc261a16249" style="stroke:#000000;stroke-width:0.8;"/>
      </defs>
      <g>
       <use style="stroke:#000000;stroke-width:0.8;" x="67.425" xlink:href="#mc261a16249" y="224.092308"/>
      </g>
     </g>
     <g id="text_10">
      <!-- 1 CPU -->
      <g transform="translate(24.57875 228.65137)scale(0.12 -0.12)">
       <defs>
        <path d="M 12.40625 8.296875 
L 28.515625 8.296875 
L 28.515625 63.921875 
L 10.984375 60.40625 
L 10.984375 69.390625 
L 28.421875 72.90625 
L 38.28125 72.90625 
L 38.28125 8.296875 
L 54.390625 8.296875 
L 54.390625 0 
L 12.40625 0 
z
" id="DejaVuSans-49"/>
        <path id="DejaVuSans-32"/>
        <path d="M 64.40625 67.28125 
L 64.40625 56.890625 
Q 59.421875 61.53125 53.78125 63.8125 
Q 48.140625 66.109375 41.796875 66.109375 
Q 29.296875 66.109375 22.65625 58.46875 
Q 16.015625 50.828125 16.015625 36.375 
Q 16.015625 21.96875 22.65625 14.328125 
Q 29.296875 6.6875 41.796875 6.6875 
Q 48.140625 6.6875 53.78125 8.984375 
Q 59.421875 11.28125 64.40625 15.921875 
L 64.40625 5.609375 
Q 59.234375 2.09375 53.4375 0.328125 
Q 47.65625 -1.421875 41.21875 -1.421875 
Q 24.65625 -1.421875 15.125 8.703125 
Q 5.609375 18.84375 5.609375 36.375 
Q 5.609375 53.953125 15.125 64.078125 
Q 24.65625 74.21875 41.21875 74.21875 
Q 47.75 74.21875 53.53125 72.484375 
Q 59.328125 70.75 64.40625 67.28125 
z
" id="DejaVuSans-67"/>
        <path d="M 19.671875 64.796875 
L 19.671875 37.40625 
L 32.078125 37.40625 
Q 38.96875 37.40625 42.71875 40.96875 
Q 46.484375 44.53125 46.484375 51.125 
Q 46.484375 57.671875 42.71875 61.234375 
Q 38.96875 64.796875 32.078125 64.796875 
z
M 9.8125 72.90625 
L 32.078125 72.90625 
Q 44.34375 72.90625 50.609375 67.359375 
Q 56.890625 61.8125 56.890625 51.125 
Q 56.890625 40.328125 50.609375 34.8125 
Q 44.34375 29.296875 32.078125 29.296875 
L 19.671875 29.296875 
L 19.671875 0 
L 9.8125 0 
z
" id="DejaVuSans-80"/>
        <path d="M 8.6875 72.90625 
L 18.609375 72.90625 
L 18.609375 28.609375 
Q 18.609375 16.890625 22.84375 11.734375 
Q 27.09375 6.59375 36.625 6.59375 
Q 46.09375 6.59375 50.34375 11.734375 
Q 54.59375 16.890625 54.59375 28.609375 
L 54.59375 72.90625 
L 64.5 72.90625 
L 64.5 27.390625 
Q 64.5 13.140625 57.4375 5.859375 
Q 50.390625 -1.421875 36.625 -1.421875 
Q 22.796875 -1.421875 15.734375 5.859375 
Q 8.6875 13.140625 8.6875 27.390625 
z
" id="DejaVuSans-85"/>
       </defs>
       <use xlink:href="#DejaVuSans-49"/>
       <use x="63.623047" xlink:href="#DejaVuSans-32"/>
       <use x="95.410156" xlink:href="#DejaVuSans-67"/>
       <use x="165.234375" xlink:href="#DejaVuSans-80"/>
       <use x="225.537109" xlink:href="#DejaVuSans-85"/>
      </g>
     </g>
    </g>
    <g id="ytick_2">
     <g id="line2d_18">
      <g>
       <use style="stroke:#000000;stroke-width:0.8;" x="67.425" xlink:href="#mc261a16249" y="191.876923"/>
      </g>
     </g>
     <g id="text_11">
      <!-- 8 CPUs -->
      <g transform="translate(18.3275 196.435986)scale(0.12 -0.12)">
       <defs>
        <path d="M 31.78125 34.625 
Q 24.75 34.625 20.71875 30.859375 
Q 16.703125 27.09375 16.703125 20.515625 
Q 16.703125 13.921875 20.71875 10.15625 
Q 24.75 6.390625 31.78125 6.390625 
Q 38.8125 6.390625 42.859375 10.171875 
Q 46.921875 13.96875 46.921875 20.515625 
Q 46.921875 27.09375 42.890625 30.859375 
Q 38.875 34.625 31.78125 34.625 
z
M 21.921875 38.8125 
Q 15.578125 40.375 12.03125 44.71875 
Q 8.5 49.078125 8.5 55.328125 
Q 8.5 64.0625 14.71875 69.140625 
Q 20.953125 74.21875 31.78125 74.21875 
Q 42.671875 74.21875 48.875 69.140625 
Q 55.078125 64.0625 55.078125 55.328125 
Q 55.078125 49.078125 51.53125 44.71875 
Q 48 40.375 41.703125 38.8125 
Q 48.828125 37.15625 52.796875 32.3125 
Q 56.78125 27.484375 56.78125 20.515625 
Q 56.78125 9.90625 50.3125 4.234375 
Q 43.84375 -1.421875 31.78125 -1.421875 
Q 19.734375 -1.421875 13.25 4.234375 
Q 6.78125 9.90625 6.78125 20.515625 
Q 6.78125 27.484375 10.78125 32.3125 
Q 14.796875 37.15625 21.921875 38.8125 
z
M 18.3125 54.390625 
Q 18.3125 48.734375 21.84375 45.5625 
Q 25.390625 42.390625 31.78125 42.390625 
Q 38.140625 42.390625 41.71875 45.5625 
Q 45.3125 48.734375 45.3125 54.390625 
Q 45.3125 60.0625 41.71875 63.234375 
Q 38.140625 66.40625 31.78125 66.40625 
Q 25.390625 66.40625 21.84375 63.234375 
Q 18.3125 60.0625 18.3125 54.390625 
z
" id="DejaVuSans-56"/>
       </defs>
       <use xlink:href="#DejaVuSans-56"/>
       <use x="63.623047" xlink:href="#DejaVuSans-32"/>
       <use x="95.410156" xlink:href="#DejaVuSans-67"/>
       <use x="165.234375" xlink:href="#DejaVuSans-80"/>
       <use x="225.537109" xlink:href="#DejaVuSans-85"/>
       <use x="298.730469" xlink:href="#DejaVuSans-115"/>
      </g>
     </g>
    </g>
    <g id="ytick_3">
     <g id="line2d_19">
      <g>
       <use style="stroke:#000000;stroke-width:0.8;" x="67.425" xlink:href="#mc261a16249" y="159.661538"/>
      </g>
     </g>
     <g id="text_12">
      <!-- 16 CPUs -->
      <g transform="translate(10.6925 164.220601)scale(0.12 -0.12)">
       <defs>
        <path d="M 33.015625 40.375 
Q 26.375 40.375 22.484375 35.828125 
Q 18.609375 31.296875 18.609375 23.390625 
Q 18.609375 15.53125 22.484375 10.953125 
Q 26.375 6.390625 33.015625 6.390625 
Q 39.65625 6.390625 43.53125 10.953125 
Q 47.40625 15.53125 47.40625 23.390625 
Q 47.40625 31.296875 43.53125 35.828125 
Q 39.65625 40.375 33.015625 40.375 
z
M 52.59375 71.296875 
L 52.59375 62.3125 
Q 48.875 64.0625 45.09375 64.984375 
Q 41.3125 65.921875 37.59375 65.921875 
Q 27.828125 65.921875 22.671875 59.328125 
Q 17.53125 52.734375 16.796875 39.40625 
Q 19.671875 43.65625 24.015625 45.921875 
Q 28.375 48.1875 33.59375 48.1875 
Q 44.578125 48.1875 50.953125 41.515625 
Q 57.328125 34.859375 57.328125 23.390625 
Q 57.328125 12.15625 50.6875 5.359375 
Q 44.046875 -1.421875 33.015625 -1.421875 
Q 20.359375 -1.421875 13.671875 8.265625 
Q 6.984375 17.96875 6.984375 36.375 
Q 6.984375 53.65625 15.1875 63.9375 
Q 23.390625 74.21875 37.203125 74.21875 
Q 40.921875 74.21875 44.703125 73.484375 
Q 48.484375 72.75 52.59375 71.296875 
z
" id="DejaVuSans-54"/>
       </defs>
       <use xlink:href="#DejaVuSans-49"/>
       <use x="63.623047" xlink:href="#DejaVuSans-54"/>
       <use x="127.246094" xlink:href="#DejaVuSans-32"/>
       <use x="159.033203" xlink:href="#DejaVuSans-67"/>
       <use x="228.857422" xlink:href="#DejaVuSans-80"/>
       <use x="289.160156" xlink:href="#DejaVuSans-85"/>
       <use x="362.353516" xlink:href="#DejaVuSans-115"/>
      </g>
     </g>
    </g>
    <g id="ytick_4">
     <g id="line2d_20">
      <g>
       <use style="stroke:#000000;stroke-width:0.8;" x="67.425" xlink:href="#mc261a16249" y="127.446154"/>
      </g>
     </g>
     <g id="text_13">
      <!-- 32 CPUs -->
      <g transform="translate(10.6925 132.005216)scale(0.12 -0.12)">
       <defs>
        <path d="M 40.578125 39.3125 
Q 47.65625 37.796875 51.625 33 
Q 55.609375 28.21875 55.609375 21.1875 
Q 55.609375 10.40625 48.1875 4.484375 
Q 40.765625 -1.421875 27.09375 -1.421875 
Q 22.515625 -1.421875 17.65625 -0.515625 
Q 12.796875 0.390625 7.625 2.203125 
L 7.625 11.71875 
Q 11.71875 9.328125 16.59375 8.109375 
Q 21.484375 6.890625 26.8125 6.890625 
Q 36.078125 6.890625 40.9375 10.546875 
Q 45.796875 14.203125 45.796875 21.1875 
Q 45.796875 27.640625 41.28125 31.265625 
Q 36.765625 34.90625 28.71875 34.90625 
L 20.21875 34.90625 
L 20.21875 43.015625 
L 29.109375 43.015625 
Q 36.375 43.015625 40.234375 45.921875 
Q 44.09375 48.828125 44.09375 54.296875 
Q 44.09375 59.90625 40.109375 62.90625 
Q 36.140625 65.921875 28.71875 65.921875 
Q 24.65625 65.921875 20.015625 65.03125 
Q 15.375 64.15625 9.8125 62.3125 
L 9.8125 71.09375 
Q 15.4375 72.65625 20.34375 73.4375 
Q 25.25 74.21875 29.59375 74.21875 
Q 40.828125 74.21875 47.359375 69.109375 
Q 53.90625 64.015625 53.90625 55.328125 
Q 53.90625 49.265625 50.4375 45.09375 
Q 46.96875 40.921875 40.578125 39.3125 
z
" id="DejaVuSans-51"/>
        <path d="M 19.1875 8.296875 
L 53.609375 8.296875 
L 53.609375 0 
L 7.328125 0 
L 7.328125 8.296875 
Q 12.9375 14.109375 22.625 23.890625 
Q 32.328125 33.6875 34.8125 36.53125 
Q 39.546875 41.84375 41.421875 45.53125 
Q 43.3125 49.21875 43.3125 52.78125 
Q 43.3125 58.59375 39.234375 62.25 
Q 35.15625 65.921875 28.609375 65.921875 
Q 23.96875 65.921875 18.8125 64.3125 
Q 13.671875 62.703125 7.8125 59.421875 
L 7.8125 69.390625 
Q 13.765625 71.78125 18.9375 73 
Q 24.125 74.21875 28.421875 74.21875 
Q 39.75 74.21875 46.484375 68.546875 
Q 53.21875 62.890625 53.21875 53.421875 
Q 53.21875 48.921875 51.53125 44.890625 
Q 49.859375 40.875 45.40625 35.40625 
Q 44.1875 33.984375 37.640625 27.21875 
Q 31.109375 20.453125 19.1875 8.296875 
z
" id="DejaVuSans-50"/>
       </defs>
       <use xlink:href="#DejaVuSans-51"/>
       <use x="63.623047" xlink:href="#DejaVuSans-50"/>
       <use x="127.246094" xlink:href="#DejaVuSans-32"/>
       <use x="159.033203" xlink:href="#DejaVuSans-67"/>
       <use x="228.857422" xlink:href="#DejaVuSans-80"/>
       <use x="289.160156" xlink:href="#DejaVuSans-85"/>
       <use x="362.353516" xlink:href="#DejaVuSans-115"/>
      </g>
     </g>
    </g>
    <g id="ytick_5">
     <g id="line2d_21">
      <g>
       <use style="stroke:#000000;stroke-width:0.8;" x="67.425" xlink:href="#mc261a16249" y="95.230769"/>
      </g>
     </g>
     <g id="text_14">
      <!-- 64 CPUs -->
      <g transform="translate(10.6925 99.789832)scale(0.12 -0.12)">
       <defs>
        <path d="M 37.796875 64.3125 
L 12.890625 25.390625 
L 37.796875 25.390625 
z
M 35.203125 72.90625 
L 47.609375 72.90625 
L 47.609375 25.390625 
L 58.015625 25.390625 
L 58.015625 17.1875 
L 47.609375 17.1875 
L 47.609375 0 
L 37.796875 0 
L 37.796875 17.1875 
L 4.890625 17.1875 
L 4.890625 26.703125 
z
" id="DejaVuSans-52"/>
       </defs>
       <use xlink:href="#DejaVuSans-54"/>
       <use x="63.623047" xlink:href="#DejaVuSans-52"/>
       <use x="127.246094" xlink:href="#DejaVuSans-32"/>
       <use x="159.033203" xlink:href="#DejaVuSans-67"/>
       <use x="228.857422" xlink:href="#DejaVuSans-80"/>
       <use x="289.160156" xlink:href="#DejaVuSans-85"/>
       <use x="362.353516" xlink:href="#DejaVuSans-115"/>
      </g>
     </g>
    </g>
   </g>
   <g id="patch_96">
    <path d="M 67.425 240.2 
L 67.425 30.8 
" style="fill:none;stroke:#000000;stroke-linecap:square;stroke-linejoin:miter;stroke-width:0.8;"/>
   </g>
   <g id="patch_97">
    <path d="M 707.8875 240.2 
L 707.8875 30.8 
" style="fill:none;stroke:#000000;stroke-linecap:square;stroke-linejoin:miter;stroke-width:0.8;"/>
   </g>
   <g id="patch_98">
    <path d="M 67.425 240.2 
L 707.8875 240.2 
" style="fill:none;stroke:#000000;stroke-linecap:square;stroke-linejoin:miter;stroke-width:0.8;"/>
   </g>
   <g id="patch_99">
    <path d="M 67.425 30.8 
L 707.8875 30.8 
" style="fill:none;stroke:#000000;stroke-linecap:square;stroke-linejoin:miter;stroke-width:0.8;"/>
   </g>
   <g id="text_15">
    <!-- CPU Type: X86KvmCPU, Memory: MESI_Two_Level -->
    <g transform="translate(165.001875 24.8)scale(0.18 -0.18)">
     <defs>
      <path d="M -0.296875 72.90625 
L 61.375 72.90625 
L 61.375 64.59375 
L 35.5 64.59375 
L 35.5 0 
L 25.59375 0 
L 25.59375 64.59375 
L -0.296875 64.59375 
z
" id="DejaVuSans-84"/>
      <path d="M 32.171875 -5.078125 
Q 28.375 -14.84375 24.75 -17.8125 
Q 21.140625 -20.796875 15.09375 -20.796875 
L 7.90625 -20.796875 
L 7.90625 -13.28125 
L 13.1875 -13.28125 
Q 16.890625 -13.28125 18.9375 -11.515625 
Q 21 -9.765625 23.484375 -3.21875 
L 25.09375 0.875 
L 2.984375 54.6875 
L 12.5 54.6875 
L 29.59375 11.921875 
L 46.6875 54.6875 
L 56.203125 54.6875 
z
" id="DejaVuSans-121"/>
      <path d="M 11.71875 12.40625 
L 22.015625 12.40625 
L 22.015625 0 
L 11.71875 0 
z
M 11.71875 51.703125 
L 22.015625 51.703125 
L 22.015625 39.3125 
L 11.71875 39.3125 
z
" id="DejaVuSans-58"/>
      <path d="M 6.296875 72.90625 
L 16.890625 72.90625 
L 35.015625 45.796875 
L 53.21875 72.90625 
L 63.8125 72.90625 
L 40.375 37.890625 
L 65.375 0 
L 54.78125 0 
L 34.28125 31 
L 13.625 0 
L 2.984375 0 
L 29 38.921875 
z
" id="DejaVuSans-88"/>
      <path d="M 9.8125 72.90625 
L 19.671875 72.90625 
L 19.671875 42.09375 
L 52.390625 72.90625 
L 65.09375 72.90625 
L 28.90625 38.921875 
L 67.671875 0 
L 54.6875 0 
L 19.671875 35.109375 
L 19.671875 0 
L 9.8125 0 
z
" id="DejaVuSans-75"/>
      <path d="M 2.984375 54.6875 
L 12.5 54.6875 
L 29.59375 8.796875 
L 46.6875 54.6875 
L 56.203125 54.6875 
L 35.6875 0 
L 23.484375 0 
z
" id="DejaVuSans-118"/>
      <path d="M 11.71875 12.40625 
L 22.015625 12.40625 
L 22.015625 4 
L 14.015625 -11.625 
L 7.71875 -11.625 
L 11.71875 4 
z
" id="DejaVuSans-44"/>
      <path d="M 9.8125 72.90625 
L 24.515625 72.90625 
L 43.109375 23.296875 
L 61.8125 72.90625 
L 76.515625 72.90625 
L 76.515625 0 
L 66.890625 0 
L 66.890625 64.015625 
L 48.09375 14.015625 
L 38.1875 14.015625 
L 19.390625 64.015625 
L 19.390625 0 
L 9.8125 0 
z
" id="DejaVuSans-77"/>
      <path d="M 9.8125 72.90625 
L 55.90625 72.90625 
L 55.90625 64.59375 
L 19.671875 64.59375 
L 19.671875 43.015625 
L 54.390625 43.015625 
L 54.390625 34.71875 
L 19.671875 34.71875 
L 19.671875 8.296875 
L 56.78125 8.296875 
L 56.78125 0 
L 9.8125 0 
z
" id="DejaVuSans-69"/>
      <path d="M 53.515625 70.515625 
L 53.515625 60.890625 
Q 47.90625 63.578125 42.921875 64.890625 
Q 37.9375 66.21875 33.296875 66.21875 
Q 25.25 66.21875 20.875 63.09375 
Q 16.5 59.96875 16.5 54.203125 
Q 16.5 49.359375 19.40625 46.890625 
Q 22.3125 44.4375 30.421875 42.921875 
L 36.375 41.703125 
Q 47.40625 39.59375 52.65625 34.296875 
Q 57.90625 29 57.90625 20.125 
Q 57.90625 9.515625 50.796875 4.046875 
Q 43.703125 -1.421875 29.984375 -1.421875 
Q 24.8125 -1.421875 18.96875 -0.25 
Q 13.140625 0.921875 6.890625 3.21875 
L 6.890625 13.375 
Q 12.890625 10.015625 18.65625 8.296875 
Q 24.421875 6.59375 29.984375 6.59375 
Q 38.421875 6.59375 43.015625 9.90625 
Q 47.609375 13.234375 47.609375 19.390625 
Q 47.609375 24.75 44.3125 27.78125 
Q 41.015625 30.8125 33.5 32.328125 
L 27.484375 33.5 
Q 16.453125 35.6875 11.515625 40.375 
Q 6.59375 45.0625 6.59375 53.421875 
Q 6.59375 63.09375 13.40625 68.65625 
Q 20.21875 74.21875 32.171875 74.21875 
Q 37.3125 74.21875 42.625 73.28125 
Q 47.953125 72.359375 53.515625 70.515625 
z
" id="DejaVuSans-83"/>
      <path d="M 9.8125 72.90625 
L 19.671875 72.90625 
L 19.671875 0 
L 9.8125 0 
z
" id="DejaVuSans-73"/>
      <path d="M 50.984375 -16.609375 
L 50.984375 -23.578125 
L -0.984375 -23.578125 
L -0.984375 -16.609375 
z
" id="DejaVuSans-95"/>
      <path d="M 4.203125 54.6875 
L 13.1875 54.6875 
L 24.421875 12.015625 
L 35.59375 54.6875 
L 46.1875 54.6875 
L 57.421875 12.015625 
L 68.609375 54.6875 
L 77.59375 54.6875 
L 63.28125 0 
L 52.6875 0 
L 40.921875 44.828125 
L 29.109375 0 
L 18.5 0 
z
" id="DejaVuSans-119"/>
      <path d="M 9.8125 72.90625 
L 19.671875 72.90625 
L 19.671875 8.296875 
L 55.171875 8.296875 
L 55.171875 0 
L 9.8125 0 
z
" id="DejaVuSans-76"/>
     </defs>
     <use xlink:href="#DejaVuSans-67"/>
     <use x="69.824219" xlink:href="#DejaVuSans-80"/>
     <use x="130.126953" xlink:href="#DejaVuSans-85"/>
     <use x="203.320312" xlink:href="#DejaVuSans-32"/>
     <use x="235.107422" xlink:href="#DejaVuSans-84"/>
     <use x="280.566406" xlink:href="#DejaVuSans-121"/>
     <use x="339.746094" xlink:href="#DejaVuSans-112"/>
     <use x="403.222656" xlink:href="#DejaVuSans-101"/>
     <use x="464.746094" xlink:href="#DejaVuSans-58"/>
     <use x="498.4375" xlink:href="#DejaVuSans-32"/>
     <use x="530.224609" xlink:href="#DejaVuSans-88"/>
     <use x="598.730469" xlink:href="#DejaVuSans-56"/>
     <use x="662.353516" xlink:href="#DejaVuSans-54"/>
     <use x="725.976562" xlink:href="#DejaVuSans-75"/>
     <use x="791.552734" xlink:href="#DejaVuSans-118"/>
     <use x="850.732422" xlink:href="#DejaVuSans-109"/>
     <use x="948.144531" xlink:href="#DejaVuSans-67"/>
     <use x="1017.96875" xlink:href="#DejaVuSans-80"/>
     <use x="1078.271484" xlink:href="#DejaVuSans-85"/>
     <use x="1151.464844" xlink:href="#DejaVuSans-44"/>
     <use x="1183.251953" xlink:href="#DejaVuSans-32"/>
     <use x="1215.039062" xlink:href="#DejaVuSans-77"/>
     <use x="1301.318359" xlink:href="#DejaVuSans-101"/>
     <use x="1362.841797" xlink:href="#DejaVuSans-109"/>
     <use x="1460.253906" xlink:href="#DejaVuSans-111"/>
     <use x="1521.435547" xlink:href="#DejaVuSans-114"/>
     <use x="1562.548828" xlink:href="#DejaVuSans-121"/>
     <use x="1614.478516" xlink:href="#DejaVuSans-58"/>
     <use x="1648.169922" xlink:href="#DejaVuSans-32"/>
     <use x="1679.957031" xlink:href="#DejaVuSans-77"/>
     <use x="1766.236328" xlink:href="#DejaVuSans-69"/>
     <use x="1829.419922" xlink:href="#DejaVuSans-83"/>
     <use x="1892.896484" xlink:href="#DejaVuSans-73"/>
     <use x="1922.388672" xlink:href="#DejaVuSans-95"/>
     <use x="1972.388672" xlink:href="#DejaVuSans-84"/>
     <use x="2016.972656" xlink:href="#DejaVuSans-119"/>
     <use x="2098.759766" xlink:href="#DejaVuSans-111"/>
     <use x="2159.941406" xlink:href="#DejaVuSans-95"/>
     <use x="2209.941406" xlink:href="#DejaVuSans-76"/>
     <use x="2263.904297" xlink:href="#DejaVuSans-101"/>
     <use x="2325.427734" xlink:href="#DejaVuSans-118"/>
     <use x="2384.607422" xlink:href="#DejaVuSans-101"/>
     <use x="2446.130859" xlink:href="#DejaVuSans-108"/>
    </g>
   </g>
   <g id="legend_1">
    <g id="patch_100">
     <path d="M 112.591875 50.718125 
L 136.591875 50.718125 
L 136.591875 42.318125 
L 112.591875 42.318125 
z
" style="fill:#008000;"/>
    </g>
    <g id="text_16">
     <!-- succeeded -->
     <g transform="translate(146.191875 50.718125)scale(0.12 -0.12)">
      <use xlink:href="#DejaVuSans-115"/>
      <use x="52.099609" xlink:href="#DejaVuSans-117"/>
      <use x="115.478516" xlink:href="#DejaVuSans-99"/>
      <use x="170.458984" xlink:href="#DejaVuSans-99"/>
      <use x="225.439453" xlink:href="#DejaVuSans-101"/>
      <use x="286.962891" xlink:href="#DejaVuSans-101"/>
      <use x="348.486328" xlink:href="#DejaVuSans-100"/>
      <use x="411.962891" xlink:href="#DejaVuSans-101"/>
      <use x="473.486328" xlink:href="#DejaVuSans-100"/>
     </g>
    </g>
    <g id="patch_101">
     <path d="M 112.591875 68.331875 
L 136.591875 68.331875 
L 136.591875 59.931875 
L 112.591875 59.931875 
z
" style="fill:#ff0000;"/>
    </g>
    <g id="text_17">
     <!-- gem5 crashed -->
     <g transform="translate(146.191875 68.331875)scale(0.12 -0.12)">
      <defs>
       <path d="M 10.796875 72.90625 
L 49.515625 72.90625 
L 49.515625 64.59375 
L 19.828125 64.59375 
L 19.828125 46.734375 
Q 21.96875 47.46875 24.109375 47.828125 
Q 26.265625 48.1875 28.421875 48.1875 
Q 40.625 48.1875 47.75 41.5 
Q 54.890625 34.8125 54.890625 23.390625 
Q 54.890625 11.625 47.5625 5.09375 
Q 40.234375 -1.421875 26.90625 -1.421875 
Q 22.3125 -1.421875 17.546875 -0.640625 
Q 12.796875 0.140625 7.71875 1.703125 
L 7.71875 11.625 
Q 12.109375 9.234375 16.796875 8.0625 
Q 21.484375 6.890625 26.703125 6.890625 
Q 35.15625 6.890625 40.078125 11.328125 
Q 45.015625 15.765625 45.015625 23.390625 
Q 45.015625 31 40.078125 35.4375 
Q 35.15625 39.890625 26.703125 39.890625 
Q 22.75 39.890625 18.8125 39.015625 
Q 14.890625 38.140625 10.796875 36.28125 
z
" id="DejaVuSans-53"/>
       <path d="M 54.890625 33.015625 
L 54.890625 0 
L 45.90625 0 
L 45.90625 32.71875 
Q 45.90625 40.484375 42.875 44.328125 
Q 39.84375 48.1875 33.796875 48.1875 
Q 26.515625 48.1875 22.3125 43.546875 
Q 18.109375 38.921875 18.109375 30.90625 
L 18.109375 0 
L 9.078125 0 
L 9.078125 75.984375 
L 18.109375 75.984375 
L 18.109375 46.1875 
Q 21.34375 51.125 25.703125 53.5625 
Q 30.078125 56 35.796875 56 
Q 45.21875 56 50.046875 50.171875 
Q 54.890625 44.34375 54.890625 33.015625 
z
" id="DejaVuSans-104"/>
      </defs>
      <use xlink:href="#DejaVuSans-103"/>
      <use x="63.476562" xlink:href="#DejaVuSans-101"/>
      <use x="125" xlink:href="#DejaVuSans-109"/>
      <use x="222.412109" xlink:href="#DejaVuSans-53"/>
      <use x="286.035156" xlink:href="#DejaVuSans-32"/>
      <use x="317.822266" xlink:href="#DejaVuSans-99"/>
      <use x="372.802734" xlink:href="#DejaVuSans-114"/>
      <use x="413.916016" xlink:href="#DejaVuSans-97"/>
      <use x="475.195312" xlink:href="#DejaVuSans-115"/>
      <use x="527.294922" xlink:href="#DejaVuSans-104"/>
      <use x="590.673828" xlink:href="#DejaVuSans-101"/>
      <use x="652.197266" xlink:href="#DejaVuSans-100"/>
     </g>
    </g>
    <g id="patch_102">
     <path d="M 256.074375 50.718125 
L 280.074375 50.718125 
L 280.074375 42.318125 
L 256.074375 42.318125 
z
" style="fill:#0000ff;"/>
    </g>
    <g id="text_18">
     <!-- workload crashed -->
     <g transform="translate(289.674375 50.718125)scale(0.12 -0.12)">
      <use xlink:href="#DejaVuSans-119"/>
      <use x="81.787109" xlink:href="#DejaVuSans-111"/>
      <use x="142.96875" xlink:href="#DejaVuSans-114"/>
      <use x="184.082031" xlink:href="#DejaVuSans-107"/>
      <use x="241.992188" xlink:href="#DejaVuSans-108"/>
      <use x="269.775391" xlink:href="#DejaVuSans-111"/>
      <use x="330.957031" xlink:href="#DejaVuSans-97"/>
      <use x="392.236328" xlink:href="#DejaVuSans-100"/>
      <use x="455.712891" xlink:href="#DejaVuSans-32"/>
      <use x="487.5" xlink:href="#DejaVuSans-99"/>
      <use x="542.480469" xlink:href="#DejaVuSans-114"/>
      <use x="583.59375" xlink:href="#DejaVuSans-97"/>
      <use x="644.873047" xlink:href="#DejaVuSans-115"/>
      <use x="696.972656" xlink:href="#DejaVuSans-104"/>
      <use x="760.351562" xlink:href="#DejaVuSans-101"/>
      <use x="821.875" xlink:href="#DejaVuSans-100"/>
     </g>
    </g>
    <g id="patch_103">
     <path d="M 256.074375 68.331875 
L 280.074375 68.331875 
L 280.074375 59.931875 
L 256.074375 59.931875 
z
" style="fill:#ffff00;"/>
    </g>
    <g id="text_19">
     <!-- timed out (10 days) -->
     <g transform="translate(289.674375 68.331875)scale(0.12 -0.12)">
      <defs>
       <path d="M 31 75.875 
Q 24.46875 64.65625 21.28125 53.65625 
Q 18.109375 42.671875 18.109375 31.390625 
Q 18.109375 20.125 21.3125 9.0625 
Q 24.515625 -2 31 -13.1875 
L 23.1875 -13.1875 
Q 15.875 -1.703125 12.234375 9.375 
Q 8.59375 20.453125 8.59375 31.390625 
Q 8.59375 42.28125 12.203125 53.3125 
Q 15.828125 64.359375 23.1875 75.875 
z
" id="DejaVuSans-40"/>
       <path d="M 31.78125 66.40625 
Q 24.171875 66.40625 20.328125 58.90625 
Q 16.5 51.421875 16.5 36.375 
Q 16.5 21.390625 20.328125 13.890625 
Q 24.171875 6.390625 31.78125 6.390625 
Q 39.453125 6.390625 43.28125 13.890625 
Q 47.125 21.390625 47.125 36.375 
Q 47.125 51.421875 43.28125 58.90625 
Q 39.453125 66.40625 31.78125 66.40625 
z
M 31.78125 74.21875 
Q 44.046875 74.21875 50.515625 64.515625 
Q 56.984375 54.828125 56.984375 36.375 
Q 56.984375 17.96875 50.515625 8.265625 
Q 44.046875 -1.421875 31.78125 -1.421875 
Q 19.53125 -1.421875 13.0625 8.265625 
Q 6.59375 17.96875 6.59375 36.375 
Q 6.59375 54.828125 13.0625 64.515625 
Q 19.53125 74.21875 31.78125 74.21875 
z
" id="DejaVuSans-48"/>
       <path d="M 8.015625 75.875 
L 15.828125 75.875 
Q 23.140625 64.359375 26.78125 53.3125 
Q 30.421875 42.28125 30.421875 31.390625 
Q 30.421875 20.453125 26.78125 9.375 
Q 23.140625 -1.703125 15.828125 -13.1875 
L 8.015625 -13.1875 
Q 14.5 -2 17.703125 9.0625 
Q 20.90625 20.125 20.90625 31.390625 
Q 20.90625 42.671875 17.703125 53.65625 
Q 14.5 64.65625 8.015625 75.875 
z
" id="DejaVuSans-41"/>
      </defs>
      <use xlink:href="#DejaVuSans-116"/>
      <use x="39.208984" xlink:href="#DejaVuSans-105"/>
      <use x="66.992188" xlink:href="#DejaVuSans-109"/>
      <use x="164.404297" xlink:href="#DejaVuSans-101"/>
      <use x="225.927734" xlink:href="#DejaVuSans-100"/>
      <use x="289.404297" xlink:href="#DejaVuSans-32"/>
      <use x="321.191406" xlink:href="#DejaVuSans-111"/>
      <use x="382.373047" xlink:href="#DejaVuSans-117"/>
      <use x="445.751953" xlink:href="#DejaVuSans-116"/>
      <use x="484.960938" xlink:href="#DejaVuSans-32"/>
      <use x="516.748047" xlink:href="#DejaVuSans-40"/>
      <use x="555.761719" xlink:href="#DejaVuSans-49"/>
      <use x="619.384766" xlink:href="#DejaVuSans-48"/>
      <use x="683.007812" xlink:href="#DejaVuSans-32"/>
      <use x="714.794922" xlink:href="#DejaVuSans-100"/>
      <use x="778.271484" xlink:href="#DejaVuSans-97"/>
      <use x="839.550781" xlink:href="#DejaVuSans-121"/>
      <use x="898.730469" xlink:href="#DejaVuSans-115"/>
      <use x="950.830078" xlink:href="#DejaVuSans-41"/>
     </g>
    </g>
    <g id="patch_104">
     <path d="M 432.455625 50.718125 
L 456.455625 50.718125 
L 456.455625 42.318125 
L 432.455625 42.318125 
z
" style="fill:#ffa500;"/>
    </g>
    <g id="text_20">
     <!-- kernel panic -->
     <g transform="translate(466.055625 50.718125)scale(0.12 -0.12)">
      <defs>
       <path d="M 54.890625 33.015625 
L 54.890625 0 
L 45.90625 0 
L 45.90625 32.71875 
Q 45.90625 40.484375 42.875 44.328125 
Q 39.84375 48.1875 33.796875 48.1875 
Q 26.515625 48.1875 22.3125 43.546875 
Q 18.109375 38.921875 18.109375 30.90625 
L 18.109375 0 
L 9.078125 0 
L 9.078125 54.6875 
L 18.109375 54.6875 
L 18.109375 46.1875 
Q 21.34375 51.125 25.703125 53.5625 
Q 30.078125 56 35.796875 56 
Q 45.21875 56 50.046875 50.171875 
Q 54.890625 44.34375 54.890625 33.015625 
z
" id="DejaVuSans-110"/>
      </defs>
      <use xlink:href="#DejaVuSans-107"/>
      <use x="54.285156" xlink:href="#DejaVuSans-101"/>
      <use x="115.808594" xlink:href="#DejaVuSans-114"/>
      <use x="155.171875" xlink:href="#DejaVuSans-110"/>
      <use x="218.550781" xlink:href="#DejaVuSans-101"/>
      <use x="280.074219" xlink:href="#DejaVuSans-108"/>
      <use x="307.857422" xlink:href="#DejaVuSans-32"/>
      <use x="339.644531" xlink:href="#DejaVuSans-112"/>
      <use x="403.121094" xlink:href="#DejaVuSans-97"/>
      <use x="464.400391" xlink:href="#DejaVuSans-110"/>
      <use x="527.779297" xlink:href="#DejaVuSans-105"/>
      <use x="555.5625" xlink:href="#DejaVuSans-99"/>
     </g>
    </g>
    <g id="patch_105">
     <path d="M 432.455625 68.331875 
L 456.455625 68.331875 
L 456.455625 59.931875 
L 432.455625 59.931875 
z
" style="fill:#808080;"/>
    </g>
    <g id="text_21">
     <!-- not supported -->
     <g transform="translate(466.055625 68.331875)scale(0.12 -0.12)">
      <use xlink:href="#DejaVuSans-110"/>
      <use x="63.378906" xlink:href="#DejaVuSans-111"/>
      <use x="124.560547" xlink:href="#DejaVuSans-116"/>
      <use x="163.769531" xlink:href="#DejaVuSans-32"/>
      <use x="195.556641" xlink:href="#DejaVuSans-115"/>
      <use x="247.65625" xlink:href="#DejaVuSans-117"/>
      <use x="311.035156" xlink:href="#DejaVuSans-112"/>
      <use x="374.511719" xlink:href="#DejaVuSans-112"/>
      <use x="437.988281" xlink:href="#DejaVuSans-111"/>
      <use x="499.169922" xlink:href="#DejaVuSans-114"/>
      <use x="540.283203" xlink:href="#DejaVuSans-116"/>
      <use x="579.492188" xlink:href="#DejaVuSans-101"/>
      <use x="641.015625" xlink:href="#DejaVuSans-100"/>
     </g>
    </g>
    <g id="patch_106">
     <path d="M 574.595625 50.718125 
L 598.595625 50.718125 
L 598.595625 42.318125 
L 574.595625 42.318125 
z
" style="fill:url(#h732afaebad);"/>
    </g>
    <g id="text_22">
     <!-- unknown -->
     <g transform="translate(608.195625 50.718125)scale(0.12 -0.12)">
      <use xlink:href="#DejaVuSans-117"/>
      <use x="63.378906" xlink:href="#DejaVuSans-110"/>
      <use x="126.757812" xlink:href="#DejaVuSans-107"/>
      <use x="184.667969" xlink:href="#DejaVuSans-110"/>
      <use x="248.046875" xlink:href="#DejaVuSans-111"/>
      <use x="309.228516" xlink:href="#DejaVuSans-119"/>
      <use x="391.015625" xlink:href="#DejaVuSans-110"/>
     </g>
    </g>
   </g>
  </g>
 </g>
 <defs>
  <clipPath id="pa3d19168d1">
   <rect height="209.4" width="640.4625" x="67.425" y="30.8"/>
  </clipPath>
 </defs>
 <defs>
  <pattern height="72" id="h732afaebad" patternUnits="userSpaceOnUse" width="72" x="0" y="0">
   <rect fill="#ffffff" height="73" width="73" x="0" y="0"/>
   <path d="M -36 36 
L 36 108 
M -33 33 
L 39 105 
M -30 30 
L 42 102 
M -27 27 
L 45 99 
M -24 24 
L 48 96 
M -21 21 
L 51 93 
M -18 18 
L 54 90 
M -15 15 
L 57 87 
M -12 12 
L 60 84 
M -9 9 
L 63 81 
M -6 6 
L 66 78 
M -3 3 
L 69 75 
M 0 0 
L 72 72 
M 3 -3 
L 75 69 
M 6 -6 
L 78 66 
M 9 -9 
L 81 63 
M 12 -12 
L 84 60 
M 15 -15 
L 87 57 
M 18 -18 
L 90 54 
M 21 -21 
L 93 51 
M 24 -24 
L 96 48 
M 27 -27 
L 99 45 
M 30 -30 
L 102 42 
M 33 -33 
L 105 39 
M 36 -36 
L 108 36 
" style="fill:#000000;stroke:#000000;stroke-linecap:butt;stroke-linejoin:miter;stroke-width:1.0;"/>
  </pattern>
 </defs>
</svg>
